<svg width="32" height="32" viewBox="0 0 32 32" fill="none" xmlns="http://www.w3.org/2000/svg">
<path d="M8.17701 27.9999C6.60634 27.9999 5.33301 26.6932 5.33301 25.0799V13.3439C5.33301 12.4572 5.72634 11.6172 6.39967 11.0639L14.2223 4.63988C14.7222 4.22599 15.3507 3.99951 15.9997 3.99951C16.6486 3.99951 17.2772 4.22599 17.777 4.63988L25.5983 11.0639C26.273 11.6172 26.6663 12.4572 26.6663 13.3439V25.0799C26.6663 26.6932 25.393 27.9999 23.8223 27.9999H8.17701Z" stroke="white" stroke-width="3" stroke-linecap="round" stroke-linejoin="round"/>
<path d="M12.666 28V20.6667C12.666 19.9594 12.947 19.2811 13.4471 18.781C13.9472 18.281 14.6254 18 15.3327 18H16.666C17.3733 18 18.0515 18.281 18.5516 18.781C19.0517 19.2811 19.3327 19.9594 19.3327 20.6667V28" stroke="white" stroke-width="3" stroke-linecap="round" stroke-linejoin="round"/>
</svg>
