<svg width="477" height="318" viewBox="0 0 477 318" fill="none" xmlns="http://www.w3.org/2000/svg">
<path d="M425.693 39.4321C426.069 36.7355 422.259 34.5158 419.403 34.2869C418.036 34.1724 416.618 34.3823 415.327 33.9307C412.528 32.9576 411.409 29.3388 408.68 28.2067C406.639 27.3417 404.286 28.1113 402.32 29.1098C400.355 30.1083 398.384 31.3613 396.17 31.5012C394.262 31.622 392.157 30.9097 390.446 31.851C389.174 32.5506 388.538 33.9943 387.381 34.8465C386.223 35.6988 384.773 35.8578 383.368 35.9341C381.962 36.0104 380.512 36.0232 379.234 36.6083C377.955 37.1934 376.9 38.5163 377.167 39.9282L425.693 39.4321Z" fill="#F5F5F5"/>
<path d="M119.339 87.4563H65.584V257.815H119.339V87.4563Z" fill="#F5F5F5"/>
<path d="M119.338 87.4563H92.4609V257.345H119.338V87.4563Z" fill="#EBEBEB"/>
<path d="M90.7063 70.7361H71.7217V87.4629H90.7063V70.7361Z" fill="#F5F5F5"/>
<path d="M90.6997 70.7361H86.1777V87.4629H90.6997V70.7361Z" fill="#EBEBEB"/>
<path d="M61.1064 87.4565V86.4834H120.91V87.4565" fill="#E0E0E0"/>
<path d="M80.7398 94.7512H76.1924V104.342H80.7398V94.7512Z" fill="#FAFAFA"/>
<path d="M92.4613 108.12C92.4613 108.215 86.4448 108.298 79.0227 108.298C71.6005 108.298 65.584 108.215 65.584 108.12C65.584 108.025 71.6005 107.936 79.0227 107.936C86.4448 107.936 92.4613 108.012 92.4613 108.12Z" fill="#E0E0E0"/>
<path d="M107.852 94.7512H103.305V104.342H107.852V94.7512Z" fill="#E0E0E0"/>
<path d="M119.568 108.12C119.568 108.215 113.551 108.298 106.129 108.298C98.707 108.298 92.6904 108.215 92.6904 108.12C92.6904 108.025 98.707 107.936 106.129 107.936C113.551 107.936 119.568 108.012 119.568 108.12Z" fill="#E0E0E0"/>
<path d="M107.852 113.8H103.305V123.397H107.852V113.8Z" fill="#E0E0E0"/>
<path d="M119.568 127.162C119.568 127.257 113.551 127.34 106.129 127.34C98.707 127.34 92.6904 127.257 92.6904 127.162C92.6904 127.067 98.707 126.978 106.129 126.978C113.551 126.978 119.568 127.06 119.568 127.162Z" fill="#E0E0E0"/>
<path d="M107.852 133.42H103.305V143.011H107.852V133.42Z" fill="#E0E0E0"/>
<path d="M119.568 146.783C119.568 146.884 113.551 146.967 106.129 146.967C98.707 146.967 92.6904 146.884 92.6904 146.783C92.6904 146.681 98.707 146.598 106.129 146.598C113.551 146.598 119.568 146.681 119.568 146.783Z" fill="#E0E0E0"/>
<path d="M107.852 153.047H103.305V162.638H107.852V153.047Z" fill="#E0E0E0"/>
<path d="M119.568 166.403C119.568 166.505 113.551 166.588 106.129 166.588C98.707 166.588 92.6904 166.505 92.6904 166.403C92.6904 166.301 98.707 166.219 106.129 166.219C113.551 166.219 119.568 166.301 119.568 166.403Z" fill="#E0E0E0"/>
<path d="M107.852 172.108H103.305V181.699H107.852V172.108Z" fill="#E0E0E0"/>
<path d="M119.568 185.464C119.568 185.566 113.551 185.648 106.129 185.648C98.707 185.648 92.6904 185.566 92.6904 185.464C92.6904 185.362 98.707 185.28 106.129 185.28C113.551 185.28 119.568 185.362 119.568 185.464Z" fill="#E0E0E0"/>
<path d="M107.852 191.245H103.305V200.836H107.852V191.245Z" fill="#E0E0E0"/>
<path d="M107.852 210.631H103.305V220.222H107.852V210.631Z" fill="#E0E0E0"/>
<path d="M119.568 204.601C119.568 204.703 113.551 204.786 106.129 204.786C98.707 204.786 92.6904 204.703 92.6904 204.601C92.6904 204.499 98.707 204.423 106.129 204.423C113.551 204.423 119.568 204.506 119.568 204.601Z" fill="#E0E0E0"/>
<path d="M80.7398 114.092H76.1924V123.683H80.7398V114.092Z" fill="#FAFAFA"/>
<path d="M92.4613 127.448C92.4613 127.55 86.4448 127.633 79.0227 127.633C71.6005 127.633 65.584 127.55 65.584 127.448C65.584 127.346 71.6005 127.264 79.0227 127.264C86.4448 127.264 92.4613 127.346 92.4613 127.448Z" fill="#E0E0E0"/>
<path d="M80.7398 133.427H76.1924V143.017H80.7398V133.427Z" fill="#FAFAFA"/>
<path d="M92.4613 146.789C92.4613 146.891 86.4448 146.973 79.0227 146.973C71.6005 146.973 65.584 146.891 65.584 146.789C65.584 146.687 71.6005 146.604 79.0227 146.604C86.4448 146.604 92.4613 146.687 92.4613 146.789Z" fill="#E0E0E0"/>
<path d="M80.7398 152.767H76.1924V162.358H80.7398V152.767Z" fill="#FAFAFA"/>
<path d="M92.4613 166.129C92.4613 166.225 86.4448 166.308 79.0227 166.308C71.6005 166.308 65.584 166.225 65.584 166.129C65.584 166.034 71.6005 165.945 79.0227 165.945C86.4448 165.945 92.4613 166.028 92.4613 166.129Z" fill="#E0E0E0"/>
<path d="M80.7398 172.108H76.1924V181.699H80.7398V172.108Z" fill="#FAFAFA"/>
<path d="M92.4613 185.464C92.4613 185.566 86.4448 185.648 79.0227 185.648C71.6005 185.648 65.584 185.566 65.584 185.464C65.584 185.362 71.6005 185.28 79.0227 185.28C86.4448 185.28 92.4613 185.362 92.4613 185.464Z" fill="#E0E0E0"/>
<path d="M80.7398 191.442H76.1924V201.033H80.7398V191.442Z" fill="#FAFAFA"/>
<path d="M92.4613 204.792C92.4613 204.894 86.4448 204.977 79.0227 204.977C71.6005 204.977 65.584 204.894 65.584 204.792C65.584 204.69 71.6005 204.608 79.0227 204.608C86.4448 204.608 92.4613 204.703 92.4613 204.792Z" fill="#E0E0E0"/>
<path d="M80.7398 210.783H76.1924V220.374H80.7398V210.783Z" fill="#FAFAFA"/>
<path d="M331.445 48.6033H253.961V294.163H331.445V48.6033Z" fill="#F5F5F5"/>
<path d="M331.438 48.6033H292.699V293.489H331.438V48.6033Z" fill="#EBEBEB"/>
<path d="M290.168 24.4988H262.808V48.6095H290.168V24.4988Z" fill="#F5F5F5"/>
<path d="M290.168 24.4988H283.649V48.6095H290.168V24.4988Z" fill="#EBEBEB"/>
<path d="M247.505 48.6031V47.1975H333.708V48.6031" fill="#E0E0E0"/>
<path d="M275.814 59.1226H269.257V72.9492H275.814V59.1226Z" fill="#FAFAFA"/>
<path d="M292.7 78.3743C292.7 78.5206 284.031 78.6414 273.333 78.6414C262.636 78.6414 253.961 78.5206 253.961 78.3743C253.961 78.228 262.63 78.1135 273.333 78.1135C284.037 78.1135 292.7 78.228 292.7 78.3743Z" fill="#E0E0E0"/>
<path d="M314.889 59.1226H308.332V72.9492H314.889V59.1226Z" fill="#E0E0E0"/>
<path d="M331.781 78.3743C331.781 78.5206 323.106 78.6414 312.409 78.6414C301.711 78.6414 293.036 78.5206 293.036 78.3743C293.036 78.228 301.711 78.1135 312.409 78.1135C323.106 78.1135 331.781 78.228 331.781 78.3743Z" fill="#E0E0E0"/>
<path d="M314.889 86.5789H308.332V100.405H314.889V86.5789Z" fill="#E0E0E0"/>
<path d="M331.781 105.837C331.781 105.983 323.106 106.098 312.409 106.098C301.711 106.098 293.036 105.983 293.036 105.837C293.036 105.691 301.711 105.57 312.409 105.57C323.106 105.57 331.781 105.691 331.781 105.837Z" fill="#E0E0E0"/>
<path d="M314.889 114.862H308.332V128.688H314.889V114.862Z" fill="#E0E0E0"/>
<path d="M331.781 134.12C331.781 134.266 323.106 134.387 312.409 134.387C301.711 134.387 293.036 134.266 293.036 134.12C293.036 133.973 301.711 133.853 312.409 133.853C323.106 133.853 331.781 133.973 331.781 134.12Z" fill="#E0E0E0"/>
<path d="M314.889 143.151H308.332V156.978H314.889V143.151Z" fill="#E0E0E0"/>
<path d="M331.781 162.403C331.781 162.549 323.106 162.67 312.409 162.67C301.711 162.67 293.036 162.549 293.036 162.403C293.036 162.256 301.711 162.142 312.409 162.142C323.106 162.142 331.781 162.256 331.781 162.403Z" fill="#E0E0E0"/>
<path d="M314.889 170.626H308.332V184.453H314.889V170.626Z" fill="#E0E0E0"/>
<path d="M331.781 189.884C331.781 190.024 323.106 190.145 312.409 190.145C301.711 190.145 293.036 190.024 293.036 189.884C293.036 189.744 301.711 189.617 312.409 189.617C323.106 189.617 331.781 189.738 331.781 189.884Z" fill="#E0E0E0"/>
<path d="M314.889 198.209H308.332V212.036H314.889V198.209Z" fill="#E0E0E0"/>
<path d="M314.889 226.162H308.332V239.988H314.889V226.162Z" fill="#E0E0E0"/>
<path d="M331.781 217.468C331.781 217.614 323.106 217.735 312.409 217.735C301.711 217.735 293.036 217.614 293.036 217.468C293.036 217.321 301.711 217.207 312.409 217.207C323.106 217.207 331.781 217.321 331.781 217.468Z" fill="#E0E0E0"/>
<path d="M275.814 86.9985H269.257V100.825H275.814V86.9985Z" fill="#FAFAFA"/>
<path d="M292.7 106.257C292.7 106.397 284.031 106.517 273.333 106.517C262.636 106.517 253.961 106.397 253.961 106.257C253.961 106.117 262.63 105.99 273.333 105.99C284.037 105.99 292.7 106.11 292.7 106.257Z" fill="#E0E0E0"/>
<path d="M275.814 114.874H269.257V128.701H275.814V114.874Z" fill="#FAFAFA"/>
<path d="M292.7 134.132C292.7 134.272 284.031 134.393 273.333 134.393C262.636 134.393 253.961 134.272 253.961 134.132C253.961 133.992 262.63 133.865 273.333 133.865C284.037 133.865 292.7 133.986 292.7 134.132Z" fill="#E0E0E0"/>
<path d="M275.814 142.75H269.257V156.577H275.814V142.75Z" fill="#FAFAFA"/>
<path d="M292.7 162.008C292.7 162.148 284.031 162.269 273.333 162.269C262.636 162.269 253.961 162.148 253.961 162.008C253.961 161.868 262.63 161.741 273.333 161.741C284.037 161.741 292.7 161.862 292.7 162.008Z" fill="#E0E0E0"/>
<path d="M275.814 170.626H269.257V184.453H275.814V170.626Z" fill="#FAFAFA"/>
<path d="M292.7 189.884C292.7 190.024 284.031 190.145 273.333 190.145C262.636 190.145 253.961 190.024 253.961 189.884C253.961 189.744 262.63 189.617 273.333 189.617C284.037 189.617 292.7 189.738 292.7 189.884Z" fill="#E0E0E0"/>
<path d="M275.814 198.502H269.257V212.329H275.814V198.502Z" fill="#FAFAFA"/>
<path d="M292.7 217.76C292.7 217.906 284.031 218.021 273.333 218.021C262.636 218.021 253.961 217.906 253.961 217.76C253.961 217.614 262.63 217.493 273.333 217.493C284.037 217.493 292.7 217.614 292.7 217.76Z" fill="#E0E0E0"/>
<path d="M275.814 226.378H269.257V240.205H275.814V226.378Z" fill="#FAFAFA"/>
<path d="M358.786 159.999H316.454V294.156H358.786V159.999Z" fill="#F5F5F5"/>
<path d="M358.786 159.999H337.62V293.787H358.786V159.999Z" fill="#EBEBEB"/>
<path d="M336.234 146.827H321.288V159.998H336.234V146.827Z" fill="#F5F5F5"/>
<path d="M336.233 146.827H332.672V159.998H336.233V146.827Z" fill="#EBEBEB"/>
<path d="M312.924 159.999V159.229H360.026V159.999" fill="#E0E0E0"/>
<path d="M328.392 165.742H324.812V173.297H328.392V165.742Z" fill="#FAFAFA"/>
<path d="M337.62 176.267C337.62 176.344 332.882 176.407 327.037 176.407C321.192 176.407 316.454 176.344 316.454 176.267C316.454 176.191 321.192 176.121 327.037 176.121C332.882 176.121 337.62 176.172 337.62 176.267Z" fill="#E0E0E0"/>
<path d="M349.743 165.742H346.162V173.297H349.743V165.742Z" fill="#E0E0E0"/>
<path d="M358.971 176.267C358.971 176.344 354.233 176.407 348.388 176.407C342.543 176.407 337.805 176.344 337.805 176.267C337.805 176.191 342.543 176.121 348.388 176.121C354.233 176.121 358.971 176.172 358.971 176.267Z" fill="#E0E0E0"/>
<path d="M349.743 180.745H346.162V188.301H349.743V180.745Z" fill="#E0E0E0"/>
<path d="M358.971 191.264C358.971 191.347 354.233 191.411 348.388 191.411C342.543 191.411 337.805 191.347 337.805 191.264C337.805 191.182 342.543 191.118 348.388 191.118C354.233 191.118 358.971 191.188 358.971 191.264Z" fill="#E0E0E0"/>
<path d="M349.743 196.2H346.162V203.755H349.743V196.2Z" fill="#E0E0E0"/>
<path d="M358.971 206.7C358.971 206.776 354.233 206.846 348.388 206.846C342.543 206.846 337.805 206.776 337.805 206.7C337.805 206.624 342.543 206.554 348.388 206.554C354.233 206.554 358.971 206.636 358.971 206.7Z" fill="#E0E0E0"/>
<path d="M349.743 211.648H346.162V219.204H349.743V211.648Z" fill="#E0E0E0"/>
<path d="M358.971 222.174C358.971 222.25 354.233 222.314 348.388 222.314C342.543 222.314 337.805 222.25 337.805 222.174C337.805 222.098 342.543 222.028 348.388 222.028C354.233 222.028 358.971 222.091 358.971 222.174Z" fill="#E0E0E0"/>
<path d="M349.743 226.664H346.162V234.22H349.743V226.664Z" fill="#E0E0E0"/>
<path d="M358.971 237.184C358.971 237.266 354.233 237.33 348.388 237.33C342.543 237.33 337.805 237.266 337.805 237.184C337.805 237.101 342.543 237.037 348.388 237.037C354.233 237.037 358.971 237.101 358.971 237.184Z" fill="#E0E0E0"/>
<path d="M349.743 241.737H346.162V249.293H349.743V241.737Z" fill="#E0E0E0"/>
<path d="M349.743 257.001H346.162V264.557H349.743V257.001Z" fill="#E0E0E0"/>
<path d="M358.971 252.257C358.971 252.333 354.233 252.397 348.388 252.397C342.543 252.397 337.805 252.333 337.805 252.257C337.805 252.18 342.543 252.11 348.388 252.11C354.233 252.11 358.971 252.174 358.971 252.257Z" fill="#E0E0E0"/>
<path d="M328.392 180.974H324.812V188.53H328.392V180.974Z" fill="#FAFAFA"/>
<path d="M337.62 191.493C337.62 191.576 332.882 191.639 327.037 191.639C321.192 191.639 316.454 191.576 316.454 191.493C316.454 191.411 321.192 191.347 327.037 191.347C332.882 191.347 337.62 191.436 337.62 191.493Z" fill="#E0E0E0"/>
<path d="M328.392 196.206H324.812V203.762H328.392V196.206Z" fill="#FAFAFA"/>
<path d="M337.62 206.7C337.62 206.776 332.882 206.84 327.037 206.84C321.192 206.84 316.454 206.776 316.454 206.7C316.454 206.624 321.192 206.554 327.037 206.554C332.882 206.554 337.62 206.643 337.62 206.7Z" fill="#E0E0E0"/>
<path d="M328.392 211.432H324.812V218.988H328.392V211.432Z" fill="#FAFAFA"/>
<path d="M337.62 221.964C337.62 222.047 332.882 222.11 327.037 222.11C321.192 222.11 316.454 222.047 316.454 221.964C316.454 221.881 321.192 221.824 327.037 221.824C332.882 221.824 337.62 221.875 337.62 221.964Z" fill="#E0E0E0"/>
<path d="M328.392 226.664H324.812V234.22H328.392V226.664Z" fill="#FAFAFA"/>
<path d="M337.62 237.184C337.62 237.266 332.882 237.33 327.037 237.33C321.192 237.33 316.454 237.266 316.454 237.184C316.454 237.101 321.192 237.037 327.037 237.037C332.882 237.037 337.62 237.101 337.62 237.184Z" fill="#E0E0E0"/>
<path d="M328.392 241.89H324.812V249.446H328.392V241.89Z" fill="#FAFAFA"/>
<path d="M337.62 252.416C337.62 252.492 332.882 252.556 327.037 252.556C321.192 252.556 316.454 252.492 316.454 252.416C316.454 252.339 321.192 252.27 327.037 252.27C332.882 252.27 337.62 252.333 337.62 252.416Z" fill="#E0E0E0"/>
<path d="M328.392 257.122H324.812V264.678H328.392V257.122Z" fill="#FAFAFA"/>
<path d="M146.49 207.667H100.914V294.163H146.49V207.667Z" fill="#E0E0E0"/>
<path d="M146.49 207.667H125.12V294.163H146.49V207.667Z" fill="#EBEBEB"/>
<path d="M114.568 215.801H110.473V225.755H114.568V215.801Z" fill="#F5F5F5"/>
<path d="M114.568 254.769H110.473V264.722H114.568V254.769Z" fill="#F5F5F5"/>
<path d="M125.12 229.666C125.12 229.755 119.701 229.819 113.036 229.819C106.371 229.819 100.952 229.755 100.952 229.666C100.952 229.577 106.371 229.513 113.036 229.513C119.701 229.513 125.12 229.596 125.12 229.666Z" fill="#F5F5F5"/>
<path d="M114.568 235.435H110.473V245.388H114.568V235.435Z" fill="#F5F5F5"/>
<path d="M125.12 249.312C125.12 249.395 119.701 249.465 113.036 249.465C106.371 249.465 100.952 249.395 100.952 249.312C100.952 249.229 106.371 249.153 113.036 249.153C119.701 249.153 125.12 249.21 125.12 249.312Z" fill="#F5F5F5"/>
<path d="M133.757 215.801H129.661V225.755H133.757V215.801Z" fill="#E0E0E0"/>
<path d="M142.648 215.801H138.552V225.755H142.648V215.801Z" fill="#E0E0E0"/>
<path d="M133.757 234.697H129.661V244.65H133.757V234.697Z" fill="#E0E0E0"/>
<path d="M142.648 234.697H138.552V244.65H142.648V234.697Z" fill="#E0E0E0"/>
<path d="M133.757 253.586H129.661V263.539H133.757V253.586Z" fill="#E0E0E0"/>
<path d="M142.648 253.586H138.552V263.539H142.648V253.586Z" fill="#E0E0E0"/>
<path d="M149.918 205.574H97.4922V207.743H149.918V205.574Z" fill="#E0E0E0"/>
<path d="M146.807 207.972C146.807 208.055 136.631 208.125 124.057 208.125C111.484 208.125 101.308 208.055 101.308 207.972C101.308 207.889 111.484 207.813 124.057 207.813C136.631 207.813 146.807 207.858 146.807 207.972Z" fill="#EBEBEB"/>
<path d="M101.436 294.099H28.0412L27.7168 178.099H101.118L101.436 294.099Z" fill="#EBEBEB"/>
<path d="M101.117 178.099H64.4199V294.099H101.117V178.099Z" fill="#E0E0E0"/>
<path d="M62.0156 155.26H36.0986V178.099H62.0156V155.26Z" fill="#EBEBEB"/>
<path d="M62.0164 155.26H55.8408V178.099H62.0164V155.26Z" fill="#E0E0E0"/>
<path d="M103.267 176.763H21.6045V178.093H103.267V176.763Z" fill="#E0E0E0"/>
<path d="M48.4178 188.059H42.2041V201.16H48.4178V188.059Z" fill="white"/>
<path d="M64.4204 206.299C64.4204 206.439 56.2032 206.547 46.0718 206.547C35.9403 206.547 27.7168 206.439 27.7168 206.299C27.7168 206.159 35.9339 206.064 46.0718 206.064C56.2096 206.064 64.4204 206.159 64.4204 206.299Z" fill="#E0E0E0"/>
<path d="M85.4403 188.059H79.2266V201.16H85.4403V188.059Z" fill="#F5F5F5"/>
<path d="M101.435 206.299C101.435 206.439 93.2184 206.547 83.0869 206.547C72.9554 206.547 64.7383 206.439 64.7383 206.299C64.7383 206.159 72.949 206.051 83.0869 206.051C93.2247 206.051 101.435 206.159 101.435 206.299Z" fill="#EBEBEB"/>
<path d="M85.4403 214.065H79.2266V227.167H85.4403V214.065Z" fill="#F5F5F5"/>
<path d="M101.435 232.312C101.435 232.445 93.2184 232.56 83.0869 232.56C72.9554 232.56 64.7383 232.445 64.7383 232.312C64.7383 232.178 72.949 232.057 83.0869 232.057C93.2247 232.057 101.435 232.172 101.435 232.312Z" fill="#EBEBEB"/>
<path d="M85.4403 240.86H79.2266V253.961H85.4403V240.86Z" fill="#F5F5F5"/>
<path d="M101.435 259.106C101.435 259.24 93.2184 259.354 83.0869 259.354C72.9554 259.354 64.7383 259.24 64.7383 259.106C64.7383 258.973 72.949 258.852 83.0869 258.852C93.2247 258.852 101.435 258.967 101.435 259.106Z" fill="#EBEBEB"/>
<path d="M85.4403 267.654H79.2266V280.756H85.4403V267.654Z" fill="#F5F5F5"/>
<path d="M101.435 285.895C101.435 286.035 93.2184 286.149 83.0869 286.149C72.9554 286.149 64.7383 286.035 64.7383 285.895C64.7383 285.755 72.949 285.647 83.0869 285.647C93.2247 285.647 101.435 285.761 101.435 285.895Z" fill="#EBEBEB"/>
<path d="M48.4178 214.466H42.2041V227.567H48.4178V214.466Z" fill="white"/>
<path d="M64.4204 232.706C64.4204 232.846 56.2032 232.954 46.0718 232.954C35.9403 232.954 27.7168 232.846 27.7168 232.706C27.7168 232.566 35.9339 232.458 46.0718 232.458C56.2096 232.458 64.4204 232.566 64.4204 232.706Z" fill="#E0E0E0"/>
<path d="M48.4178 240.872H42.2041V253.974H48.4178V240.872Z" fill="white"/>
<path d="M64.4204 259.113C64.4204 259.253 56.2032 259.361 46.0718 259.361C35.9403 259.361 27.7168 259.253 27.7168 259.113C27.7168 258.973 35.9339 258.852 46.0718 258.852C56.2096 258.852 64.4204 258.973 64.4204 259.113Z" fill="#E0E0E0"/>
<path d="M48.4178 267.279H42.2041V280.381H48.4178V267.279Z" fill="white"/>
<path d="M64.4204 285.52C64.4204 285.659 56.2032 285.768 46.0718 285.768C35.9403 285.768 27.7168 285.659 27.7168 285.52C27.7168 285.38 35.9339 285.271 46.0718 285.271C56.2096 285.271 64.4204 285.38 64.4204 285.52Z" fill="#E0E0E0"/>
<path d="M449.366 114.48C449.894 110.626 444.456 107.484 440.366 107.128C438.42 106.969 436.391 107.268 434.547 106.626C430.547 105.233 428.95 100.062 425.045 98.4148C422.126 97.1809 418.761 98.2812 415.938 99.6868C413.114 101.092 410.309 102.899 407.148 103.102C404.401 103.28 401.424 102.256 399.007 103.605C397.214 104.603 396.272 106.67 394.619 107.891C392.965 109.112 390.898 109.335 388.895 109.443C386.891 109.551 384.812 109.57 382.986 110.41C381.161 111.249 379.647 113.176 380.029 115.148L449.366 114.48Z" fill="#F5F5F5"/>
<path d="M465.628 251.71H406.582V294.156H465.628V251.71Z" fill="#EBEBEB"/>
<path d="M422.418 251.71C422.507 251.71 422.418 260.671 422.418 260.671H418.049V251.71H422.418Z" fill="#F5F5F5"/>
<path d="M436.105 294.156H465.628V251.71H436.105V294.156Z" fill="#E0E0E0"/>
<path d="M416.287 285.85H408.382V291.441H416.287V285.85Z" fill="white"/>
<path d="M421.7 285.85H417.75V291.441H421.7V285.85Z" fill="white"/>
<path d="M460.018 224.069H421.572V251.71H460.018V224.069Z" fill="#EBEBEB"/>
<path d="M431.888 224.069C431.939 224.069 431.888 229.908 431.888 229.908H429.039V224.069H431.888Z" fill="#F5F5F5"/>
<path d="M440.799 251.71H460.019V224.069H440.799V251.71Z" fill="#E0E0E0"/>
<path d="M427.894 246.297H422.749V249.942H427.894V246.297Z" fill="white"/>
<path d="M431.418 246.297H428.842V249.942H431.418V246.297Z" fill="white"/>
<path d="M67.0403 40.3861C67.3393 38.2046 64.261 36.4047 61.9523 36.2203C60.8457 36.1313 59.7009 36.2966 58.6515 35.9341C56.3873 35.1455 55.4715 32.2199 53.2709 31.2849C51.6173 30.5853 49.7157 31.2086 48.113 32.0163C46.5103 32.8241 44.933 33.8353 43.1395 33.9243C41.5813 34.0261 39.8895 33.4473 38.5285 34.2105C37.5109 34.7766 36.9766 35.9468 36.0417 36.6337C35.067 37.238 33.9383 37.5472 32.7917 37.5241C31.652 37.4918 30.5165 37.6774 29.4464 38.0711C28.4097 38.5417 27.5384 39.6356 27.7673 40.755L67.0403 40.3861Z" fill="#EBEBEB"/>
<path d="M460.088 84.6963C460.381 82.5657 457.379 80.8167 455.121 80.6322C454.046 80.5495 452.927 80.7085 451.903 80.3587C449.696 79.5828 448.812 76.7272 446.656 75.8177C445.047 75.1435 443.19 75.7477 441.625 76.53C440.061 77.3123 438.515 78.3108 436.773 78.438C435.253 78.5398 433.593 77.9737 432.276 78.7178C431.284 79.2712 430.769 80.4096 429.853 81.0838C428.897 81.6692 427.793 81.9673 426.673 81.9424C425.561 81.9131 424.454 82.0943 423.41 82.4766C422.399 82.9345 421.566 84.003 421.776 85.0906L460.088 84.6963Z" fill="#EBEBEB"/>
<path d="M134.653 53.9011C135.2 49.9134 129.565 46.6316 125.348 46.2691C123.326 46.1101 121.233 46.4154 119.325 45.754C115.185 44.3102 113.531 38.9615 109.493 37.257C106.472 35.985 102.999 37.1171 100.074 38.5926C97.1481 40.0681 94.2543 41.9189 90.9853 42.1288C88.136 42.3132 85.0514 41.2574 82.5583 42.6439C80.7075 43.6806 79.7344 45.8239 78.0236 47.0959C76.3127 48.3679 74.1758 48.5905 72.0961 48.705C70.0163 48.8195 67.873 48.8386 65.9841 49.7035C64.0952 50.5685 62.537 52.5655 62.9249 54.6071L134.653 53.9011Z" fill="#F5F5F5"/>
<path d="M465.412 294.156C465.412 294.252 368.295 294.322 248.536 294.322C128.777 294.322 31.6602 294.252 31.6602 294.156C31.6602 294.061 128.758 293.991 248.568 293.991C368.378 293.991 465.412 294.067 465.412 294.156Z" fill="#263238"/>
<path d="M205.142 267.527C205.818 267.685 206.454 267.977 207.014 268.387C207.573 268.797 208.044 269.316 208.399 269.912C209.104 271.108 209.524 272.451 209.626 273.836C209.906 276.501 208.99 279.452 207.871 281.875C205.263 280.444 204.055 277.226 203.501 275.553C202.675 272.907 202.783 267.622 205.142 267.527Z" fill="#018755"/>
<path d="M211.356 285.608C211.044 284.898 210.925 284.117 211.011 283.345C211.097 282.574 211.385 281.838 211.845 281.214C212.319 280.599 212.909 280.085 213.583 279.7C214.256 279.316 215 279.069 215.77 278.975C216.118 278.893 216.481 278.888 216.831 278.962C217.182 279.036 217.512 279.186 217.798 279.401C218.028 279.645 218.19 279.945 218.267 280.271C218.344 280.597 218.334 280.937 218.237 281.258C218.027 281.896 217.654 282.468 217.156 282.918C215.522 284.521 213.645 285.78 211.356 285.608Z" fill="#018755"/>
<path d="M210.307 294.188C210.273 294.008 210.258 293.824 210.262 293.641C210.262 293.247 210.23 292.744 210.211 292.14C210.103 290.478 210.264 288.809 210.688 287.198C211.141 285.582 212.02 284.117 213.232 282.956C213.601 282.613 214.008 282.314 214.447 282.066C214.565 281.995 214.689 281.934 214.816 281.881C214.899 281.843 214.943 281.824 214.949 281.831C214.367 282.184 213.822 282.595 213.321 283.058C212.167 284.229 211.327 285.673 210.879 287.256C210.461 288.848 210.285 290.495 210.358 292.14C210.358 292.776 210.358 293.285 210.358 293.641C210.358 293.825 210.341 294.008 210.307 294.188Z" fill="#263238"/>
<path d="M205.428 271.572C205.462 271.643 205.488 271.718 205.505 271.795C205.556 271.966 205.613 272.189 205.689 272.431C205.848 273.009 206.071 273.843 206.325 274.879C206.853 276.946 207.54 279.808 208.233 282.995C208.926 286.181 209.473 289.068 209.849 291.174C210.033 292.223 210.179 293.082 210.268 293.66C210.313 293.94 210.345 294.169 210.37 294.341C210.376 294.421 210.376 294.502 210.37 294.582C210.339 294.507 210.318 294.428 210.306 294.347C210.268 294.175 210.224 293.953 210.167 293.673C210.052 293.069 209.887 292.223 209.69 291.199C209.282 289.107 208.704 286.213 208.023 283.033C207.343 279.853 206.669 276.984 206.179 274.911C205.937 273.887 205.74 273.054 205.6 272.45L205.447 271.814C205.432 271.734 205.426 271.653 205.428 271.572Z" fill="#263238"/>
<path d="M207.922 288.019C207.31 286.502 206.346 285.153 205.11 284.082C203.873 283.011 202.4 282.251 200.811 281.862C200.003 281.672 198.998 281.653 198.515 282.333C198.032 283.014 198.388 283.955 198.846 284.648C199.833 286.076 201.222 287.18 202.836 287.821C204.449 288.462 206.217 288.61 207.915 288.248" fill="#018755"/>
<path d="M201.708 284.254C201.881 284.267 202.051 284.299 202.217 284.349C202.415 284.394 202.61 284.449 202.802 284.514C203.031 284.597 203.292 284.661 203.565 284.788C203.869 284.907 204.167 285.043 204.456 285.195C204.791 285.363 205.115 285.549 205.429 285.755C206.151 286.226 206.817 286.779 207.413 287.402C208.001 288.034 208.513 288.732 208.939 289.482C209.122 289.809 209.286 290.147 209.429 290.493C209.56 290.792 209.674 291.098 209.773 291.409C209.854 291.666 209.922 291.927 209.976 292.191C210.03 292.387 210.068 292.587 210.091 292.789C210.127 292.958 210.146 293.131 210.148 293.304C210.103 293.304 210.021 292.573 209.639 291.453C209.537 291.148 209.418 290.849 209.283 290.556C209.136 290.218 208.968 289.889 208.78 289.571C208.356 288.838 207.851 288.155 207.273 287.535C206.697 286.926 206.058 286.38 205.365 285.907C205.058 285.7 204.739 285.509 204.411 285.335C204.112 285.163 203.813 285.036 203.546 284.915C202.421 284.444 201.695 284.292 201.708 284.254Z" fill="#263238"/>
<path d="M407.676 287.472C407.918 286.543 407.307 285.608 406.62 284.928C405.934 284.247 405.113 283.656 404.757 282.753C404.178 281.303 404.954 279.427 403.968 278.218C403.389 277.506 402.353 277.264 401.838 276.507C401.599 276.087 401.442 275.625 401.373 275.146C400.824 272.738 399.638 270.522 397.939 268.729C397.828 270.875 398.293 273.012 399.287 274.917C399.754 275.649 400.095 276.453 400.299 277.296C400.515 278.676 399.745 280.094 400.082 281.449C400.47 282.994 402.207 284.031 402.289 285.621C402.359 286.969 401.183 288.165 401.272 289.501C401.344 290.072 401.549 290.619 401.869 291.097C402.333 291.987 403.037 292.73 403.902 293.239C404.767 293.748 405.757 294.005 406.76 293.978L409.603 294.08L407.676 287.472Z" fill="#018755"/>
<g opacity="0.3">
<path d="M407.676 287.472C407.918 286.543 407.307 285.608 406.62 284.928C405.934 284.247 405.113 283.656 404.757 282.753C404.178 281.303 404.954 279.427 403.968 278.218C403.389 277.506 402.353 277.264 401.838 276.507C401.599 276.087 401.442 275.625 401.373 275.146C400.824 272.738 399.638 270.522 397.939 268.729C397.828 270.875 398.293 273.012 399.287 274.917C399.754 275.649 400.095 276.453 400.299 277.296C400.515 278.676 399.745 280.094 400.082 281.449C400.47 282.994 402.207 284.031 402.289 285.621C402.359 286.969 401.183 288.165 401.272 289.501C401.344 290.072 401.549 290.619 401.869 291.097C402.333 291.987 403.037 292.73 403.902 293.239C404.767 293.748 405.757 294.005 406.76 293.978L409.603 294.08L407.676 287.472Z" fill="black"/>
</g>
<path d="M410.176 294.143C410.435 294.189 410.699 294.189 410.958 294.143C411.272 294.098 411.581 294.021 411.88 293.914C412.293 293.767 412.677 293.552 413.019 293.278C413.227 293.11 413.389 292.891 413.49 292.642C413.573 292.368 413.618 292.083 413.623 291.797C413.628 291.488 413.651 291.18 413.693 290.874C413.745 290.551 413.862 290.242 414.036 289.965C414.496 289.378 414.857 288.721 415.105 288.019C415.243 287.193 415.218 286.348 415.029 285.532C414.823 284.65 414.847 283.731 415.099 282.861C415.404 281.977 416.021 281.169 416.332 280.171C416.644 279.172 416.498 278.072 416.568 276.991C416.586 276.446 416.712 275.91 416.937 275.413C417.166 274.911 417.484 274.44 417.732 273.912C418.165 272.803 418.412 271.63 418.463 270.44C418.533 269.842 418.603 269.238 418.667 268.627C418.708 268.011 418.815 267.402 418.985 266.808C419.173 266.209 419.4 265.623 419.665 265.053C419.797 264.754 419.908 264.445 419.996 264.131C420.047 263.8 420.066 263.495 420.085 263.158C420.117 262.501 420.091 261.844 420.009 261.192C419.932 260.556 419.811 259.882 419.741 259.227V259.113V258.985L419.627 259.043C419.025 259.343 418.5 259.778 418.094 260.315C417.702 260.844 417.387 261.426 417.159 262.045C416.751 263.255 416.455 264.5 416.275 265.765C416.093 266.971 415.697 268.134 415.105 269.2C414.793 269.702 414.418 270.166 414.087 270.656C413.735 271.138 413.494 271.691 413.381 272.278C413.216 273.48 413.878 274.536 413.738 275.598C413.676 276.121 413.5 276.625 413.222 277.073C412.962 277.525 412.663 277.945 412.37 278.345C412.077 278.757 411.823 279.196 411.613 279.655C411.411 280.105 411.292 280.588 411.264 281.08C411.194 282.034 411.327 282.943 411.264 283.802C411.186 284.619 410.948 285.412 410.564 286.136C410.22 286.836 409.839 287.465 409.521 288.044C409.361 288.34 409.217 288.643 409.088 288.954C408.974 289.243 408.891 289.544 408.84 289.85C408.762 290.388 408.762 290.935 408.84 291.472C408.918 292.223 409.2 292.937 409.654 293.539C409.726 293.626 409.803 293.709 409.883 293.787C409.942 293.846 410.006 293.9 410.074 293.946L410.233 294.061C410.033 293.897 409.85 293.714 409.686 293.514C409.244 292.913 408.976 292.202 408.91 291.46C408.848 290.928 408.861 290.391 408.948 289.863C409.005 289.563 409.09 289.269 409.203 288.985C409.331 288.681 409.476 288.384 409.635 288.095C409.953 287.459 410.341 286.861 410.691 286.155C411.086 285.42 411.333 284.614 411.416 283.783C411.492 282.905 411.359 281.989 411.416 281.055C411.447 280.58 411.563 280.114 411.76 279.681C411.969 279.234 412.22 278.808 412.51 278.409C412.796 277.989 413.102 277.569 413.369 277.105C413.659 276.64 413.843 276.117 413.909 275.572C414.049 274.434 413.394 273.372 413.559 272.259C413.672 271.697 413.906 271.167 414.246 270.707C414.564 270.223 414.946 269.766 415.264 269.244C415.872 268.163 416.277 266.979 416.46 265.752C416.643 264.499 416.936 263.265 417.337 262.064C417.562 261.462 417.871 260.894 418.253 260.378C418.638 259.859 419.139 259.436 419.716 259.144L419.589 259.068V259.183C419.659 259.85 419.78 260.499 419.856 261.148C419.932 261.781 419.955 262.419 419.926 263.056C419.918 263.373 419.89 263.69 419.843 264.003C419.761 264.308 419.655 264.606 419.525 264.894C419.258 265.47 419.028 266.062 418.838 266.668C418.668 267.27 418.561 267.888 418.52 268.513C418.45 269.149 418.38 269.734 418.317 270.332C418.267 271.501 418.027 272.655 417.604 273.747C417.369 274.262 417.051 274.739 416.809 275.261C416.579 275.776 416.452 276.331 416.434 276.895C416.371 277.989 416.511 279.064 416.218 280.031C415.925 280.997 415.302 281.805 414.99 282.721C414.735 283.612 414.713 284.554 414.927 285.456C415.115 286.256 415.148 287.085 415.022 287.898C414.776 288.585 414.421 289.229 413.973 289.806C413.794 290.095 413.675 290.417 413.623 290.754C413.584 291.062 413.563 291.372 413.559 291.682C413.56 291.962 413.519 292.241 413.439 292.509C413.343 292.741 413.193 292.946 413 293.107C412.666 293.379 412.29 293.594 411.887 293.743C411.592 293.853 411.288 293.934 410.977 293.984C410.787 294.024 410.593 294.043 410.399 294.042L410.176 294.143Z" fill="#263238"/>
<path d="M419.125 260.684C419.123 260.713 419.123 260.743 419.125 260.773L419.061 261.027C419.004 261.25 418.94 261.587 418.832 262.013C418.724 262.439 418.463 262.903 418.241 263.495C417.98 264.152 417.755 264.823 417.566 265.504C417.35 266.268 417.159 267.107 416.93 268.004C416.76 268.969 416.454 269.904 416.021 270.783C415.792 271.241 415.525 271.712 415.321 272.221C415.115 272.744 414.976 273.291 414.908 273.849C414.758 275.004 414.545 276.151 414.272 277.283C413.706 279.611 413.159 281.831 412.669 283.847C412.179 285.863 411.702 287.663 411.321 289.202C410.939 290.741 410.64 291.943 410.43 292.814C410.329 293.228 410.252 293.558 410.195 293.794L410.138 294.055C410.135 294.084 410.135 294.114 410.138 294.144C410.138 294.144 410.138 294.112 410.17 294.055L410.246 293.806C410.31 293.565 410.399 293.24 410.513 292.827C410.736 291.962 411.06 290.741 411.461 289.234C411.861 287.726 412.319 285.895 412.841 283.891C413.362 281.888 413.89 279.655 414.463 277.328C414.735 276.188 414.947 275.036 415.099 273.874C415.166 273.33 415.298 272.797 415.493 272.284C415.697 271.788 415.951 271.324 416.186 270.853C416.617 269.963 416.921 269.017 417.089 268.042C417.287 267.139 417.471 266.299 417.674 265.543C417.878 264.786 418.107 264.112 418.31 263.527C418.514 262.941 418.768 262.464 418.87 262.026C418.972 261.587 419.023 261.262 419.067 261.033L419.125 260.76C419.125 260.715 419.125 260.684 419.125 260.684Z" fill="#263238"/>
<path d="M410.678 294.15C412.536 293.05 413.063 289.698 412.294 287.688C411.524 285.678 410.163 283.834 409.953 281.684C409.794 280.031 410.335 278.339 409.953 276.724C409.438 274.548 407.314 272.863 407.333 270.624C407.333 269.352 408.065 268.182 408.007 266.929C407.937 265.39 406.735 264.169 406.023 262.814C404.904 260.734 404.834 258.286 404.446 255.958C404.058 253.63 403.174 251.137 401.113 249.992C400.814 251.97 400.293 253.325 400.477 255.996C400.541 256.963 401.654 258.801 401.806 260.906C401.895 262.178 401.959 263.45 402.035 264.684C402.051 265.916 402.252 267.138 402.633 268.309C402.97 269.187 403.511 269.988 403.759 270.891C404.229 272.602 403.613 274.453 403.994 276.183C404.312 277.646 405.33 278.905 405.533 280.393C405.826 282.479 404.477 284.648 405.164 286.639C405.508 287.631 406.322 288.426 406.551 289.444C406.735 290.239 406.551 291.072 406.697 291.867C406.958 293.139 409.406 294.144 410.71 294.067" fill="#018755"/>
<path d="M401.622 251.958C401.622 251.958 401.622 251.996 401.622 252.066L401.667 252.39C401.705 252.676 401.756 253.096 401.851 253.662C401.946 254.228 402.233 254.82 402.487 255.57C402.741 256.321 402.958 257.16 403.168 258.114C403.377 259.068 403.556 260.118 403.74 261.25C403.888 262.472 404.209 263.667 404.694 264.799C404.948 265.396 405.241 265.988 405.464 266.618C405.676 267.269 405.806 267.944 405.851 268.627C405.957 270.076 406.139 271.517 406.398 272.946C406.964 275.871 407.505 278.67 408.001 281.214C408.497 283.758 408.987 286.016 409.381 287.936C409.776 289.857 410.1 291.383 410.329 292.465C410.437 292.986 410.526 293.4 410.59 293.692L410.666 294.01L410.698 294.118C410.701 294.082 410.701 294.046 410.698 294.01L410.641 293.686C410.583 293.393 410.507 292.973 410.412 292.446C410.195 291.364 409.89 289.819 409.521 287.911C409.152 286.003 408.65 283.656 408.147 281.112C407.645 278.568 407.123 275.789 406.557 272.844C406.301 271.419 406.118 269.982 406.01 268.538C405.962 267.842 405.827 267.154 405.61 266.49C405.381 265.854 405.088 265.25 404.828 264.665C404.347 263.545 404.024 262.363 403.867 261.154C403.676 260.022 403.492 258.966 403.269 258.012C403.077 257.153 402.841 256.304 402.563 255.468C402.328 254.731 402.035 254.12 401.927 253.56C401.819 253.001 401.762 252.6 401.705 252.32C401.705 252.187 401.66 252.085 401.648 252.002C401.64 251.987 401.631 251.972 401.622 251.958Z" fill="#263238"/>
<path d="M356.516 210.217H74.0879V238.443H356.516V210.217Z" fill="#018755"/>
<g opacity="0.4">
<path d="M356.516 210.217H74.0879V238.443H356.516V210.217Z" fill="black"/>
</g>
<path d="M295.327 242.004H211.96V268.144H295.327V242.004Z" fill="#455A64"/>
<path d="M153.702 230.181V264.735H182.17L193.579 248.199H401.431V230.181H153.702Z" fill="#263238"/>
<path d="M151.928 120.764C151.897 120.208 151.649 119.687 151.237 119.312C150.826 118.938 150.284 118.739 149.728 118.76C138.477 119.225 85.0654 121.673 74.0817 126.952C65.6738 130.997 56.4645 146.096 49.9709 156.265C45.3154 163.554 35.0313 179.734 32.9516 188.008C31.1899 195.004 30.1277 209.556 30.2486 216.774L33.1869 254.972H81.5929L86.4392 242.354C87.9857 238.335 90.714 234.878 94.2643 232.441C97.8146 230.003 102.02 228.699 106.327 228.699H154.428V165.309L151.928 120.764Z" fill="#018755"/>
<path d="M68.3452 131.181C61.6799 137.541 54.9892 148.353 49.9711 156.265C45.6591 163.013 36.5261 177.38 33.5433 186.043C33.486 186.202 33.4415 186.354 33.3906 186.513C34.8661 186.106 37.1367 185.273 37.8426 183.874C38.9047 181.756 40.2658 174.499 57.0943 147.107C62.2078 138.756 67.194 133.872 68.3452 131.181Z" fill="#455A64"/>
<path d="M127.06 128.351C114.683 129.057 87.8506 130.895 79.2773 133.808C68.1092 137.624 55.5736 167.192 54.9821 168.489L46.536 190.113C46.4887 190.255 46.4756 190.405 46.4978 190.553C46.5201 190.7 46.577 190.84 46.664 190.961C46.7509 191.082 46.8654 191.181 46.9979 191.249C47.1305 191.317 47.2774 191.353 47.4264 191.353H69.2603C70.0872 191.354 70.9077 191.207 71.6835 190.921L129.108 169.513C130.376 169.04 131.469 168.191 132.241 167.079C133.013 165.967 133.426 164.646 133.426 163.293V134.374C133.427 133.554 133.26 132.742 132.936 131.988C132.611 131.235 132.137 130.555 131.541 129.991C130.945 129.427 130.24 128.991 129.469 128.709C128.699 128.427 127.879 128.305 127.06 128.351Z" fill="#263238"/>
<path d="M48.9727 189.229C48.9727 189.229 57.0626 171.084 59.7847 165.137C63.8932 156.157 73.4905 137.789 79.9713 135.811C85.9306 134.024 103.064 131.849 127.182 130.469H127.411C128.446 130.472 129.439 130.886 130.17 131.619C130.902 132.352 131.314 133.345 131.316 134.38V163.954C131.313 164.683 131.089 165.394 130.674 165.993C130.258 166.591 129.67 167.049 128.988 167.306L86.5603 172.54C84.8595 172.75 83.2248 173.328 81.7696 174.233C80.3144 175.138 79.0736 176.348 78.1333 177.781L70.7811 188.994C70.3495 189.153 69.893 189.235 69.4328 189.235L48.9727 189.229Z" fill="#455A64"/>
<path d="M85.0212 172.865L70.5967 188.93L78.5785 135.589L80.5755 134.902L76.645 174.417C76.6265 174.615 76.6592 174.815 76.7401 174.997C76.8209 175.179 76.9472 175.337 77.1067 175.457C77.2663 175.576 77.4539 175.653 77.6514 175.679C77.849 175.705 78.0499 175.68 78.235 175.606L85.0212 172.865Z" fill="#263238"/>
<path d="M29.3009 220.482C29.25 219.789 29.4853 219.21 29.8414 219.21L37.5752 218.498C38.2112 218.434 38.8027 219.636 38.879 221.042L39.2288 226.976C39.2861 227.93 38.9999 228.737 38.5928 228.807L30.7064 230.168C30.3502 230.232 30.0068 229.704 29.9559 229.005L29.3009 220.482Z" fill="#EBEBEB"/>
<path d="M85.0212 248.205H29.2949V270.548H85.0212V248.205Z" fill="#263238"/>
<path d="M122.22 293.884C139.047 293.238 152.164 279.073 151.517 262.247C150.871 245.42 136.706 232.303 119.879 232.95C103.053 233.596 89.9361 247.761 90.5825 264.587C91.229 281.414 105.394 294.531 122.22 293.884Z" fill="#263238"/>
<path d="M90.5857 262.891C90.5891 262.918 90.5891 262.946 90.5857 262.973C90.479 271.053 93.5838 278.844 99.2179 284.636C104.852 290.428 112.555 293.746 120.634 293.862C128.713 293.979 136.508 290.883 142.307 285.256C148.105 279.629 151.433 271.93 151.559 263.851C151.559 263.851 151.559 263.8 151.559 263.775L90.5857 262.891Z" fill="#263238"/>
<path d="M99.6615 263.101C99.599 267.334 100.794 271.492 103.094 275.047C105.395 278.602 108.698 281.395 112.586 283.072C116.473 284.75 120.772 285.237 124.936 284.472C129.101 283.706 132.945 281.723 135.983 278.773C139.02 275.822 141.114 272.038 142.001 267.897C142.887 263.756 142.525 259.446 140.962 255.511C139.398 251.576 136.702 248.193 133.216 245.79C129.729 243.387 125.609 242.072 121.375 242.011C115.699 241.929 110.223 244.105 106.151 248.06C102.08 252.015 99.7452 257.425 99.6615 263.101Z" fill="#FAFAFA"/>
<path d="M121.374 242.011C115.698 241.929 110.223 244.105 106.151 248.06C102.079 252.015 99.7449 257.425 99.6611 263.101L142.47 263.737C142.554 258.058 140.378 252.579 136.422 248.505C132.465 244.43 127.053 242.094 121.374 242.011Z" fill="#E0E0E0"/>
<path d="M108.032 263.221C107.994 265.8 108.722 268.332 110.124 270.496C111.525 272.661 113.537 274.362 115.905 275.383C118.273 276.404 120.891 276.7 123.427 276.234C125.963 275.767 128.304 274.559 130.154 272.762C132.003 270.965 133.279 268.66 133.818 266.138C134.357 263.616 134.137 260.991 133.184 258.594C132.231 256.198 130.589 254.138 128.466 252.675C126.342 251.211 123.833 250.411 121.254 250.374C117.797 250.325 114.462 251.651 111.983 254.06C109.503 256.469 108.082 259.764 108.032 263.221Z" fill="#263238"/>
<path d="M61.9273 147.717H59.4405C56.6375 147.717 54.3652 149.99 54.3652 152.793V172.973C54.3652 175.776 56.6375 178.048 59.4405 178.048H61.9273C64.7303 178.048 67.0026 175.776 67.0026 172.973V152.793C67.0026 149.99 64.7303 147.717 61.9273 147.717Z" fill="#263238"/>
<path d="M49.138 196.797H48.502V164.724C48.5036 163.194 49.1119 161.728 50.1934 160.647C51.2748 159.565 52.7411 158.957 54.2705 158.955H55.7969V159.591H54.2705C52.9098 159.593 51.6053 160.134 50.6431 161.096C49.6809 162.059 49.1396 163.363 49.138 164.724V196.797Z" fill="#263238"/>
<path d="M53.4688 196.835L51.7008 166.848C51.6759 166.335 51.7548 165.823 51.9326 165.341C52.1104 164.86 52.3836 164.419 52.7357 164.046C53.0878 163.672 53.5116 163.374 53.9818 163.168C54.4521 162.962 54.959 162.853 55.4722 162.848V163.484C55.0442 163.484 54.6207 163.571 54.2277 163.741C53.8347 163.911 53.4806 164.159 53.187 164.47C52.8934 164.782 52.6665 165.15 52.5203 165.552C52.3741 165.955 52.3116 166.383 52.3368 166.81L54.1048 196.804L53.4688 196.835Z" fill="#263238"/>
<path d="M55.4727 193.91H46.8994V203.838H55.4727V193.91Z" fill="#263238"/>
<path d="M52.3046 175.065H48.8193V175.701H52.3046V175.065Z" fill="#263238"/>
<path d="M81.4088 129.21L82.1656 129.108L84.398 128.847L93.0476 127.849L125.293 124.179C127.01 123.994 128.759 123.766 130.572 123.607C131.498 123.536 132.429 123.596 133.338 123.785C134.263 124.001 135.155 124.339 135.99 124.789C137.714 125.749 139.112 127.202 140.003 128.962C140.465 129.861 140.776 130.83 140.926 131.83C141.006 132.335 141.05 132.845 141.059 133.356V134.889C141.059 143.1 141.059 151.915 141.059 161.258C141.059 179.943 141.059 200.728 141.059 222.95V223.115H107.561C105.649 223.052 103.735 223.144 101.837 223.389C97.9228 223.952 94.2299 225.55 91.1396 228.017C88.0493 230.485 85.6737 233.733 84.2581 237.425C83.9833 238.103 83.7518 238.798 83.5648 239.505C83.3581 240.204 83.1946 240.916 83.0751 241.635L82.9097 242.717L82.8334 243.257L82.8016 243.798L82.7507 244.885V245.432V245.496C82.8907 245.356 82.5536 245.712 82.579 245.674H40.1006V245.496C40.1006 235.911 40.1006 226.67 40.1006 217.843C40.1006 213.429 40.1006 209.119 40.1006 204.913V198.693C40.1006 197.669 40.1006 196.657 40.1006 195.646C40.1213 194.64 40.1935 193.636 40.3168 192.638C40.8018 188.79 42.024 185.071 43.9166 181.686C45.6677 178.392 47.3637 175.212 49.0046 172.146L58.0231 155.248L65.3434 141.529C65.8777 140.533 66.3907 139.568 66.8826 138.635C67.1369 138.177 67.3595 137.713 67.6267 137.281C67.89 136.858 68.1767 136.45 68.4853 136.059C69.5882 134.684 70.8867 133.478 72.3394 132.479C74.3402 131.121 76.577 130.148 78.9347 129.61C79.7442 129.416 80.5669 129.282 81.3961 129.21L80.7601 129.305C80.3467 129.369 79.7361 129.477 78.9347 129.661C76.5909 130.215 74.3698 131.199 72.3839 132.561C70.9435 133.562 69.6578 134.768 68.5679 136.142C68.26 136.526 67.9775 136.93 67.7221 137.35C67.4613 137.77 67.2387 138.241 66.9843 138.705L65.4515 141.605L58.1948 155.337C55.4727 160.463 52.4708 166.117 49.2272 172.248L44.1392 181.788C42.2642 185.148 41.0569 188.839 40.5839 192.657C40.4627 193.647 40.3927 194.643 40.3741 195.64C40.3741 196.638 40.3741 197.662 40.3741 198.68V204.9C40.3741 209.102 40.3741 213.412 40.3741 217.83C40.3741 226.658 40.3741 235.899 40.3741 245.483L40.2151 245.331H82.5281C82.5727 245.299 82.2229 245.636 82.3691 245.483V245.413V244.866L82.4264 243.76V243.213L82.5091 242.666L82.6744 241.565C82.7953 240.835 82.9609 240.113 83.1705 239.403C83.3608 238.685 83.5966 237.98 83.8765 237.292C85.3147 233.545 87.7259 230.25 90.8618 227.746C93.9976 225.242 97.7445 223.619 101.716 223.045C103.614 222.804 105.528 222.712 107.44 222.772H140.786L140.62 222.931C140.62 200.734 140.62 179.95 140.62 161.239C140.62 151.896 140.62 143.081 140.62 134.87C140.662 133.861 140.619 132.851 140.493 131.849C140.348 130.872 140.046 129.924 139.596 129.044C138.733 127.324 137.37 125.905 135.685 124.974C134.873 124.529 134.004 124.198 133.103 123.988C132.215 123.801 131.305 123.739 130.4 123.804C128.6 123.956 126.838 124.185 125.127 124.37L92.8886 127.938L84.2326 128.885L82.0003 129.121L81.4088 129.21Z" fill="#263238"/>
<path d="M130.908 199.5C130.908 199.5 131.086 199.5 131.404 199.424C131.872 199.341 132.317 199.164 132.714 198.903C133.34 198.492 133.808 197.883 134.043 197.173C134.187 196.73 134.245 196.264 134.215 195.799C134.201 195.284 134.069 194.779 133.827 194.323C133.551 193.802 133.139 193.365 132.635 193.057C132.132 192.75 131.555 192.583 130.965 192.574H126.768H117.151C116.351 192.575 115.578 192.871 114.981 193.405C114.385 193.938 114.005 194.673 113.914 195.468C113.814 196.223 113.954 196.991 114.315 197.662C114.672 198.297 115.232 198.794 115.905 199.074C116.57 199.305 117.277 199.392 117.978 199.329H120.013H123.67L128.968 199.38H130.412C130.578 199.376 130.744 199.389 130.908 199.418C130.743 199.438 130.578 199.448 130.412 199.449H128.968L123.67 199.5H120.013H117.978C117.622 199.5 117.279 199.5 116.903 199.5C116.522 199.472 116.146 199.386 115.79 199.246C115.055 198.941 114.442 198.399 114.048 197.707C113.653 196.978 113.497 196.144 113.602 195.322C113.701 194.449 114.117 193.642 114.771 193.056C115.426 192.469 116.273 192.144 117.151 192.142H126.768H130.965C131.883 192.16 132.757 192.535 133.403 193.186C134.049 193.838 134.415 194.716 134.425 195.633C134.445 196.119 134.374 196.605 134.215 197.064C133.954 197.803 133.449 198.431 132.784 198.845C132.369 199.104 131.902 199.266 131.417 199.322C131.255 199.402 131.084 199.462 130.908 199.5Z" fill="#263238"/>
<path d="M129.744 191.512C127.932 191.672 126.112 191.725 124.294 191.671C122.473 191.725 120.651 191.672 118.837 191.512C120.651 191.349 122.473 191.293 124.294 191.347C126.112 191.293 127.932 191.349 129.744 191.512Z" fill="white"/>
<path d="M87.5587 270.732L82.4707 270.364C83.7999 252.142 85.7461 241.241 88.4237 237.037C93.5625 228.96 98.6696 227.497 104.324 226.537C109.59 225.64 114.9 225.85 120.039 226.06L121.311 226.111C131.92 226.524 154.142 226.155 154.383 226.155L154.466 231.243C154.243 231.243 131.882 231.618 121.133 231.199L119.861 231.148C114.983 230.957 109.946 230.747 105.201 231.561C100.145 232.42 96.7807 233.406 92.723 239.778C91.4955 241.68 89.1932 248.288 87.5587 270.732Z" fill="#263238"/>
<path d="M407.664 63.1675H157.093V230.003H407.664V63.1675Z" fill="#018755"/>
<path d="M404.662 226.702C404.662 225.627 404.611 164.438 404.529 66.939L404.662 67.0662L159.802 67.1044L159.967 66.939C159.967 123.727 159.967 177.781 159.967 226.702L159.815 226.55L404.675 226.702L159.815 226.855H159.637V226.702C159.637 177.781 159.637 123.727 159.637 66.939V66.78H159.821L404.681 66.8118H404.815V66.9454C404.713 164.438 404.662 225.634 404.662 226.702Z" fill="#263238"/>
<path d="M202.339 70.2475C202.323 70.3352 193.551 70.6079 182.707 70.8316C171.863 71.0553 163.071 71.1824 163.068 71.0914C163.065 71.0004 171.856 70.731 182.701 70.5011C193.547 70.2711 202.336 70.1565 202.339 70.2475Z" fill="#FAFAFA"/>
<path d="M401.698 221.9C401.669 221.791 401.656 221.677 401.659 221.563C401.659 221.303 401.659 220.985 401.628 220.603C401.628 219.719 401.628 218.523 401.577 217.067C401.577 214.033 401.526 209.931 401.5 205.396C401.475 200.862 401.411 196.753 401.38 193.726C401.38 192.269 401.341 191.074 401.329 190.19V189.223C401.312 189.113 401.312 189.002 401.329 188.892C401.358 189 401.373 189.111 401.373 189.223C401.373 189.484 401.411 189.795 401.437 190.183C401.488 191.016 401.539 192.225 401.589 193.719C401.698 196.702 401.78 200.83 401.812 205.39C401.844 209.95 401.812 214.078 401.812 217.061C401.812 218.523 401.774 219.719 401.761 220.603C401.761 220.985 401.761 221.303 401.729 221.563C401.728 221.676 401.718 221.789 401.698 221.9Z" fill="#FAFAFA"/>
<path d="M121.477 142.171C121.477 142.171 121.4 142.248 121.241 142.369L120.542 142.871C119.906 143.31 119.034 143.92 117.928 144.677C115.708 146.178 112.617 148.226 109.17 150.433C105.723 152.64 102.575 154.592 100.266 155.985C99.1213 156.679 98.1864 157.257 97.5376 157.613L96.7871 158.033C96.7017 158.089 96.6098 158.133 96.5137 158.167C96.5137 158.167 96.59 158.09 96.749 157.982L97.4677 157.499L100.145 155.788L108.979 150.153L117.782 144.48L120.459 142.769L121.197 142.311C121.285 142.255 121.379 142.208 121.477 142.171Z" fill="#FAFAFA"/>
<path d="M110.608 145.046C110.608 145.046 110.531 145.122 110.372 145.243L109.673 145.746C109.037 146.178 108.165 146.795 107.052 147.546C104.833 149.053 101.742 151.095 98.3009 153.27C94.8602 155.445 91.7056 157.435 89.3969 158.828C88.2521 159.522 87.3172 160.1 86.6685 160.45L85.918 160.876C85.834 160.932 85.7417 160.975 85.6445 161.003C85.7158 160.933 85.7948 160.871 85.8798 160.819L86.5985 160.342L89.2697 158.625L98.1101 152.996L106.912 147.323L109.59 145.606L110.321 145.154C110.412 145.106 110.508 145.069 110.608 145.046Z" fill="#FAFAFA"/>
<path d="M57.0621 163.56C56.9646 163.386 56.8979 163.197 56.865 163C56.7632 162.638 56.6233 162.104 56.4643 161.442C56.0461 159.714 55.8327 157.942 55.8283 156.163C55.8193 154.367 56.2332 152.593 57.0367 150.986C57.288 150.506 57.5908 150.053 57.9398 149.638C58.0575 149.479 58.1991 149.34 58.3596 149.225C57.9536 149.828 57.5799 150.452 57.2402 151.094C56.5154 152.692 56.1444 154.428 56.1526 156.182C56.1719 157.939 56.3615 159.69 56.7187 161.41C56.8777 162.119 56.9924 162.837 57.0621 163.56Z" fill="#FAFAFA"/>
<path d="M31.1647 208.652C31.1417 208.426 31.1417 208.198 31.1647 207.972C31.1647 207.514 31.1647 206.853 31.2029 206.064C31.2538 204.429 31.3746 202.172 31.5718 199.704C31.7689 197.236 32.0042 194.972 32.2078 193.344C32.3095 192.53 32.3986 191.875 32.4685 191.436C32.4925 191.2 32.5415 190.968 32.6148 190.743C32.6467 190.979 32.6467 191.219 32.6148 191.455L32.4494 193.363C32.3095 195.067 32.1187 197.274 31.9088 199.723C31.6989 202.172 31.5718 204.372 31.4509 206.083C31.3937 206.846 31.3428 207.489 31.3046 207.991C31.2853 208.216 31.2383 208.439 31.1647 208.652Z" fill="#FAFAFA"/>
<path d="M100.864 220.997C100.864 221.067 99.6366 221.239 97.7349 221.856C96.6218 222.217 95.5358 222.657 94.485 223.172C91.9101 224.451 89.5807 226.174 87.6034 228.26C86.796 229.107 86.05 230.01 85.3711 230.963C84.2199 232.598 83.6793 233.724 83.6221 233.692C83.7166 233.415 83.8358 233.146 83.9782 232.891C84.1205 232.58 84.282 232.278 84.4616 231.987C84.6651 231.644 84.8877 231.243 85.1803 230.83C85.8387 229.846 86.5746 228.917 87.3808 228.051C88.3801 226.992 89.4673 226.019 90.6308 225.144C91.805 224.292 93.0522 223.545 94.3578 222.912C95.4242 222.4 96.5302 221.974 97.665 221.64C98.142 221.481 98.5935 221.392 98.9815 221.296C99.3151 221.215 99.6526 221.152 99.9927 221.105C100.279 221.042 100.571 221.005 100.864 220.997Z" fill="#FAFAFA"/>
<path d="M163.497 182.602C163.489 182.511 163.489 182.419 163.497 182.328C163.497 182.133 163.497 181.866 163.497 181.527C163.497 180.802 163.497 179.765 163.453 178.443C163.414 175.746 163.364 171.873 163.294 167.096C163.122 157.499 162.887 144.277 162.626 129.668C162.365 115.059 162.142 101.811 162.053 92.2327C162.009 87.4437 161.996 83.5641 162.003 80.8865C162.003 79.5573 162.003 78.5206 162.003 77.8019V77.0005C162.003 76.8161 162.003 76.7271 162.003 76.7271C162.011 76.818 162.011 76.9096 162.003 77.0005C162.003 77.1913 162.003 77.4585 162.003 77.8019C162.003 78.5206 162.003 79.5573 162.047 80.8865C162.085 83.5831 162.136 87.45 162.206 92.2264C162.378 101.824 162.613 115.046 162.874 129.661C163.135 144.277 163.364 157.512 163.446 167.09C163.491 171.885 163.51 175.759 163.503 178.436C163.503 179.765 163.503 180.802 163.503 181.527C163.503 181.864 163.503 182.131 163.503 182.328C163.507 182.42 163.505 182.511 163.497 182.602Z" fill="#FAFAFA"/>
<path d="M347.51 293.849C364.336 293.176 377.431 278.991 376.758 262.165C376.085 245.339 361.9 232.245 345.074 232.918C328.248 233.591 315.154 247.776 315.827 264.601C316.5 281.427 330.685 294.522 347.51 293.849Z" fill="#263238"/>
<path d="M315.793 262.891C315.793 262.891 315.793 262.948 315.793 262.973C315.677 271.058 318.777 278.858 324.411 284.657C330.046 290.456 337.753 293.779 345.838 293.896C353.923 294.012 361.722 290.912 367.521 285.278C373.32 279.643 376.644 271.936 376.76 263.851V263.775L315.793 262.891Z" fill="#263238"/>
<path d="M324.869 263.101C324.808 267.333 326.003 271.488 328.304 275.041C330.604 278.594 333.906 281.385 337.793 283.061C341.679 284.738 345.975 285.224 350.138 284.458C354.301 283.693 358.144 281.711 361.18 278.762C364.216 275.813 366.309 272.03 367.196 267.891C368.082 263.752 367.721 259.443 366.158 255.51C364.596 251.576 361.902 248.194 358.418 245.791C354.933 243.388 350.815 242.073 346.582 242.011C340.907 241.929 335.431 244.105 331.359 248.06C327.288 252.015 324.953 257.425 324.869 263.101Z" fill="#FAFAFA"/>
<path d="M346.582 242.011C343.772 241.969 340.98 242.482 338.368 243.52C335.756 244.557 333.373 246.099 331.357 248.058C329.341 250.016 327.73 252.353 326.617 254.934C325.504 257.515 324.91 260.29 324.869 263.1L367.672 263.736C367.715 260.925 367.203 258.132 366.166 255.518C365.13 252.905 363.588 250.521 361.629 248.503C359.671 246.485 357.334 244.874 354.752 243.76C352.17 242.646 349.394 242.051 346.582 242.011Z" fill="#E0E0E0"/>
<path d="M333.264 263.221C333.227 265.8 333.955 268.332 335.356 270.496C336.758 272.661 338.77 274.362 341.138 275.383C343.506 276.404 346.123 276.7 348.66 276.234C351.196 275.767 353.537 274.559 355.386 272.762C357.236 270.965 358.511 268.66 359.05 266.138C359.59 263.616 359.369 260.991 358.416 258.594C357.464 256.198 355.822 254.138 353.698 252.675C351.575 251.211 349.065 250.411 346.486 250.374C343.03 250.325 339.695 251.651 337.215 254.06C334.736 256.469 333.314 259.764 333.264 263.221Z" fill="#263238"/>
<path d="M306.196 271.763C306.196 271.763 301.554 228.515 346.366 228.515C387.706 228.515 386.79 265.708 386.396 271.464H379.915C379.915 271.464 383.216 234.805 346.366 234.805C309.516 234.805 312.722 272.208 312.722 272.208C312.722 272.208 310 272.074 306.196 271.763Z" fill="#455A64"/>
<path d="M330.199 232.992C330.088 233.049 329.97 233.092 329.849 233.119C329.614 233.202 329.264 233.285 328.831 233.437C327.588 233.833 326.371 234.307 325.187 234.856C321.269 236.653 317.799 239.296 315.025 242.595C312.252 245.894 310.244 249.767 309.147 253.936C308.811 255.19 308.554 256.465 308.378 257.752C308.308 258.21 308.282 258.566 308.244 258.807C308.233 258.932 308.212 259.055 308.18 259.176C308.165 259.054 308.165 258.93 308.18 258.807C308.18 258.559 308.18 258.171 308.257 257.739C308.383 256.43 308.608 255.134 308.931 253.859C309.973 249.627 311.973 245.691 314.776 242.354C317.579 239.016 321.11 236.366 325.098 234.608C326.297 234.072 327.535 233.626 328.8 233.272C329.245 233.145 329.601 233.075 329.836 233.018C329.956 232.996 330.077 232.987 330.199 232.992Z" fill="#FAFAFA"/>
<path d="M440.271 277.003L445.689 285.157L448.125 292.84C448.165 292.972 448.233 293.094 448.323 293.198C448.412 293.303 448.523 293.388 448.647 293.448C448.772 293.507 448.907 293.541 449.045 293.546C449.182 293.55 449.32 293.527 449.448 293.476C449.603 293.424 449.742 293.333 449.853 293.213C449.964 293.093 450.044 292.947 450.084 292.789C450.58 290.779 452.367 283.376 451.941 282.797C451.515 282.219 446.79 273.823 446.79 273.823L440.271 277.003Z" fill="#455A64"/>
<g opacity="0.6">
<path d="M449.448 293.47L451.56 282.238L451.782 282.588C451.976 282.889 452.055 283.25 452.005 283.605C451.871 284.553 451.439 287.167 450.097 292.764C450.058 292.925 449.98 293.074 449.869 293.198C449.758 293.321 449.618 293.414 449.461 293.47H449.448Z" fill="white"/>
</g>
<g opacity="0.6">
<path d="M448.17 280.641C448.122 280.781 448.123 280.932 448.174 281.07C448.225 281.208 448.323 281.324 448.45 281.398C448.587 281.458 448.742 281.463 448.882 281.412C449.023 281.361 449.139 281.259 449.206 281.125C449.265 280.977 449.266 280.813 449.209 280.665C449.153 280.517 449.043 280.395 448.901 280.323C448.752 280.275 448.589 280.287 448.449 280.357C448.309 280.428 448.201 280.55 448.151 280.699" fill="white"/>
</g>
<path d="M449.048 288.661C448.687 288.525 448.302 288.462 447.916 288.477C447.537 288.548 447.174 288.69 446.848 288.897C446.848 288.897 446.892 288.75 447.07 288.598C447.308 288.408 447.595 288.291 447.897 288.261C448.199 288.225 448.505 288.281 448.775 288.42C448.978 288.528 449.067 288.642 449.048 288.661Z" fill="#263238"/>
<path d="M449.163 290.143C448.84 290.156 448.519 290.192 448.202 290.251C447.902 290.365 447.611 290.501 447.331 290.658C447.28 290.627 447.566 290.2 448.145 290.022C448.312 289.959 448.492 289.937 448.669 289.958C448.846 289.979 449.015 290.043 449.163 290.143Z" fill="#263238"/>
<path d="M449.252 286.544C448.752 286.528 448.253 286.552 447.757 286.613C447.276 286.739 446.806 286.903 446.352 287.103C446.708 286.712 447.194 286.464 447.719 286.404C448.231 286.27 448.773 286.32 449.252 286.544Z" fill="#263238"/>
<path d="M447.808 283.93C447.808 283.993 447.235 284.089 446.631 284.445C446.027 284.801 445.639 285.24 445.588 285.202C445.781 284.789 446.112 284.456 446.523 284.26C446.898 284 447.354 283.883 447.808 283.93Z" fill="#263238"/>
<path d="M446.275 281.494C445.83 281.604 445.402 281.775 445.003 282.002C444.655 282.283 444.345 282.608 444.081 282.969C444.081 282.969 444.081 282.804 444.202 282.568C444.368 282.271 444.601 282.016 444.883 281.824C445.164 281.632 445.486 281.508 445.824 281.462C446.116 281.436 446.275 281.468 446.275 281.494Z" fill="#263238"/>
<path d="M444.755 281.532C444.668 281.444 444.599 281.34 444.551 281.227C444.393 280.922 444.3 280.589 444.278 280.247C444.24 280.001 444.282 279.749 444.399 279.528C444.445 279.459 444.511 279.405 444.588 279.375C444.665 279.344 444.75 279.338 444.831 279.357C444.985 279.407 445.116 279.511 445.2 279.649C445.357 279.94 445.408 280.276 445.345 280.599C445.281 280.923 445.106 281.215 444.85 281.424C444.593 281.624 444.283 281.744 443.958 281.767C443.633 281.791 443.308 281.718 443.025 281.557C442.954 281.518 442.892 281.464 442.845 281.398C442.797 281.332 442.765 281.256 442.751 281.176C442.742 281.092 442.76 281.008 442.802 280.936C442.845 280.864 442.91 280.807 442.987 280.775C443.219 280.69 443.469 280.668 443.712 280.711C444.05 280.749 444.38 280.846 444.685 280.998C444.798 281.046 444.902 281.115 444.99 281.201C444.584 281.029 444.156 280.916 443.718 280.864C443.504 280.835 443.285 280.859 443.082 280.934C443.039 280.95 443.003 280.981 442.979 281.02C442.955 281.059 442.944 281.105 442.949 281.15C442.963 281.202 442.988 281.25 443.022 281.291C443.056 281.333 443.098 281.367 443.146 281.392C443.395 281.523 443.676 281.58 443.957 281.557C444.238 281.533 444.506 281.429 444.729 281.258C444.939 281.077 445.083 280.832 445.14 280.561C445.198 280.29 445.165 280.008 445.047 279.757C444.993 279.658 444.905 279.581 444.799 279.541C444.755 279.529 444.708 279.531 444.664 279.547C444.621 279.563 444.584 279.592 444.558 279.63C444.45 279.824 444.41 280.047 444.443 280.266C444.478 280.702 444.583 281.13 444.755 281.532Z" fill="#263238"/>
<path d="M435.12 281.665L434.484 289.851C434.484 289.851 442.606 292.63 442.637 294.156L426.737 294.118L427.183 281.328L435.12 281.665Z" fill="#455A64"/>
<g opacity="0.6">
<path d="M429.605 288.967C429.45 289.005 429.315 289.1 429.226 289.233C429.138 289.366 429.103 289.528 429.128 289.685C429.165 289.841 429.258 289.976 429.39 290.066C429.522 290.155 429.683 290.192 429.84 290.169C430.005 290.125 430.147 290.022 430.239 289.88C430.332 289.738 430.369 289.567 430.343 289.399C430.293 289.238 430.181 289.103 430.032 289.025C429.883 288.946 429.709 288.93 429.548 288.979" fill="white"/>
</g>
<g opacity="0.6">
<path d="M426.756 294.118L426.8 292.846L442.172 293.419C442.334 293.504 442.472 293.629 442.574 293.781C442.676 293.933 442.739 294.108 442.758 294.29L426.756 294.118Z" fill="white"/>
</g>
<path d="M434.757 289.781C434.757 289.857 434.363 289.876 433.969 290.112C433.574 290.347 433.333 290.665 433.294 290.633C433.256 290.601 433.358 290.15 433.835 289.876C434.312 289.603 434.776 289.711 434.757 289.781Z" fill="#263238"/>
<path d="M436.398 290.537C436.398 290.614 436.074 290.728 435.794 291.046C435.514 291.364 435.431 291.682 435.349 291.682C435.266 291.682 435.241 291.237 435.597 290.849C435.953 290.461 436.398 290.461 436.398 290.537Z" fill="#263238"/>
<path d="M437.269 292.56C437.199 292.56 437.104 292.178 437.32 291.759C437.536 291.339 437.905 291.186 437.956 291.256C438.007 291.326 437.752 291.543 437.581 291.892C437.409 292.242 437.345 292.56 437.269 292.56Z" fill="#263238"/>
<path d="M434.694 287.898C434.655 287.968 434.306 287.847 433.867 287.86C433.428 287.873 433.078 287.994 433.04 287.93C433.002 287.866 433.339 287.593 433.86 287.587C434.382 287.58 434.732 287.841 434.694 287.898Z" fill="#263238"/>
<g opacity="0.3">
<path d="M434.992 283.287L434.884 284.744L427.067 284.362L427.112 283.045L434.992 283.287Z" fill="black"/>
</g>
<path d="M434.788 286.245C434.526 286.306 434.251 286.295 433.993 286.213C433.708 286.147 433.43 286.049 433.167 285.92C433.012 285.845 432.863 285.758 432.721 285.66C432.633 285.607 432.553 285.541 432.486 285.462C432.441 285.403 432.417 285.33 432.417 285.256C432.417 285.181 432.441 285.109 432.486 285.049C432.528 284.996 432.581 284.954 432.642 284.926C432.703 284.897 432.769 284.883 432.836 284.884C432.935 284.888 433.033 284.906 433.129 284.934C433.297 284.984 433.461 285.048 433.618 285.125C433.883 285.259 434.125 285.433 434.337 285.64C434.693 285.997 434.808 286.276 434.776 286.276C434.744 286.276 434.572 286.054 434.21 285.755C433.995 285.585 433.76 285.442 433.51 285.329C433.365 285.261 433.214 285.207 433.059 285.17C432.893 285.119 432.753 285.113 432.702 285.17C432.652 285.227 432.702 285.208 432.702 285.259C432.749 285.317 432.805 285.366 432.868 285.405C433.001 285.498 433.139 285.583 433.281 285.66C433.523 285.792 433.776 285.903 434.038 285.99C434.293 286.058 434.544 286.143 434.788 286.245Z" fill="#263238"/>
<path d="M434.681 286.353C434.54 286.12 434.477 285.848 434.503 285.577C434.502 285.105 434.627 284.642 434.865 284.235C434.91 284.128 434.982 284.036 435.075 283.968C435.168 283.899 435.278 283.858 435.393 283.847C435.463 283.854 435.53 283.879 435.587 283.92C435.644 283.962 435.689 284.018 435.717 284.082C435.751 284.179 435.774 284.279 435.787 284.381C435.814 284.621 435.793 284.863 435.726 285.095C435.658 285.326 435.545 285.542 435.393 285.729C435.062 286.124 434.757 286.206 434.757 286.181C434.757 286.156 435.011 286.003 435.266 285.615C435.408 285.391 435.504 285.14 435.546 284.877C435.568 284.723 435.568 284.567 435.546 284.413C435.546 284.241 435.476 284.108 435.406 284.12C435.336 284.133 435.189 284.235 435.119 284.368C435.035 284.504 434.963 284.646 434.903 284.795C434.805 285.047 434.743 285.313 434.719 285.583C434.655 286.047 434.725 286.34 434.681 286.353Z" fill="#263238"/>
<path d="M440.933 214.332C440.933 214.332 443.852 220.317 444.615 224.584C444.831 225.793 436.258 287.141 436.258 287.141L426.12 286.76L430.871 229.672L429.179 218.224L440.933 214.332Z" fill="#263238"/>
<path d="M416.306 218.04C416.236 222.183 416.448 226.327 416.942 230.442C417.693 236.458 419.41 243.308 419.969 247.137C421.203 255.608 423.633 257.211 423.633 257.211L443.082 282.098L450.714 275.235L433.542 247.805C433.542 247.805 428.975 217.366 429.134 218.186C429.293 219.007 416.306 218.04 416.306 218.04Z" fill="#263238"/>
<path d="M424.04 257.58C424.095 257.671 424.157 257.759 424.225 257.841L424.778 258.553L426.819 261.186C428.543 263.431 430.89 266.51 433.491 269.912C436.092 273.315 438.458 276.406 440.214 278.606C441.085 279.707 441.804 280.591 442.312 281.195L442.897 281.882C442.963 281.966 443.035 282.045 443.114 282.117C443.062 282.024 443 281.936 442.929 281.856L442.376 281.138L440.334 278.511L433.663 269.779C431.068 266.363 428.696 263.285 426.94 261.091C426.069 259.984 425.35 259.106 424.848 258.502L424.256 257.809C424.192 257.725 424.12 257.649 424.04 257.58Z" fill="#455A64"/>
<path d="M421.871 222.702C421.86 223.044 421.766 223.377 421.598 223.675C420.917 225.177 419.668 226.348 418.125 226.931C417.816 227.072 417.48 227.143 417.14 227.141C418.161 226.709 419.111 226.123 419.957 225.405C420.731 224.608 421.377 223.696 421.871 222.702Z" fill="#455A64"/>
<path d="M442.859 219.229C442.394 219.441 441.878 219.514 441.372 219.44C440.867 219.365 440.394 219.147 440.01 218.81C440.054 218.727 440.646 219 441.422 219.108C442.198 219.217 442.84 219.14 442.859 219.229Z" fill="#455A64"/>
<path d="M431.914 227.688C431.946 227.822 431.97 227.958 431.984 228.095C432.022 228.388 432.067 228.776 432.13 229.265C432.245 230.315 432.41 231.809 432.62 233.628C433.014 237.368 433.555 242.532 434.178 248.472V248.403L436.996 252.905L446.784 268.659C448.011 270.663 449.01 272.291 449.716 273.455L450.479 274.752C450.577 274.9 450.66 275.058 450.727 275.223C450.615 275.084 450.513 274.937 450.422 274.784L449.582 273.512L446.561 268.774C444.017 264.735 440.538 259.195 436.69 253.077L433.879 248.568V248.53C433.307 242.609 432.798 237.419 432.436 233.673L432.041 229.297C432.003 228.807 431.971 228.419 431.952 228.12C431.922 227.978 431.909 227.833 431.914 227.688Z" fill="#455A64"/>
<path d="M428.956 174.226L435.024 176.172L435.481 189.038C435.481 189.038 438.763 204.156 439.476 206.064C440.311 208.35 440.931 210.709 441.326 213.111C441.326 213.111 440.156 221.646 431.627 222.651C423.099 223.656 415.161 218.759 415.161 218.759C415.161 218.759 412.318 206.039 409.711 194.629C407.23 183.772 409.246 177.298 409.246 177.298L418.589 173.94L428.956 174.226Z" fill="#455A64"/>
<path d="M433.465 181.388L427.89 182.062L428.063 183.496L433.638 182.821L433.465 181.388Z" fill="#FAFAFA"/>
<path d="M434.808 165.996C434.755 165.683 434.587 165.4 434.336 165.205C434.085 165.01 433.77 164.915 433.454 164.94C433.595 164.833 433.708 164.692 433.781 164.53C433.854 164.368 433.886 164.191 433.872 164.013C433.859 163.836 433.802 163.665 433.705 163.516C433.609 163.367 433.476 163.244 433.32 163.159C433.618 162.706 433.736 162.158 433.653 161.622C433.569 161.087 433.29 160.601 432.868 160.259L426.464 169.093C426.956 169.485 427.523 169.772 428.13 169.938C428.736 170.104 429.371 170.146 429.994 170.06C431.244 169.876 432.444 169.444 433.523 168.788C433.821 168.66 434.067 168.436 434.223 168.152C434.344 167.853 434.172 167.421 433.841 167.414C434.151 167.341 434.421 167.155 434.6 166.893C434.779 166.63 434.853 166.31 434.808 165.996Z" fill="#263238"/>
<path d="M418.901 161.169C418.782 161.14 418.656 161.148 418.542 161.192C418.427 161.237 418.329 161.315 418.26 161.416C418.19 161.518 418.154 161.638 418.155 161.761C418.156 161.884 418.194 162.003 418.265 162.104C418.074 162.078 417.88 162.104 417.702 162.18C417.525 162.256 417.372 162.378 417.258 162.534C417.145 162.689 417.076 162.873 417.058 163.065C417.04 163.257 417.075 163.45 417.158 163.624C416.707 163.598 416.261 163.721 415.886 163.973C415.697 164.103 415.548 164.283 415.458 164.494C415.368 164.705 415.34 164.937 415.377 165.163C415.43 165.381 415.567 165.569 415.757 165.688C415.947 165.807 416.176 165.847 416.395 165.799C416.283 165.995 416.23 166.219 416.241 166.444C416.252 166.669 416.328 166.887 416.459 167.071C416.528 167.156 416.615 167.226 416.714 167.274C416.812 167.323 416.92 167.35 417.03 167.353C417.14 167.356 417.249 167.335 417.35 167.292C417.452 167.249 417.542 167.184 417.616 167.103C417.494 167.267 417.431 167.469 417.437 167.673C417.443 167.878 417.517 168.076 417.649 168.233C417.78 168.391 417.96 168.5 418.161 168.543C418.361 168.586 418.57 168.56 418.755 168.47C418.705 168.674 418.72 168.889 418.799 169.084C418.879 169.279 419.017 169.443 419.195 169.555C419.374 169.666 419.583 169.718 419.793 169.704C420.002 169.69 420.202 169.61 420.364 169.475L418.901 161.169Z" fill="#263238"/>
<path d="M419.296 159.477L419.016 175.116C418.996 176.349 419.444 177.544 420.27 178.459C421.097 179.374 422.24 179.941 423.468 180.045C424.131 180.104 424.799 180.026 425.43 179.816C426.061 179.606 426.643 179.269 427.139 178.826C427.635 178.382 428.035 177.842 428.313 177.238C428.592 176.633 428.744 175.979 428.76 175.313C428.76 173.825 428.811 172.604 428.811 172.604C428.811 172.604 432.627 172.35 433.002 168.597C433.225 166.422 433.282 161.461 433.295 157.652C433.299 156.411 432.838 155.214 432.001 154.297C431.165 153.381 430.015 152.812 428.779 152.704L426.508 152.507C425.574 152.478 424.643 152.636 423.771 152.973C422.898 153.31 422.103 153.819 421.43 154.469C420.758 155.119 420.223 155.897 419.856 156.757C419.489 157.617 419.299 158.542 419.296 159.477Z" fill="#FFBE9D"/>
<path d="M428.797 172.604C427.057 172.439 425.401 171.777 424.027 170.696C424.027 170.696 424.994 173.539 428.778 173.533L428.797 172.604Z" fill="#EB996E"/>
<path d="M432.232 161.474C432.162 161.538 431.781 161.201 431.202 161.15C430.623 161.099 430.178 161.353 430.121 161.277C430.064 161.201 430.172 161.118 430.369 161.003C430.632 160.85 430.937 160.783 431.24 160.813C431.542 160.84 431.827 160.962 432.054 161.162C432.22 161.309 432.27 161.442 432.232 161.474Z" fill="#263238"/>
<path d="M426.12 161.722C426.109 161.862 426.044 161.992 425.938 162.085C425.832 162.177 425.695 162.225 425.554 162.218C425.486 162.218 425.418 162.205 425.354 162.178C425.291 162.151 425.234 162.112 425.186 162.063C425.138 162.014 425.1 161.955 425.075 161.891C425.05 161.827 425.038 161.759 425.039 161.69C425.051 161.55 425.116 161.42 425.222 161.328C425.327 161.235 425.465 161.187 425.605 161.194C425.674 161.194 425.742 161.208 425.805 161.235C425.869 161.261 425.926 161.3 425.974 161.35C426.022 161.399 426.06 161.457 426.085 161.521C426.11 161.585 426.122 161.653 426.12 161.722Z" fill="#263238"/>
<path d="M431.717 162.231C431.705 162.371 431.64 162.501 431.534 162.594C431.428 162.686 431.291 162.734 431.151 162.727C431.082 162.725 431.015 162.71 430.952 162.682C430.889 162.655 430.833 162.615 430.785 162.565C430.738 162.516 430.701 162.457 430.677 162.393C430.652 162.329 430.64 162.261 430.642 162.193C430.652 162.052 430.717 161.921 430.823 161.828C430.929 161.735 431.067 161.688 431.208 161.697C431.277 161.696 431.345 161.71 431.409 161.738C431.472 161.765 431.529 161.805 431.577 161.854C431.624 161.904 431.661 161.964 431.685 162.028C431.709 162.093 431.72 162.162 431.717 162.231Z" fill="#263238"/>
<path d="M426.61 160.978C426.54 161.042 426.158 160.704 425.579 160.654C425.001 160.603 424.549 160.857 424.492 160.781C424.435 160.704 424.543 160.622 424.74 160.507C425.003 160.355 425.307 160.288 425.61 160.316C425.913 160.343 426.2 160.463 426.432 160.66C426.597 160.813 426.648 160.946 426.61 160.978Z" fill="#263238"/>
<path d="M428.327 165.449C428.647 165.38 428.973 165.35 429.3 165.36C429.453 165.36 429.593 165.36 429.625 165.246C429.653 165.095 429.633 164.939 429.567 164.8C429.459 164.425 429.345 164.044 429.23 163.636C428.908 162.649 428.667 161.636 428.512 160.609C428.909 161.568 429.23 162.557 429.472 163.567C429.58 163.98 429.688 164.368 429.79 164.737C429.857 164.926 429.857 165.133 429.79 165.322C429.764 165.372 429.727 165.416 429.682 165.45C429.637 165.484 429.585 165.508 429.529 165.519C429.445 165.528 429.359 165.528 429.275 165.519C428.957 165.535 428.639 165.512 428.327 165.449Z" fill="#263238"/>
<path d="M426.591 165.697C426.686 165.697 426.636 166.333 427.132 166.823C427.628 167.313 428.302 167.306 428.302 167.389C428.302 167.472 428.137 167.503 427.857 167.484C427.488 167.455 427.141 167.298 426.877 167.039C426.623 166.793 426.474 166.458 426.464 166.104C426.464 165.837 426.553 165.691 426.591 165.697Z" fill="#263238"/>
<path d="M426.928 159.108C426.851 159.261 426.292 159.108 425.598 159.159C424.905 159.21 424.326 159.318 424.269 159.159C424.212 159 424.345 158.949 424.581 158.816C424.891 158.652 425.235 158.565 425.586 158.561C425.936 158.551 426.285 158.623 426.603 158.771C426.838 158.905 426.953 159.038 426.928 159.108Z" fill="#263238"/>
<path d="M432.302 159.808C432.188 159.935 431.8 159.763 431.323 159.712C430.846 159.661 430.432 159.712 430.35 159.579C430.267 159.445 430.388 159.382 430.579 159.273C430.829 159.146 431.112 159.095 431.392 159.128C431.672 159.16 431.935 159.275 432.15 159.458C432.309 159.636 432.353 159.75 432.302 159.808Z" fill="#263238"/>
<path d="M420.313 162.409C420.25 162.377 417.769 161.417 417.649 163.999C417.528 166.581 420.123 166.193 420.135 166.117C420.148 166.04 420.313 162.409 420.313 162.409Z" fill="#FFBE9D"/>
<path d="M419.403 165.093C419.403 165.093 419.353 165.125 419.276 165.157C419.168 165.198 419.048 165.198 418.939 165.157C418.779 165.042 418.652 164.886 418.572 164.706C418.491 164.527 418.46 164.329 418.481 164.133C418.49 163.912 418.544 163.695 418.64 163.497C418.672 163.418 418.721 163.349 418.784 163.292C418.847 163.236 418.922 163.195 419.003 163.172C419.055 163.161 419.109 163.169 419.156 163.195C419.203 163.221 419.239 163.262 419.257 163.312C419.257 163.388 419.257 163.439 419.257 163.439C419.257 163.439 419.314 163.401 419.302 163.293C419.29 163.228 419.257 163.17 419.206 163.128C419.14 163.07 419.053 163.04 418.965 163.045C418.858 163.061 418.757 163.104 418.671 163.169C418.586 163.235 418.518 163.321 418.475 163.42C418.351 163.638 418.283 163.882 418.278 164.133C418.252 164.361 418.295 164.593 418.4 164.797C418.505 165.002 418.668 165.171 418.869 165.284C418.937 165.306 419.009 165.314 419.081 165.306C419.152 165.299 419.221 165.276 419.283 165.239C419.391 165.157 419.41 165.099 419.403 165.093Z" fill="#EB996E"/>
<path d="M418.889 162.18C419.135 162.185 419.375 162.257 419.583 162.388C419.792 162.519 419.961 162.704 420.071 162.924C420.205 163.306 420.205 163.726 420.339 164.107C420.472 164.489 420.822 164.858 421.223 164.794C421.36 164.766 421.487 164.701 421.591 164.607C421.695 164.513 421.772 164.393 421.814 164.26C421.894 163.99 421.919 163.707 421.89 163.427C421.846 162.212 421.7 160.997 421.757 159.789C421.77 158.564 422.142 157.37 422.825 156.354C423.177 155.852 423.659 155.454 424.219 155.203C424.779 154.952 425.396 154.858 426.005 154.93C426.8 155.063 427.494 155.566 428.276 155.731C428.743 155.834 429.228 155.831 429.694 155.721C430.16 155.611 430.595 155.397 430.966 155.095C431.062 155.019 431.488 154.79 431.488 154.79C431.498 154.503 431.428 154.218 431.284 153.969C429.84 152.373 427.036 151.712 424.924 152.061C423.844 152.228 422.812 152.627 421.902 153.233C420.991 153.838 420.224 154.634 419.652 155.566C418.583 157.442 418.609 160.177 418.927 162.193" fill="#263238"/>
<path d="M433.752 157.009C433.524 157.372 433.205 157.669 432.827 157.87C432.448 158.07 432.024 158.169 431.596 158.154C430.739 158.115 429.898 157.914 429.115 157.563C427.876 157.136 426.598 156.832 425.299 156.653C425.172 156.653 425.02 156.653 424.962 156.52C424.905 156.386 425.045 156.208 425.185 156.113C426.387 155.337 429.141 155.038 430.572 155.101C431.289 155.116 431.991 155.315 432.61 155.678C433.229 156.041 433.745 156.556 434.108 157.175" fill="#263238"/>
<path d="M433.377 157.092C432.632 156.153 431.55 155.542 430.362 155.388C428.081 155.196 425.791 155.637 423.744 156.663C421.698 157.688 419.973 159.259 418.761 161.201C418.531 160.105 418.416 158.988 418.418 157.868C418.482 157.098 419.347 152.583 424.142 151.565C424.161 151.552 431.462 149.46 433.377 157.092Z" fill="#455A64"/>
<path d="M419.264 160.227C420.956 158.128 423.085 156.422 425.503 155.229C428.34 153.935 431.333 153.013 434.407 152.487C435.196 152.301 436.016 152.286 436.811 152.443C437.206 152.53 437.569 152.726 437.858 153.009C438.148 153.293 438.351 153.652 438.445 154.046C438.604 155.038 436.741 156.392 435.901 156.908C435.058 157.368 434.189 157.782 433.3 158.148C433.3 158.148 433.485 156.348 430.623 155.718C426.711 154.86 419.264 160.227 419.264 160.227Z" fill="#455A64"/>
<path d="M437.314 152.57C437.043 152.513 436.769 152.47 436.493 152.443C435.733 152.414 434.972 152.465 434.223 152.596C431.74 153.014 429.311 153.703 426.979 154.65C424.63 155.553 422.472 156.891 420.619 158.593C420.065 159.112 419.578 159.697 419.169 160.336C418.889 160.794 418.781 161.073 418.755 161.061C418.73 161.048 418.755 160.984 418.806 160.851C418.876 160.652 418.961 160.458 419.06 160.272C419.434 159.592 419.905 158.97 420.46 158.428C422.291 156.644 424.469 155.254 426.858 154.345C429.211 153.384 431.674 152.717 434.191 152.36C434.958 152.252 435.735 152.237 436.506 152.316C436.725 152.332 436.939 152.384 437.142 152.468C437.256 152.526 437.32 152.557 437.314 152.57Z" fill="#263238"/>
<path d="M428.028 153.569C428.962 153.172 429.954 152.929 430.966 152.85C430.745 152.643 430.5 152.463 430.235 152.316C429.447 152.378 428.674 152.564 427.945 152.869L428.028 153.569Z" fill="#FAFAFA"/>
<path d="M433.809 158.364C433.927 158.199 433.999 158.006 434.018 157.804C434.036 157.602 434.001 157.399 433.915 157.216C433.828 157.032 433.695 156.875 433.527 156.761C433.36 156.646 433.165 156.578 432.963 156.564C433.096 156.511 433.218 156.43 433.318 156.328C433.419 156.225 433.498 156.103 433.549 155.968C433.601 155.834 433.624 155.69 433.617 155.547C433.61 155.403 433.574 155.262 433.51 155.133C433.36 154.883 433.131 154.69 432.859 154.584C432.588 154.478 432.289 154.466 432.009 154.548C431.732 154.64 431.481 154.796 431.276 155.004C431.072 155.212 430.919 155.465 430.832 155.744C430.714 155.568 430.552 155.426 430.363 155.33C430.174 155.234 429.963 155.189 429.752 155.198C429.54 155.207 429.334 155.27 429.153 155.381C428.973 155.492 428.824 155.648 428.721 155.833C428.664 155.674 428.549 155.542 428.4 155.464C428.25 155.386 428.076 155.368 427.913 155.413C427.591 155.519 427.295 155.695 427.048 155.928C426.8 156.164 426.479 156.309 426.139 156.342L425.916 156.437C426.098 156.73 426.381 156.946 426.712 157.044C427.042 157.142 427.397 157.117 427.71 156.971C427.707 157.188 427.775 157.4 427.903 157.575C428.031 157.749 428.213 157.878 428.42 157.94C428.628 158.003 428.85 157.996 429.053 157.921C429.257 157.846 429.43 157.707 429.548 157.525C429.587 157.685 429.666 157.833 429.777 157.955C429.889 158.077 430.029 158.17 430.185 158.224C430.341 158.279 430.508 158.293 430.671 158.266C430.834 158.24 430.988 158.173 431.118 158.072C431.19 158.257 431.303 158.424 431.451 158.558C431.598 158.692 431.775 158.789 431.966 158.842C432.158 158.896 432.36 158.903 432.555 158.864C432.75 158.825 432.933 158.741 433.09 158.619C433.252 158.876 433.358 159.165 433.399 159.467C433.441 159.769 433.418 160.076 433.332 160.368C433.542 160.321 433.734 160.216 433.887 160.066C434.04 159.915 434.147 159.724 434.197 159.515C434.247 159.306 434.237 159.087 434.168 158.884C434.1 158.68 433.975 158.5 433.809 158.364Z" fill="#263238"/>
<path d="M423.054 157.728C422.167 158.121 421.315 158.592 420.51 159.134C419.701 159.686 419.054 160.443 418.634 161.328L419.906 162.543C420.256 162.657 420.542 162.778 420.809 162.543C420.947 162.423 421.053 162.27 421.117 162.099C421.182 161.929 421.202 161.744 421.178 161.563C421.347 161.599 421.522 161.588 421.685 161.531C421.848 161.474 421.992 161.374 422.102 161.241C422.211 161.107 422.282 160.947 422.307 160.776C422.331 160.605 422.308 160.431 422.24 160.272C422.366 160.242 422.482 160.179 422.576 160.09C422.67 160.001 422.738 159.888 422.774 159.763C422.807 159.639 422.808 159.508 422.775 159.383C422.743 159.258 422.679 159.144 422.59 159.051C422.733 159.042 422.871 158.992 422.987 158.906C423.102 158.82 423.19 158.703 423.24 158.567C423.289 158.432 423.298 158.285 423.265 158.145C423.232 158.005 423.158 157.878 423.054 157.779V157.728Z" fill="#263238"/>
<path d="M435.024 176.172C435.024 176.172 438.783 178.43 439.915 180.44C441.047 182.449 447.064 197.116 446.816 199.52C446.568 201.924 440.92 203.406 440.92 203.406L435.024 195.774L437.721 194.165L435.024 188.968V176.172Z" fill="#455A64"/>
<path d="M440.933 203.386C440.933 203.386 427.271 206.121 422.311 200.206L423.748 195.214C423.748 195.214 432.773 197.351 435.597 196.435L440.933 203.386Z" fill="#FFBE9D"/>
<path d="M442.345 191.251C442.396 191.353 440.742 192.046 439.018 193.363C437.295 194.68 436.207 196.104 436.118 196.034C436.273 195.678 436.488 195.351 436.754 195.067C437.355 194.338 438.035 193.679 438.783 193.102C439.535 192.53 440.348 192.042 441.206 191.646C441.561 191.451 441.946 191.318 442.345 191.251Z" fill="#263238"/>
<path d="M437.962 193.98C437.475 193.21 437.064 192.394 436.735 191.544C436.299 190.745 435.925 189.913 435.615 189.057C436.215 189.755 436.695 190.548 437.034 191.404C437.462 192.215 437.775 193.082 437.962 193.98Z" fill="#263238"/>
<path d="M435.482 187.805C435.445 187.087 435.335 186.375 435.151 185.68C435.035 184.969 434.85 184.27 434.598 183.594C434.751 185.024 435.047 186.434 435.482 187.805Z" fill="#263238"/>
<path d="M410.958 178.08C411.218 178.354 414.971 180.84 416.224 185.076C417.477 189.312 418.857 193.732 418.857 193.732L423.748 194.368L420.987 205.651C419.12 205.363 417.336 204.676 415.757 203.638C414.178 202.6 412.84 201.235 411.835 199.634C409.652 195.831 407.887 191.803 406.569 187.62C406.569 187.62 406.983 173.921 410.958 178.08Z" fill="#455A64"/>
<path d="M422.068 194.145C422.068 194.145 419.995 189.502 419.715 189.439C419.435 189.375 415.435 187.97 415.435 187.97C415.313 188.296 415.313 188.655 415.435 188.981L413.991 189.165C413.991 189.165 414.207 190.049 414.697 190.17L414.176 190.635C414.437 190.979 414.772 191.261 415.155 191.461C415.302 191.534 415.465 191.572 415.629 191.572C415.793 191.572 415.955 191.534 416.103 191.461C416.103 191.461 415.925 191.792 416.739 192.314C417.553 192.835 418.971 193.586 418.971 193.586L422.068 194.145Z" fill="#FFBE9D"/>
<path d="M418.978 193.611C418.978 193.611 417.559 192.835 416.745 192.339C416.039 191.894 416.058 191.589 416.109 191.5C415.963 191.566 415.805 191.6 415.645 191.6C415.485 191.6 415.326 191.566 415.181 191.5C414.796 191.295 414.46 191.011 414.195 190.666L414.672 190.164C414.195 190.024 413.985 189.191 413.979 189.153L415.416 188.968C415.3 188.643 415.3 188.288 415.416 187.963C415.454 187.963 419.429 189.375 419.703 189.433C419.976 189.49 421.973 193.955 422.062 194.145L418.978 193.611ZM415.441 188.975L413.998 189.159C413.998 189.261 414.246 190.037 414.697 190.151L414.169 190.615C414.426 190.957 414.756 191.235 415.136 191.43C415.283 191.501 415.444 191.538 415.607 191.538C415.77 191.538 415.931 191.501 416.077 191.43V191.468C416.077 191.468 415.912 191.798 416.713 192.307C417.515 192.816 418.895 193.579 418.946 193.579L422.018 194.12C421.293 192.511 419.887 189.483 419.677 189.439C419.467 189.394 415.619 188.046 415.403 187.97C415.29 188.298 415.303 188.656 415.441 188.975Z" fill="#EB996E"/>
<path d="M415.562 188.994C416.407 189.404 417.284 189.746 418.183 190.018C418.552 190.151 418.914 190.247 419.2 190.387C419.456 190.508 419.666 190.709 419.798 190.959C420.04 191.392 420.129 191.703 420.167 191.691C420.152 191.408 420.074 191.132 419.938 190.883C419.804 190.596 419.581 190.359 419.302 190.209C418.963 190.056 418.615 189.924 418.259 189.814C417.381 189.476 416.48 189.202 415.562 188.994Z" fill="#EB996E"/>
<path d="M414.628 190.164C414.851 190.297 415.097 190.385 415.353 190.425C415.811 190.552 416.46 190.654 417.147 190.838C417.732 190.984 418.283 191.243 418.768 191.601C419.137 191.888 419.296 192.136 419.328 192.117C419.239 191.865 419.08 191.645 418.87 191.481C418.389 191.068 417.819 190.774 417.204 190.622C416.498 190.431 415.843 190.355 415.385 190.272C415.137 190.208 414.883 190.172 414.628 190.164Z" fill="#EB996E"/>
<path d="M418.298 192.288C418.062 191.97 417.722 191.745 417.337 191.652C416.974 191.489 416.567 191.451 416.18 191.544C416.18 191.614 416.689 191.646 417.267 191.856C417.846 192.066 418.259 192.339 418.298 192.288Z" fill="#EB996E"/>
<path d="M423.328 195.57L435.66 189.35L437.918 193.948C437.918 193.948 426.553 205.212 421.229 205.065" fill="#FFBE9D"/>
<path d="M415.836 182.532C415.854 182.843 415.91 183.15 416.001 183.448C416.135 184.001 416.326 184.764 416.555 185.604C416.784 186.443 417 187.207 417.191 187.754C417.261 188.054 417.367 188.344 417.509 188.619C417.486 188.31 417.431 188.005 417.343 187.709C417.21 187.156 417.019 186.392 416.79 185.547C416.561 184.701 416.345 183.95 416.154 183.41C416.082 183.106 415.975 182.811 415.836 182.532Z" fill="#263238"/>
<path d="M416.37 197.84C416.408 197.84 416.516 197.274 416.802 196.39C416.965 195.877 417.214 195.395 417.54 194.966C417.931 194.456 418.494 194.105 419.124 193.98C419.782 193.95 420.441 194.025 421.076 194.203L422.692 194.527C422.894 194.554 423.093 194.605 423.283 194.68C423.418 194.739 423.525 194.849 423.582 194.985C423.607 195.043 423.62 195.106 423.62 195.169C423.62 195.233 423.607 195.295 423.582 195.354C423.582 195.354 423.754 195.252 423.684 194.959C423.659 194.876 423.618 194.799 423.562 194.732C423.506 194.665 423.437 194.61 423.359 194.571C423.157 194.478 422.943 194.411 422.723 194.374L421.114 194.005C420.457 193.809 419.771 193.728 419.085 193.764C418.393 193.9 417.777 194.293 417.362 194.864C417.031 195.316 416.785 195.825 416.637 196.365C416.533 196.724 416.45 197.09 416.389 197.459C416.363 197.584 416.357 197.713 416.37 197.84Z" fill="#263238"/>
<path d="M414.672 195.36C415.009 194.764 415.461 194.241 416.001 193.821C416.599 193.465 417.24 193.187 417.909 192.994C417.696 192.96 417.478 192.978 417.273 193.045C416.777 193.148 416.308 193.352 415.893 193.643C415.473 193.935 415.127 194.32 414.882 194.769C414.761 194.944 414.689 195.148 414.672 195.36Z" fill="#263238"/>
<path d="M406.569 187.62C406.569 187.62 406.569 187.703 406.633 187.862C406.697 188.021 406.766 188.262 406.862 188.536C407.072 189.172 407.358 189.986 407.714 191.01C408.07 192.034 408.503 193.306 409.113 194.642C409.724 195.977 410.443 197.415 411.314 198.871C412.128 200.25 413.166 201.484 414.386 202.522C415.38 203.37 416.495 204.067 417.693 204.589C418.505 204.938 419.361 205.175 420.237 205.295C420.473 205.33 420.711 205.353 420.949 205.365C421.115 205.365 421.197 205.365 421.197 205.365C421.197 205.365 420.86 205.326 420.25 205.218C419.394 205.065 418.561 204.806 417.769 204.449C415.153 203.24 412.971 201.258 411.517 198.769C410.652 197.325 409.953 195.869 409.31 194.565C408.668 193.261 408.255 192.021 407.867 190.965C407.479 189.91 407.18 189.089 406.951 188.511L406.684 187.875C406.655 187.786 406.616 187.701 406.569 187.62Z" fill="#263238"/>
<path d="M410.105 178.347C410.105 178.411 411.047 178.754 412.122 179.397C413.196 180.039 413.966 180.707 414.03 180.669C412.989 179.524 411.629 178.72 410.125 178.36L410.105 178.347Z" fill="#263238"/>
<path d="M419.461 208.315C419.664 208.439 419.876 208.546 420.097 208.633C420.307 208.735 420.561 208.85 420.86 208.964C421.159 209.079 421.496 209.231 421.89 209.352C422.79 209.672 423.707 209.94 424.638 210.153C425.781 210.406 426.939 210.588 428.104 210.7C429.272 210.797 430.444 210.818 431.615 210.764C432.57 210.719 433.521 210.62 434.464 210.465C434.865 210.408 435.227 210.325 435.539 210.262C435.851 210.198 436.13 210.128 436.347 210.071C436.578 210.019 436.806 209.951 437.027 209.867C436.792 209.891 436.558 209.932 436.328 209.988C436.111 210.033 435.838 210.09 435.52 210.141C435.202 210.192 434.839 210.268 434.439 210.312C433.498 210.447 432.552 210.532 431.602 210.567C430.442 210.605 429.28 210.575 428.123 210.478C426.967 210.37 425.818 210.196 424.682 209.956C423.756 209.754 422.841 209.504 421.941 209.206C421.547 209.091 421.21 208.958 420.905 208.85C420.599 208.742 420.345 208.64 420.135 208.557C419.916 208.461 419.691 208.381 419.461 208.315Z" fill="#263238"/>
<path d="M429.478 214.72C430.333 214.61 431.173 214.396 431.977 214.084C432.804 213.847 433.598 213.509 434.343 213.079C434.343 213.022 433.249 213.429 431.907 213.874C430.565 214.319 429.465 214.663 429.478 214.72Z" fill="#263238"/>
<g opacity="0.3">
<path d="M438.891 203.723C436.073 204.28 433.177 204.324 430.343 203.851C429.314 203.539 428.238 203.41 427.163 203.469C426.312 203.676 425.489 203.988 424.715 204.398C423.251 204.999 421.662 205.229 420.088 205.066C418.514 204.903 417.005 204.352 415.696 203.463C416.156 204.342 416.82 205.098 417.632 205.668C418.445 206.237 419.381 206.604 420.365 206.738C422.332 206.988 424.33 206.81 426.222 206.217C427.348 205.849 428.514 205.614 429.695 205.517C431.196 205.479 432.665 205.969 434.147 205.994C435.885 206.044 437.592 205.529 439.012 204.525L438.891 203.723Z" fill="black"/>
</g>
<g opacity="0.3">
<path d="M434.007 213.518C433.375 214.58 432.502 215.478 431.459 216.141C430.416 216.804 429.233 217.212 428.003 217.334C427.472 217.401 426.933 217.358 426.419 217.207C426.162 217.131 425.923 217.004 425.718 216.832C425.512 216.66 425.344 216.448 425.224 216.208C425.794 215.843 426.425 215.582 427.087 215.439L433.937 213.563" fill="black"/>
</g>
<path d="M437.734 194.133C437.567 194.338 437.382 194.527 437.18 194.699C436.812 195.055 436.277 195.564 435.648 196.212C435.018 196.861 434.268 197.662 433.352 198.457C432.436 199.252 431.393 200.073 430.293 200.925C429.258 201.735 428.172 202.479 427.043 203.151C426.117 203.703 425.136 204.157 424.117 204.506C423.43 204.739 422.723 204.912 422.005 205.021C421.745 205.067 421.481 205.082 421.217 205.065C422.173 204.864 423.116 204.605 424.041 204.289C425.032 203.912 425.986 203.444 426.89 202.89C427.991 202.209 429.053 201.466 430.07 200.664C431.17 199.812 432.22 199.004 433.129 198.228C434.039 197.452 434.802 196.683 435.463 196.047C436.125 195.411 436.684 194.928 437.079 194.603C437.277 194.42 437.497 194.262 437.734 194.133Z" fill="#EB996E"/>
</svg>
