<svg xmlns="http://www.w3.org/2000/svg" viewBox="0 0 598.58 193.13"><defs><style>.cls-1{fill:#018755;}</style></defs><g id="Layer_2"><g id="Layer_1-2"><path class="cls-1" d="M271,68.63V89.24h33.23V108.4H271v22.35h37.59v19.88H246.21V48.75h62.41V68.63Z"/><path class="cls-1" d="M341.56,148a32.66,32.66,0,0,1-14.15-10.74,29.4,29.4,0,0,1-5.59-17.13h26.42q.57,5.67,3.91,8.64a12.62,12.62,0,0,0,8.71,3c3.68,0,6.58-.84,8.71-2.54a8.47,8.47,0,0,0,3.19-7,8.33,8.33,0,0,0-2.54-6.24,20.44,20.44,0,0,0-6.24-4.07,101.74,101.74,0,0,0-10.52-3.63,114.58,114.58,0,0,1-16.11-6.09,29.73,29.73,0,0,1-10.74-9q-4.5-6-4.5-15.53,0-14.22,10.31-22.28t26.85-8.05q16.83,0,27.13,8.05t11,22.43H370.59A10.56,10.56,0,0,0,367,70a12.83,12.83,0,0,0-8.57-2.83,10.64,10.64,0,0,0-7.25,2.4,8.61,8.61,0,0,0-2.76,6.89q0,4.94,4.65,7.69t14.51,6a134.12,134.12,0,0,1,16,6.39,30.5,30.5,0,0,1,10.66,8.85q4.5,5.81,4.5,15a29.36,29.36,0,0,1-4.43,15.82,31,31,0,0,1-12.84,11.32q-8.42,4.22-19.88,4.21A52.39,52.39,0,0,1,341.56,148Z"/><path class="cls-1" d="M438.8,131.47h32.51v19.16H414V48.75H438.8Z"/><path class="cls-1" d="M598.58,48.75V150.63H573.77V89.53L551,150.63H531L508,89.39v61.24H483.21V48.75h29.31l28.59,70.53,28.3-70.53Z"/><rect class="cls-1" x="94.61" width="27.58" height="154.25"/><path class="cls-1" d="M132.46,0V27.6h55.16V55.19H132.46V82.77h55.16v27.58H132.46v27.58h55.16v27.6h-160V82.77H82.74V0H0V193.11H187.62l27.38,0L215.21,0ZM27.58,27.6H55.16V55.19H27.58Z"/></g></g></svg>