<svg xmlns="http://www.w3.org/2000/svg" viewBox="0 0 653.33 196.5"><defs><style>.cls-1{fill:#018755;}</style></defs><g id="Layer_2" data-name="Layer 2"><g id="Layer_1-2" data-name="Layer 1"><rect class="cls-1" x="530.63" width="28.06" height="156.93"/><path class="cls-1" d="M569.14,0V28.09h56.12V56.15H569.14V84.21h56.12v28.06H569.14v28.06h56.12v28.08H462.43V84.21h56.13V0H434.37V196.48H625.26l27.86,0L653.33,0ZM462.43,28.09h28.06V56.15H462.43Z"/><path class="cls-1" d="M29.2,128.13q-5.71,0-8,2.28c-1.52,1.52-2.29,4-2.29,7.49v30.85H0V131.68a22.09,22.09,0,0,1,1.9-9.58,15,15,0,0,1,5.59-6.35A18.68,18.68,0,0,1,16.38,113h.25A46.77,46.77,0,0,1,13.2,95.38a42.83,42.83,0,0,1,1.91-12.06,44.18,44.18,0,0,1,4.57-10.79,55,55,0,0,1,12.69-5.27,46.53,46.53,0,0,1,12.44-2,35.18,35.18,0,0,1,8.25.95A35.84,35.84,0,0,1,60.55,69a26.62,26.62,0,0,1,11,10.54,31.09,31.09,0,0,1,3.93,15.74,37.67,37.67,0,0,1-.57,6.54,33,33,0,0,1-1.84,6.41,12.86,12.86,0,0,0,5.27,3.61,22.15,22.15,0,0,0,7.55,1.08h.63c.43,0,.64.18.64.51v14.09a.56.56,0,0,1-.64.64h-.63a32,32,0,0,1-11.62-1.91,26.06,26.06,0,0,1-9.33-6.6A33.18,33.18,0,0,1,53.89,126a39.77,39.77,0,0,1-13,2.16ZM30.72,98a34.72,34.72,0,0,0,.76,6.92,68.41,68.41,0,0,0,2.16,7.93h4.82a17.84,17.84,0,0,0,15.62-8.69,17.08,17.08,0,0,0,2.41-9q0-6.85-3.3-10.79a10.88,10.88,0,0,0-8.76-3.94,20.33,20.33,0,0,0-5.78.89,27.3,27.3,0,0,0-6,2.67,57.07,57.07,0,0,0-1.39,6.79A49.6,49.6,0,0,0,30.72,98Z"/><path class="cls-1" d="M108.28,112.89c.42,0,.64.18.64.51v14.09a.57.57,0,0,1-.64.64h-23a.56.56,0,0,1-.63-.64V113.4c0-.33.21-.51.63-.51Z"/><path class="cls-1" d="M130,112.89c.42,0,.63.18.63.51v14.09a.56.56,0,0,1-.63.64H107a.56.56,0,0,1-.63-.64V113.4c0-.33.21-.51.63-.51Z"/><path class="cls-1" d="M151.69,112.89c.43,0,.64.18.64.51v14.09a.56.56,0,0,1-.64.64h-23a.57.57,0,0,1-.64-.64V113.4c0-.33.22-.51.64-.51Z"/><path class="cls-1" d="M150.43,128.13a.56.56,0,0,1-.64-.64V113.4c0-.33.21-.51.64-.51h15.86V31.65h18.92v81.24h16.5c.42,0,.63.18.63.51v14.09a.56.56,0,0,1-.63.64Z"/><path class="cls-1" d="M223.42,112.89c.42,0,.63.18.63.51v14.09a.56.56,0,0,1-.63.64h-23a.56.56,0,0,1-.63-.64V113.4c0-.33.21-.51.63-.51Z"/><path class="cls-1" d="M245.13,112.89c.42,0,.63.18.63.51v14.09a.56.56,0,0,1-.63.64h-23a.57.57,0,0,1-.64-.64V113.4c0-.33.22-.51.64-.51Z"/><path class="cls-1" d="M334.74,128.13a23.54,23.54,0,0,1-10.4-2.41,34.49,34.49,0,0,1-9.53-7.11,22.89,22.89,0,0,1-8.82,7.11,29.61,29.61,0,0,1-12.37,2.41H243.85a.56.56,0,0,1-.63-.64V113.4c0-.33.21-.51.63-.51h15.87V75.19h18.92v37.7h10.78c4.24,0,7.32-1.16,9.27-3.49s2.92-6.07,2.92-11.23v-23h18.92v24.5c0,1,0,2-.07,2.92a22,22,0,0,1-.31,2.79,20.47,20.47,0,0,0,6.22,5.84,16.74,16.74,0,0,0,8,1.65h7.87V65.29h18.92v62.84Z"/><path class="cls-1" d="M384.63,31.65h18.92v96.48H384.63Z"/></g></g></svg>