<svg width="390" height="318" viewBox="0 0 390 318" fill="none" xmlns="http://www.w3.org/2000/svg">
<path d="M0 269.272H390V269.467H0V269.272Z" fill="#E0E0E0"/>
<path d="M304.652 278.624H349.713V278.819H304.652V278.624Z" fill="#E0E0E0"/>
<path d="M206.185 274.389H226.715V274.584H206.185V274.389Z" fill="#E0E0E0"/>
<path d="M158.683 274.287H198.682V274.482H158.683V274.287Z" fill="#E0E0E0"/>
<path d="M82.5478 276.627H92.29V276.822H82.5478V276.627Z" fill="#E0E0E0"/>
<path d="M125.931 276.627H164.791V276.822H125.931V276.627Z" fill="#E0E0E0"/>
<path d="M289.38 278.624H297.102V278.819H289.38V278.624Z" fill="#E0E0E0"/>
<path d="M42.4476 276.627H76.1826V276.822H42.4476V276.627Z" fill="#E0E0E0"/>
<path d="M205.14 234.484H355.75C356.93 234.482 358.061 234.012 358.895 233.177C359.728 232.342 360.196 231.21 360.196 230.03V18.3147C360.186 17.1416 359.713 16.0199 358.881 15.1933C358.048 14.3667 356.923 13.9019 355.75 13.8999H205.14C203.959 13.8999 202.826 14.3691 201.991 15.2044C201.156 16.0396 200.686 17.1725 200.686 18.3537V230.03C200.686 231.211 201.156 232.344 201.991 233.179C202.826 234.015 203.959 234.484 205.14 234.484ZM355.75 14.0559C356.878 14.058 357.96 14.5076 358.757 15.306C359.554 16.1045 360.001 17.1865 360.001 18.3147V230.03C360.001 231.158 359.554 232.24 358.757 233.039C357.96 233.837 356.878 234.287 355.75 234.289H205.14C204.011 234.287 202.929 233.837 202.131 233.039C201.333 232.241 200.883 231.159 200.881 230.03V18.3147C200.883 17.1858 201.333 16.1038 202.131 15.3056C202.929 14.5073 204.011 14.058 205.14 14.0559H355.75Z" fill="#E0E0E0"/>
<path d="M36.4184 234.484H187.036C188.217 234.482 189.349 234.012 190.183 233.177C191.018 232.342 191.488 231.211 191.49 230.03V18.3147C191.478 17.1409 191.003 16.0192 190.17 15.1928C189.336 14.3664 188.21 13.9019 187.036 13.8999H36.4184C35.2467 13.904 34.1237 14.3697 33.2929 15.1961C32.4621 16.0224 31.9905 17.1429 31.9802 18.3147V230.03C31.9802 231.209 32.4473 232.339 33.2792 233.174C34.1111 234.009 35.2399 234.48 36.4184 234.484ZM187.036 14.0559C188.165 14.058 189.247 14.5073 190.046 15.3056C190.844 16.1038 191.293 17.1858 191.295 18.3147V230.03C191.293 231.159 190.844 232.241 190.046 233.039C189.247 233.837 188.165 234.287 187.036 234.289H36.4184C35.2896 234.287 34.2075 233.837 33.4093 233.039C32.6111 232.241 32.1617 231.159 32.1597 230.03V18.3147C32.1617 17.1858 32.6111 16.1038 33.4093 15.3056C34.2075 14.5073 35.2896 14.058 36.4184 14.0559H187.036Z" fill="#E0E0E0"/>
<path d="M330.237 77.7118C333.637 70.3642 330.939 65.1382 322.632 65.1382C317.413 65.1382 310.932 67.1974 304.692 70.5436C303.974 68.6326 301.977 67.4938 298.756 67.4938C293.085 67.4938 285.262 71.0272 279.131 76.0192C277.241 74.7588 275.015 74.0957 272.743 74.116C267.283 73.8898 260.746 75.9256 255.029 79.2328C254.693 78.915 254.297 78.6673 253.865 78.5039C253.432 78.3405 252.972 78.2648 252.51 78.2812C249.39 78.1564 245.154 80.2078 243.048 82.8598C242.916 83.0314 242.806 83.1874 242.689 83.3512H331.89C332.067 82.3473 332.009 81.3163 331.722 80.3383C331.436 79.3602 330.927 78.4614 330.237 77.7118Z" fill="#F5F5F5"/>
<path d="M229.07 42.7599C228.795 42.7285 228.519 42.7129 228.243 42.7131C228.501 39.8427 227.011 38.0331 223.836 38.0331C221.543 38.0331 218.735 38.9925 215.865 40.6149C216.684 35.0457 214.063 31.4187 208.111 31.4187C203.314 31.4187 197.246 33.7587 191.248 37.6587C190.725 35.4747 188.955 34.1643 185.983 34.1643C180.772 34.1643 173.355 38.2047 167.411 43.9143C165.833 42.4965 163.784 41.7178 161.662 41.7303C156.694 41.4729 150.532 43.7973 145.064 47.5881C144.803 47.2368 144.461 46.954 144.067 46.7638C143.673 46.5736 143.239 46.4818 142.802 46.4961C140.088 46.3635 136.344 48.4461 134.175 51.2463H233.438C235.77 46.9641 233.914 43.2513 229.07 42.7599Z" fill="#F5F5F5"/>
<path d="M95.9397 30.5996C98.1237 25.9196 96.3843 22.5266 91.0569 22.5266C87.7107 22.5266 83.5611 23.8448 79.5207 25.9976C79.0683 24.773 77.7813 24.032 75.7143 24.032C72.0717 24.032 67.0563 26.3096 63.1251 29.492C61.9099 28.6853 60.4808 28.2614 59.0223 28.2752C55.5435 28.127 51.3237 29.4296 47.6577 31.559C47.4433 31.3537 47.19 31.1934 46.9127 31.0876C46.6354 30.9818 46.3397 30.9325 46.0431 30.9428C44.8817 30.9847 43.7417 31.2678 42.6957 31.774C41.6496 32.2803 40.7203 32.9986 39.9669 33.8834L39.7329 34.1954H98.6619C100.526 32.5418 98.4669 30.6776 95.9397 30.5996Z" fill="#F5F5F5"/>
<path d="M293.896 184.345H320.463V269.272H293.896V184.345Z" fill="#EBEBEB"/>
<path d="M302.578 269.272H259.015V154.791H302.578V269.272Z" fill="#F5F5F5"/>
<path d="M236.402 154.791H259.015V269.272H236.402V154.791Z" fill="#EBEBEB"/>
<path d="M296.72 154.791H259.015V143.411H296.72V154.791Z" fill="#F5F5F5"/>
<path d="M296.72 154.791H259.015V152.233H296.72V154.791Z" fill="#EBEBEB"/>
<path d="M242.268 143.411H259.015V154.791H242.268V143.411Z" fill="#EBEBEB"/>
<path d="M290.862 143.411H259.022V132.031H290.862V143.411Z" fill="#F5F5F5"/>
<path d="M290.862 143.411H259.022V140.853H290.862V143.411Z" fill="#EBEBEB"/>
<path d="M248.126 132.031H259.015V143.411H248.126V132.031Z" fill="#EBEBEB"/>
<path d="M268.437 116.135H270.551V132.039H268.437V116.135Z" fill="#EBEBEB"/>
<path d="M243.625 269.272H211.809V174.697H243.625V269.272Z" fill="#F5F5F5"/>
<path d="M195.296 174.697H211.809V269.272H195.296V174.697Z" fill="#EBEBEB"/>
<path d="M203.557 201.716L179.431 222.402V269.272H203.557V201.716Z" fill="#F5F5F5"/>
<path d="M166.905 222.394H179.424V269.264H166.905V222.394Z" fill="#EBEBEB"/>
<path d="M166.904 222.402H179.431L203.557 201.716H191.03L166.904 222.402Z" fill="#EBEBEB"/>
<path d="M53.8203 269.272C53.4857 267.398 52.6893 265.637 51.5031 264.149C50.3169 262.66 48.7783 261.491 47.0265 260.747C48.5644 263.311 49.2625 266.292 49.0233 269.272H53.8203Z" fill="#EBEBEB"/>
<path d="M278.826 269.272C279.161 267.398 279.957 265.637 281.144 264.149C282.33 262.66 283.868 261.491 285.62 260.747C284.082 263.311 283.384 266.292 283.623 269.272H278.826Z" fill="#EBEBEB"/>
<path d="M334.535 269.272C334.535 269.272 334.917 259.288 339.09 256.386C337.382 260.466 337.74 269.272 337.74 269.272H334.535Z" fill="#EBEBEB"/>
<path d="M336.102 269.272C336.102 269.272 335.719 263.539 331.546 261.877C333.255 264.217 332.88 269.272 332.88 269.272H336.102Z" fill="#EBEBEB"/>
<path d="M275.254 269.272C275.254 269.272 275.675 259.818 283.241 256.386C279.856 261.238 280.051 269.272 280.051 269.272H275.254Z" fill="#EBEBEB"/>
<path d="M88.694 256.48H107.812C108.019 256.48 108.217 256.398 108.363 256.251C108.51 256.105 108.592 255.907 108.592 255.7V236.605C108.592 236.399 108.51 236.2 108.363 236.054C108.217 235.908 108.019 235.825 107.812 235.825H88.694C88.4871 235.825 88.2887 235.908 88.1425 236.054C87.9962 236.2 87.914 236.399 87.914 236.605V255.7C87.914 255.907 87.9962 256.105 88.1425 256.251C88.2887 256.398 88.4871 256.48 88.694 256.48ZM107.032 254.92H89.474V237.385H107.032V254.92Z" fill="#E0E0E0"/>
<path d="M88.694 237.386H107.812C108.019 237.386 108.217 237.303 108.363 237.157C108.51 237.011 108.592 236.812 108.592 236.606V217.48C108.592 217.273 108.51 217.075 108.363 216.928C108.217 216.782 108.019 216.7 107.812 216.7H88.694C88.4871 216.7 88.2887 216.782 88.1425 216.928C87.9962 217.075 87.914 217.273 87.914 217.48V236.606C87.914 236.812 87.9962 237.011 88.1425 237.157C88.2887 237.303 88.4871 237.386 88.694 237.386ZM107.032 235.826H89.474V218.26H107.032V235.826Z" fill="#E0E0E0"/>
<path d="M88.6937 256.48C88.8995 256.477 89.0957 256.393 89.2397 256.246L108.365 237.128C108.512 236.981 108.595 236.782 108.595 236.574C108.595 236.366 108.512 236.167 108.365 236.02C108.218 235.874 108.019 235.791 107.812 235.791C107.604 235.791 107.405 235.874 107.258 236.02L88.1399 255.177C87.9947 255.323 87.9131 255.521 87.9131 255.727C87.9131 255.933 87.9947 256.131 88.1399 256.277C88.2909 256.414 88.4897 256.487 88.6937 256.48Z" fill="#E0E0E0"/>
<path d="M88.6934 237.385C88.898 237.385 89.0941 237.303 89.2394 237.159L108.365 218.034C108.51 217.887 108.592 217.69 108.592 217.484C108.592 217.278 108.51 217.08 108.365 216.934C108.292 216.861 108.206 216.803 108.111 216.763C108.016 216.724 107.914 216.703 107.811 216.703C107.708 216.703 107.606 216.724 107.511 216.763C107.416 216.803 107.33 216.861 107.257 216.934L88.1396 236.052C88.0296 236.161 87.9546 236.3 87.9241 236.452C87.8936 236.604 87.9091 236.761 87.9685 236.905C88.0279 237.048 88.1286 237.17 88.2577 237.255C88.3868 237.341 88.5384 237.386 88.6934 237.385Z" fill="#E0E0E0"/>
<path d="M88.694 218.26H107.812C108.019 218.26 108.217 218.178 108.363 218.031C108.51 217.885 108.592 217.687 108.592 217.48V198.362C108.592 198.155 108.51 197.957 108.363 197.81C108.217 197.664 108.019 197.582 107.812 197.582H88.694C88.4871 197.582 88.2887 197.664 88.1425 197.81C87.9962 197.957 87.914 198.155 87.914 198.362V217.48C87.914 217.687 87.9962 217.885 88.1425 218.031C88.2887 218.178 88.4871 218.26 88.694 218.26ZM107.032 216.7H89.474V199.142H107.032V216.7Z" fill="#E0E0E0"/>
<path d="M88.694 199.142H107.812C108.019 199.142 108.217 199.06 108.363 198.914C108.51 198.767 108.592 198.569 108.592 198.362V179.26C108.592 179.053 108.51 178.855 108.363 178.708C108.217 178.562 108.019 178.48 107.812 178.48H88.694C88.4871 178.48 88.2887 178.562 88.1425 178.708C87.9962 178.855 87.914 179.053 87.914 179.26V198.386C87.9201 198.588 88.005 198.781 88.1506 198.922C88.2962 199.063 88.4911 199.142 88.694 199.142ZM107.032 197.582H89.474V180.04H107.032V197.582Z" fill="#E0E0E0"/>
<path d="M88.6934 218.26C88.898 218.259 89.0941 218.178 89.2394 218.034L108.365 198.908C108.51 198.762 108.592 198.564 108.592 198.358C108.592 198.152 108.51 197.955 108.365 197.808C108.292 197.735 108.206 197.677 108.111 197.638C108.016 197.598 107.914 197.578 107.811 197.578C107.708 197.578 107.606 197.598 107.511 197.638C107.416 197.677 107.33 197.735 107.257 197.808L88.1396 216.934C87.9943 217.08 87.9128 217.278 87.9128 217.484C87.9128 217.69 87.9943 217.888 88.1396 218.034C88.2125 218.106 88.2989 218.163 88.3939 218.202C88.489 218.241 88.5907 218.261 88.6934 218.26Z" fill="#E0E0E0"/>
<path d="M88.6937 199.142C88.8995 199.139 89.0957 199.055 89.2397 198.908L108.365 179.79C108.512 179.643 108.595 179.444 108.595 179.237C108.595 179.029 108.512 178.83 108.365 178.683C108.218 178.536 108.019 178.453 107.812 178.453C107.604 178.453 107.405 178.536 107.258 178.683L88.1399 197.808C87.9947 197.955 87.9131 198.152 87.9131 198.358C87.9131 198.564 87.9947 198.762 88.1399 198.908C88.2122 198.982 88.2983 199.04 88.3934 199.081C88.4884 199.121 88.5905 199.142 88.6937 199.142Z" fill="#E0E0E0"/>
<path d="M88.694 180.04H107.812C108.019 180.04 108.217 179.958 108.363 179.811C108.51 179.665 108.592 179.467 108.592 179.26V160.111C108.592 159.904 108.51 159.706 108.363 159.559C108.217 159.413 108.019 159.331 107.812 159.331H88.694C88.4871 159.331 88.2887 159.413 88.1425 159.559C87.9962 159.706 87.914 159.904 87.914 160.111V179.26C87.914 179.467 87.9962 179.665 88.1425 179.811C88.2887 179.958 88.4871 180.04 88.694 180.04ZM107.032 178.48H89.474V160.891H107.032V178.48Z" fill="#E0E0E0"/>
<path d="M88.694 160.891H107.812C108.019 160.891 108.217 160.809 108.363 160.662C108.51 160.516 108.592 160.318 108.592 160.111V140.993C108.592 140.786 108.51 140.588 108.363 140.442C108.217 140.295 108.019 140.213 107.812 140.213H88.694C88.4871 140.213 88.2887 140.295 88.1425 140.442C87.9962 140.588 87.914 140.786 87.914 140.993V160.111C87.914 160.318 87.9962 160.516 88.1425 160.662C88.2887 160.809 88.4871 160.891 88.694 160.891ZM107.032 159.331H89.474V141.773H107.032V159.331Z" fill="#E0E0E0"/>
<path d="M88.6934 180.04C88.898 180.039 89.0941 179.958 89.2394 179.814L108.365 160.688C108.51 160.542 108.592 160.344 108.592 160.138C108.592 159.932 108.51 159.735 108.365 159.588C108.292 159.515 108.206 159.457 108.111 159.418C108.016 159.378 107.914 159.358 107.811 159.358C107.708 159.358 107.606 159.378 107.511 159.418C107.416 159.457 107.33 159.515 107.257 159.588L88.1396 178.683C88.0296 178.792 87.9546 178.931 87.9241 179.083C87.8936 179.235 87.9091 179.393 87.9685 179.536C88.0279 179.679 88.1286 179.801 88.2577 179.887C88.3868 179.972 88.5384 180.017 88.6934 180.017V180.04Z" fill="#E0E0E0"/>
<path d="M107.811 97.0088H126.937C127.144 97.0088 127.342 96.9266 127.488 96.7803C127.635 96.6341 127.717 96.4357 127.717 96.2288V77.0798C127.717 76.8729 127.635 76.6745 127.488 76.5283C127.342 76.382 127.144 76.2998 126.937 76.2998H107.811C107.604 76.2998 107.406 76.382 107.26 76.5283C107.113 76.6745 107.031 76.8729 107.031 77.0798V96.1976C107.027 96.3026 107.044 96.4074 107.081 96.5057C107.119 96.604 107.175 96.6937 107.248 96.7694C107.321 96.8452 107.409 96.9055 107.505 96.9466C107.602 96.9877 107.706 97.0089 107.811 97.0088ZM126.157 95.4488H108.591V77.8598H126.157V95.4488Z" fill="#E0E0E0"/>
<path d="M88.694 97.009H107.812C108.019 97.009 108.217 96.9268 108.363 96.7805C108.51 96.6343 108.592 96.4359 108.592 96.229C108.592 96.0221 108.51 95.8237 108.363 95.6775C108.217 95.5312 108.019 95.449 107.812 95.449H89.474V58.009C89.474 57.8021 89.3918 57.6037 89.2455 57.4575C89.0993 57.3112 88.9009 57.229 88.694 57.229C88.4871 57.229 88.2887 57.3112 88.1425 57.4575C87.9962 57.6037 87.914 57.8021 87.914 58.009V96.229C87.914 96.4359 87.9962 96.6343 88.1425 96.7805C88.2887 96.9268 88.4871 97.009 88.694 97.009Z" fill="#E0E0E0"/>
<path d="M107.811 97.0089C107.945 97.0098 108.076 96.9764 108.193 96.9118C108.31 96.8473 108.409 96.7538 108.479 96.6402C108.55 96.5267 108.59 96.3969 108.596 96.2635C108.602 96.13 108.573 95.9972 108.513 95.8779L89.3876 57.6579C89.2941 57.4741 89.1317 57.3349 88.9358 57.2706C88.74 57.2063 88.5266 57.2221 88.3424 57.3147C88.1574 57.4068 88.0164 57.5686 87.9506 57.7646C87.8848 57.9606 87.8995 58.1747 87.9914 58.3599L107.117 96.5799C107.182 96.7085 107.281 96.8167 107.404 96.8924C107.526 96.9681 107.667 97.0084 107.811 97.0089Z" fill="#E0E0E0"/>
<path d="M126.937 97.0088H146.055C146.262 97.0088 146.46 96.9266 146.606 96.7803C146.753 96.6341 146.835 96.4357 146.835 96.2288V77.0798C146.835 76.8729 146.753 76.6745 146.606 76.5283C146.46 76.382 146.262 76.2998 146.055 76.2998H126.937C126.73 76.2998 126.532 76.382 126.386 76.5283C126.239 76.6745 126.157 76.8729 126.157 77.0798V96.1976C126.153 96.3026 126.17 96.4074 126.207 96.5057C126.245 96.604 126.301 96.6937 126.374 96.7694C126.447 96.8452 126.535 96.9055 126.631 96.9466C126.728 96.9877 126.832 97.0089 126.937 97.0088ZM145.275 95.4488H127.717V77.8598H145.275V95.4488Z" fill="#E0E0E0"/>
<path d="M126.937 97.009C127.09 97.0068 127.238 96.9599 127.365 96.8741C127.491 96.7882 127.589 96.6672 127.647 96.526C127.705 96.3849 127.721 96.2297 127.692 96.0799C127.662 95.93 127.59 95.792 127.483 95.683L108.365 76.5574C108.293 76.4843 108.206 76.4263 108.111 76.3867C108.016 76.3471 107.914 76.3267 107.811 76.3267C107.708 76.3267 107.606 76.3471 107.511 76.3867C107.416 76.4263 107.33 76.4843 107.258 76.5574C107.112 76.7035 107.031 76.9012 107.031 77.1073C107.031 77.3134 107.112 77.511 107.258 77.6572L126.36 96.7828C126.435 96.8579 126.526 96.9168 126.625 96.9557C126.724 96.9946 126.83 97.0127 126.937 97.009Z" fill="#E0E0E0"/>
<path d="M69.568 97.0088H88.6936C88.9005 97.0088 89.0989 96.9266 89.2452 96.7803C89.3915 96.6341 89.4736 96.4357 89.4736 96.2288V77.0798C89.4736 76.8729 89.3915 76.6745 89.2452 76.5283C89.0989 76.382 88.9005 76.2998 88.6936 76.2998H69.568C69.3612 76.2998 69.1628 76.382 69.0165 76.5283C68.8702 76.6745 68.788 76.8729 68.788 77.0798V96.1976C68.7838 96.3026 68.8009 96.4074 68.8382 96.5057C68.8755 96.604 68.9323 96.6937 69.0052 96.7694C69.078 96.8452 69.1654 96.9055 69.2622 96.9466C69.3589 96.9877 69.4629 97.0089 69.568 97.0088ZM87.9136 95.4488H70.348V77.8598H87.9136V95.4488Z" fill="#E0E0E0"/>
<path d="M88.6938 97.009C88.8465 97.0068 88.9952 96.9599 89.1214 96.8741C89.2477 96.7882 89.346 96.6672 89.4041 96.5261C89.4623 96.3849 89.4777 96.2297 89.4485 96.0799C89.4193 95.93 89.3467 95.792 89.2398 95.683L70.122 76.5574C70.0495 76.4843 69.9633 76.4263 69.8682 76.3867C69.7732 76.3471 69.6712 76.3267 69.5682 76.3267C69.4653 76.3267 69.3633 76.3471 69.2683 76.3867C69.1732 76.4263 69.087 76.4843 69.0145 76.5574C68.8692 76.7035 68.7876 76.9012 68.7876 77.1073C68.7876 77.3134 68.8692 77.511 69.0145 77.6572L88.14 96.7828C88.2129 96.8551 88.2994 96.9123 88.3944 96.9511C88.4894 96.9899 88.5912 97.0096 88.6938 97.009Z" fill="#E0E0E0"/>
<path d="M203.424 97.0088C203.527 97.0094 203.629 96.9897 203.724 96.9509C203.819 96.9121 203.905 96.8549 203.978 96.7826C204.124 96.6364 204.205 96.4388 204.205 96.2327C204.205 96.0266 204.124 95.8289 203.978 95.6828L184.86 76.5572C184.754 76.4457 184.615 76.3718 184.463 76.3466L88.8425 57.221C88.7171 57.1959 88.5876 57.202 88.4652 57.2387C88.3428 57.2754 88.2313 57.3417 88.1405 57.4316L49.9205 95.6516C49.8388 95.7215 49.7725 95.8076 49.7257 95.9043C49.6789 96.0011 49.6526 96.1065 49.6484 96.2139C49.6443 96.3214 49.6624 96.4285 49.7016 96.5286C49.7408 96.6287 49.8003 96.7196 49.8763 96.7956C49.9523 96.8716 50.0432 96.9311 50.1433 96.9703C50.2434 97.0095 50.3505 97.0276 50.4579 97.0235C50.5654 97.0193 50.6707 96.993 50.7675 96.9462C50.8643 96.8994 50.9503 96.833 51.0203 96.7514L88.9205 58.8356L183.917 77.8598L202.878 96.8138C203.029 96.9465 203.224 97.0164 203.424 97.0088Z" fill="#E0E0E0"/>
<path d="M146.055 97.0088C146.158 97.0094 146.26 96.9897 146.355 96.9509C146.45 96.9121 146.536 96.8549 146.609 96.7826C146.754 96.6364 146.836 96.4387 146.836 96.2327C146.836 96.0266 146.754 95.8289 146.609 95.6828L127.484 76.5572C127.334 76.4294 127.142 76.3626 126.946 76.3702C126.75 76.3778 126.564 76.4592 126.425 76.5981C126.286 76.737 126.204 76.9232 126.197 77.1195C126.189 77.3158 126.256 77.5078 126.384 77.657L145.509 96.7826C145.655 96.9267 145.851 97.0079 146.055 97.0088Z" fill="#E0E0E0"/>
<path d="M146.055 97.0088H165.181C165.388 97.0088 165.586 96.9266 165.732 96.7803C165.879 96.6341 165.961 96.4357 165.961 96.2288V77.0798C165.961 76.8729 165.879 76.6745 165.732 76.5283C165.586 76.382 165.388 76.2998 165.181 76.2998H146.055C145.848 76.2998 145.65 76.382 145.504 76.5283C145.358 76.6745 145.275 76.8729 145.275 77.0798V96.1976C145.271 96.3026 145.288 96.4074 145.326 96.5057C145.363 96.604 145.42 96.6937 145.492 96.7694C145.565 96.8452 145.653 96.9055 145.749 96.9466C145.846 96.9877 145.95 97.0089 146.055 97.0088ZM164.401 95.4488H146.835V77.8598H164.401V95.4488Z" fill="#E0E0E0"/>
<path d="M165.18 97.0088H184.306C184.513 97.0088 184.711 96.9266 184.857 96.7803C185.004 96.6341 185.086 96.4357 185.086 96.2288V77.0798C185.086 76.8729 185.004 76.6745 184.857 76.5283C184.711 76.382 184.513 76.2998 184.306 76.2998H165.18C164.973 76.2998 164.775 76.382 164.629 76.5283C164.483 76.6745 164.4 76.8729 164.4 77.0798V96.1976C164.396 96.3026 164.413 96.4074 164.451 96.5057C164.488 96.604 164.545 96.6937 164.617 96.7694C164.69 96.8452 164.778 96.9055 164.874 96.9466C164.971 96.9877 165.075 97.0089 165.18 97.0088ZM183.526 95.4488H165.96V77.8598H183.526V95.4488Z" fill="#E0E0E0"/>
<path d="M165.18 97.0088C165.283 97.0094 165.385 96.9897 165.48 96.9509C165.575 96.9121 165.661 96.8549 165.734 96.7826C165.879 96.6364 165.961 96.4387 165.961 96.2327C165.961 96.0266 165.879 95.8289 165.734 95.6828L146.64 76.5572C146.491 76.4294 146.299 76.3626 146.102 76.3702C145.906 76.3778 145.72 76.4592 145.581 76.5981C145.442 76.737 145.361 76.9232 145.353 77.1195C145.345 77.3158 145.412 77.5078 145.54 77.657L164.658 96.7826C164.797 96.9211 164.984 97.0019 165.18 97.0088Z" fill="#E0E0E0"/>
<path d="M184.306 97.009C184.459 97.0068 184.608 96.9599 184.734 96.8741C184.86 96.7882 184.958 96.6672 185.016 96.5261C185.075 96.3849 185.09 96.2297 185.061 96.0799C185.032 95.93 184.959 95.792 184.852 95.683L165.734 76.5574C165.662 76.4843 165.576 76.4263 165.481 76.3867C165.385 76.3471 165.284 76.3267 165.181 76.3267C165.078 76.3267 164.976 76.3471 164.881 76.3867C164.786 76.4263 164.699 76.4843 164.627 76.5574C164.481 76.7035 164.4 76.9012 164.4 77.1073C164.4 77.3134 164.481 77.511 164.627 77.6572L183.752 96.7828C183.825 96.8551 183.912 96.9123 184.007 96.9511C184.102 96.9899 184.204 97.0096 184.306 97.009Z" fill="#E0E0E0"/>
<path d="M184.306 97.0088H203.424C203.631 97.0088 203.829 96.9266 203.976 96.7803C204.122 96.6341 204.204 96.4357 204.204 96.2288C204.204 96.0219 204.122 95.8235 203.976 95.6773C203.829 95.531 203.631 95.4488 203.424 95.4488H185.086V77.0798C185.086 76.8729 185.004 76.6745 184.858 76.5283C184.712 76.382 184.513 76.2998 184.306 76.2998C184.099 76.2998 183.901 76.382 183.755 76.5283C183.608 76.6745 183.526 76.8729 183.526 77.0798V96.1976C183.522 96.3026 183.539 96.4074 183.576 96.5057C183.614 96.604 183.671 96.6937 183.743 96.7694C183.816 96.8452 183.904 96.9055 184 96.9466C184.097 96.9877 184.201 97.0089 184.306 97.0088Z" fill="#E0E0E0"/>
<path d="M88.6937 160.891C88.8984 160.89 89.0945 160.809 89.2397 160.665L108.365 141.547C108.438 141.474 108.496 141.388 108.535 141.293C108.574 141.198 108.595 141.096 108.595 140.993C108.595 140.89 108.574 140.788 108.535 140.693C108.496 140.598 108.438 140.512 108.365 140.439C108.293 140.367 108.206 140.309 108.111 140.27C108.016 140.23 107.914 140.21 107.812 140.21C107.709 140.21 107.607 140.23 107.512 140.27C107.417 140.309 107.33 140.367 107.258 140.439L88.1399 159.565C87.9947 159.711 87.9131 159.909 87.9131 160.115C87.9131 160.321 87.9947 160.519 88.1399 160.665C88.2128 160.737 88.2992 160.794 88.3943 160.833C88.4893 160.872 88.5911 160.892 88.6937 160.891Z" fill="#E0E0E0"/>
<path d="M88.694 141.773H107.812C108.019 141.773 108.217 141.691 108.363 141.545C108.51 141.398 108.592 141.2 108.592 140.993V121.867C108.592 121.661 108.51 121.462 108.363 121.316C108.217 121.17 108.019 121.087 107.812 121.087H88.694C88.4871 121.087 88.2887 121.17 88.1425 121.316C87.9962 121.462 87.914 121.661 87.914 121.867V140.993C87.914 141.2 87.9962 141.398 88.1425 141.545C88.2887 141.691 88.4871 141.773 88.694 141.773ZM107.032 140.213H89.474V122.647H107.032V140.213Z" fill="#E0E0E0"/>
<path d="M88.694 122.648H107.812C108.019 122.648 108.217 122.565 108.363 122.419C108.51 122.273 108.592 122.074 108.592 121.868V102.75C108.592 102.543 108.51 102.344 108.363 102.198C108.217 102.052 108.019 101.97 107.812 101.97H88.694C88.4871 101.97 88.2887 102.052 88.1425 102.198C87.9962 102.344 87.914 102.543 87.914 102.75V121.868C87.914 122.074 87.9962 122.273 88.1425 122.419C88.2887 122.565 88.4871 122.648 88.694 122.648ZM107.032 121.088H89.474V103.53H107.032V121.088Z" fill="#E0E0E0"/>
<path d="M88.6937 141.773C88.8984 141.772 89.0945 141.691 89.2397 141.547L108.365 122.421C108.438 122.348 108.496 122.262 108.535 122.167C108.574 122.072 108.595 121.97 108.595 121.867C108.595 121.765 108.574 121.663 108.535 121.568C108.496 121.473 108.438 121.386 108.365 121.314C108.293 121.241 108.206 121.183 108.111 121.144C108.016 121.104 107.914 121.084 107.812 121.084C107.709 121.084 107.607 121.104 107.512 121.144C107.417 121.183 107.33 121.241 107.258 121.314L88.1399 140.439C88.0299 140.548 87.9549 140.688 87.9244 140.84C87.894 140.992 87.9094 141.149 87.9688 141.292C88.0282 141.435 88.1289 141.557 88.258 141.643C88.3871 141.729 88.5388 141.774 88.6937 141.773Z" fill="#E0E0E0"/>
<path d="M88.6934 122.647C88.898 122.647 89.0941 122.565 89.2394 122.421L108.365 103.296C108.51 103.149 108.592 102.952 108.592 102.746C108.592 102.54 108.51 102.342 108.365 102.196C108.292 102.123 108.206 102.065 108.111 102.025C108.016 101.985 107.914 101.965 107.811 101.965C107.708 101.965 107.606 101.985 107.511 102.025C107.416 102.065 107.33 102.123 107.257 102.196L88.1396 121.314C88.0296 121.423 87.9546 121.562 87.9241 121.714C87.8936 121.866 87.9091 122.023 87.9685 122.167C88.0279 122.31 88.1286 122.432 88.2577 122.517C88.3868 122.603 88.5384 122.648 88.6934 122.647Z" fill="#E0E0E0"/>
<path d="M50.4424 96.229H203.424L184.306 102.75H50.4424V96.229Z" fill="#E0E0E0"/>
<path d="M50.4421 103.53H184.306C184.391 103.529 184.476 103.513 184.555 103.483L203.681 96.9699C203.858 96.9116 204.009 96.7917 204.106 96.6318C204.202 96.4719 204.238 96.2827 204.207 96.0986C204.176 95.9144 204.079 95.7476 203.936 95.6284C203.792 95.5091 203.61 95.4455 203.424 95.4489H50.4421C50.2353 95.4489 50.0369 95.531 49.8906 95.6773C49.7443 95.8236 49.6621 96.022 49.6621 96.2289V102.75C49.6621 102.957 49.7443 103.155 49.8906 103.301C50.0369 103.447 50.2353 103.53 50.4421 103.53ZM184.173 101.97H51.2221V97.0089H198.72L184.173 101.97Z" fill="#E0E0E0"/>
<path d="M121.969 129.574H107.812V99.4894H121.969V129.574Z" fill="#E0E0E0"/>
<path d="M121.976 99.4893H128.56V129.574H121.976V99.4893Z" fill="#F5F5F5"/>
<path d="M105.705 269.264H77.8281V255.723H105.705V269.264Z" fill="#E0E0E0"/>
<path d="M105.705 255.731H118.677V269.272H105.705V255.731Z" fill="#F5F5F5"/>
<path d="M69.5686 129.839C69.7755 129.839 69.9739 129.757 70.1202 129.611C70.2664 129.464 70.3486 129.266 70.3486 129.059V99.4892C70.3486 99.2824 70.2664 99.084 70.1202 98.9377C69.9739 98.7914 69.7755 98.7092 69.5686 98.7092C69.3618 98.7092 69.1634 98.7914 69.0171 98.9377C68.8708 99.084 68.7886 99.2824 68.7886 99.4892V129.059C68.7886 129.266 68.8708 129.464 69.0171 129.611C69.1634 129.757 69.3618 129.839 69.5686 129.839Z" fill="#E0E0E0"/>
<path d="M69.5686 133.427C70.0777 133.427 70.5753 133.276 70.9986 132.993C71.4219 132.71 71.7518 132.308 71.9466 131.838C72.1415 131.368 72.1924 130.85 72.0931 130.351C71.9938 129.852 71.7486 129.393 71.3887 129.033C71.0287 128.673 70.57 128.428 70.0707 128.329C69.5714 128.229 69.0539 128.28 68.5835 128.475C68.1132 128.67 67.7112 129 67.4284 129.423C67.1455 129.846 66.9946 130.344 66.9946 130.853C66.9946 131.191 67.0612 131.526 67.1905 131.838C67.3199 132.15 67.5094 132.434 67.7485 132.673C67.9875 132.912 68.2713 133.102 68.5835 133.231C68.8958 133.36 69.2305 133.427 69.5686 133.427ZM69.5686 129.839C69.7691 129.839 69.9652 129.899 70.1319 130.01C70.2987 130.121 70.4286 130.28 70.5054 130.465C70.5821 130.65 70.6022 130.854 70.5631 131.051C70.524 131.248 70.4274 131.428 70.2856 131.57C70.1438 131.712 69.9631 131.808 69.7664 131.848C69.5697 131.887 69.3658 131.867 69.1805 131.79C68.9952 131.713 68.8369 131.583 68.7255 131.416C68.614 131.25 68.5546 131.054 68.5546 130.853C68.5546 130.72 68.5808 130.588 68.6318 130.465C68.6827 130.342 68.7574 130.23 68.8516 130.136C68.9457 130.042 69.0575 129.967 69.1805 129.916C69.3035 129.865 69.4354 129.839 69.5686 129.839Z" fill="#E0E0E0"/>
<path d="M181.904 145.361C182.11 145.361 182.309 145.279 182.455 145.133C182.601 144.986 182.684 144.788 182.684 144.581V99.4892C182.684 99.2824 182.601 99.084 182.455 98.9377C182.309 98.7914 182.11 98.7092 181.904 98.7092C181.697 98.7092 181.498 98.7914 181.352 98.9377C181.206 99.084 181.124 99.2824 181.124 99.4892V144.581C181.124 144.788 181.206 144.986 181.352 145.133C181.498 145.279 181.697 145.361 181.904 145.361Z" fill="#E0E0E0"/>
<path d="M174.58 150.033C174.765 150.036 174.946 149.972 175.089 149.853C175.232 149.735 175.328 149.569 175.36 149.386C175.937 148.481 181.015 145.486 181.943 145.361C182.816 145.478 187.894 148.481 188.471 149.386C188.489 149.593 188.588 149.784 188.747 149.918C188.905 150.052 189.111 150.117 189.318 150.1C189.525 150.082 189.716 149.983 189.85 149.824C189.984 149.665 190.049 149.46 190.031 149.253C190.031 147.498 182.957 143.793 181.935 143.793C180.913 143.793 173.831 147.49 173.831 149.253C173.831 149.455 173.908 149.649 174.048 149.794C174.188 149.939 174.378 150.025 174.58 150.033Z" fill="#E0E0E0"/>
<path d="M166.14 206.412L154.698 194.969L157.139 190.289C156.928 189.821 156.733 189.353 156.554 188.87L151.539 187.31V171.148L156.554 169.588C156.741 169.112 156.928 168.636 157.139 168.168L154.705 163.488L166.14 152.069L170.82 154.503C171.288 154.292 171.756 154.097 172.232 153.918L173.792 148.902H189.993L191.553 153.918C192.028 154.097 192.496 154.292 192.964 154.503L197.644 152.069L209.04 163.504L206.599 168.184C206.817 168.652 207.004 169.128 207.192 169.604L212.207 171.164V187.341L207.192 188.901C207.004 189.384 206.817 189.852 206.607 190.32L209.04 195L197.598 206.443L192.918 204.002C192.45 204.212 191.974 204.407 191.498 204.587L189.938 209.602H173.753L172.193 204.587C171.717 204.407 171.249 204.212 170.781 204.002L166.14 206.412ZM173.355 187.746C175.039 189.431 177.185 190.579 179.521 191.044C181.858 191.509 184.28 191.271 186.481 190.36C188.681 189.448 190.563 187.905 191.886 185.924C193.21 183.943 193.916 181.615 193.916 179.233C193.916 176.85 193.21 174.522 191.886 172.541C190.563 170.561 188.681 169.017 186.481 168.106C184.28 167.194 181.858 166.956 179.521 167.421C177.185 167.886 175.039 169.034 173.355 170.719C172.238 171.838 171.352 173.167 170.749 174.629C170.145 176.091 169.836 177.658 169.839 179.239C169.842 180.821 170.157 182.386 170.766 183.846C171.374 185.306 172.265 186.631 173.386 187.746H173.355Z" fill="#E0E0E0"/>
<path d="M195 304.497C111.476 304.497 43.7659 300.544 43.7659 295.667C43.7659 290.791 111.476 286.838 195 286.838C278.525 286.838 346.234 290.791 346.234 295.667C346.234 300.544 278.525 304.497 195 304.497Z" fill="#F5F5F5"/>
<path d="M252.807 98.2571H262.541C262.986 98.2575 263.423 98.3744 263.809 98.596C264.195 98.8177 264.516 99.1365 264.741 99.5207L269.608 107.952C269.83 108.339 269.947 108.778 269.947 109.224C269.947 109.67 269.83 110.108 269.608 110.495L264.741 118.919C264.518 119.306 264.198 119.627 263.812 119.85C263.425 120.074 262.987 120.191 262.541 120.191H252.807C252.361 120.191 251.922 120.074 251.536 119.85C251.15 119.627 250.829 119.306 250.607 118.919L245.74 110.495C245.517 110.108 245.4 109.67 245.4 109.224C245.4 108.778 245.517 108.339 245.74 107.952L250.607 99.5207C250.832 99.1365 251.153 98.8177 251.539 98.596C251.924 98.3744 252.362 98.2575 252.807 98.2571Z" fill="#018755"/>
<path opacity="0.5" d="M252.807 98.2571H262.541C262.986 98.2575 263.423 98.3744 263.809 98.596C264.195 98.8177 264.516 99.1365 264.741 99.5207L269.608 107.952C269.83 108.339 269.947 108.778 269.947 109.224C269.947 109.67 269.83 110.108 269.608 110.495L264.741 118.919C264.518 119.306 264.198 119.627 263.812 119.85C263.425 120.074 262.987 120.191 262.541 120.191H252.807C252.361 120.191 251.922 120.074 251.536 119.85C251.15 119.627 250.829 119.306 250.607 118.919L245.74 110.495C245.517 110.108 245.4 109.67 245.4 109.224C245.4 108.778 245.517 108.339 245.74 107.952L250.607 99.5207C250.832 99.1365 251.153 98.8177 251.539 98.596C251.924 98.3744 252.362 98.2575 252.807 98.2571Z" fill="white"/>
<path d="M315.12 70.3174L315.674 69.7637L310.994 65.0837L310.44 65.6375L315.12 70.3174ZM307.063 62.26L307.616 61.7062L297.835 51.925L297.281 52.471L307.063 62.26Z" fill="#018755"/>
<path opacity="0.5" d="M315.12 70.3174L315.674 69.7637L310.994 65.0837L310.44 65.6375L315.12 70.3174ZM307.063 62.26L307.616 61.7062L297.835 51.925L297.281 52.471L307.063 62.26Z" fill="white"/>
<path d="M191.49 126.875V91.5724L202.41 88.1482C202.8 87.103 203.229 86.0734 203.682 85.0282L198.37 74.8882L223.33 49.9282L233.47 55.2478C234.492 54.7876 235.514 54.3586 236.59 53.9608L240.014 43.0408H275.34L278.757 53.9608C279.81 54.3586 280.832 54.7876 281.877 55.2478L292.017 49.9282L316.977 74.8882L311.657 85.0282C312.117 86.05 312.546 87.0718 312.936 88.1482L323.856 91.5724V126.875L312.936 130.292C312.539 131.337 312.11 132.366 311.657 133.412L316.977 143.552L292.017 168.512L281.877 163.192C280.863 163.652 279.841 164.081 278.757 164.479L275.34 175.399H240.038L236.613 164.479C235.568 164.081 234.546 163.652 233.493 163.192L223.353 168.512L198.393 143.552L203.713 133.412C203.261 132.398 202.824 131.368 202.434 130.292L191.49 126.875ZM231.403 109.216C231.403 114.412 232.944 119.491 235.83 123.811C238.717 128.131 242.82 131.498 247.62 133.487C252.42 135.475 257.703 135.995 262.799 134.982C267.895 133.968 272.575 131.466 276.249 127.792C279.923 124.118 282.425 119.437 283.439 114.341C284.453 109.245 283.932 103.963 281.944 99.1627C279.956 94.3624 276.589 90.2596 272.268 87.3729C267.948 84.4863 262.869 82.9456 257.673 82.9456C250.707 82.9476 244.026 85.7161 239.1 90.6423C234.174 95.5685 231.405 102.249 231.403 109.216Z" fill="#018755"/>
<path opacity="0.5" d="M191.49 126.875V91.5724L202.41 88.1482C202.8 87.103 203.229 86.0734 203.682 85.0282L198.37 74.8882L223.33 49.9282L233.47 55.2478C234.492 54.7876 235.514 54.3586 236.59 53.9608L240.014 43.0408H275.34L278.757 53.9608C279.81 54.3586 280.832 54.7876 281.877 55.2478L292.017 49.9282L316.977 74.8882L311.657 85.0282C312.117 86.05 312.546 87.0718 312.936 88.1482L323.856 91.5724V126.875L312.936 130.292C312.539 131.337 312.11 132.366 311.657 133.412L316.977 143.552L292.017 168.512L281.877 163.192C280.863 163.652 279.841 164.081 278.757 164.479L275.34 175.399H240.038L236.613 164.479C235.568 164.081 234.546 163.652 233.493 163.192L223.353 168.512L198.393 143.552L203.713 133.412C203.261 132.398 202.824 131.368 202.434 130.292L191.49 126.875ZM231.403 109.216C231.403 114.412 232.944 119.491 235.83 123.811C238.717 128.131 242.82 131.498 247.62 133.487C252.42 135.475 257.703 135.995 262.799 134.982C267.895 133.968 272.575 131.466 276.249 127.792C279.923 124.118 282.425 119.437 283.439 114.341C284.453 109.245 283.932 103.963 281.944 99.1627C279.956 94.3624 276.589 90.2596 272.268 87.3729C267.948 84.4863 262.869 82.9456 257.673 82.9456C250.707 82.9476 244.026 85.7161 239.1 90.6423C234.174 95.5685 231.405 102.249 231.403 109.216Z" fill="white"/>
<path d="M241.738 173.262H273.601C273.644 173.262 273.685 173.248 273.718 173.223C273.752 173.197 273.777 173.162 273.789 173.121L276.909 163.278C276.924 163.228 276.919 163.174 276.895 163.128C276.871 163.082 276.83 163.048 276.78 163.032C276.73 163.017 276.677 163.021 276.63 163.046C276.584 163.07 276.55 163.111 276.534 163.161L273.5 172.872H241.926L238.681 162.623C238.672 162.595 238.656 162.569 238.636 162.547C238.616 162.526 238.591 162.509 238.564 162.498L237.495 162.1C236.59 161.757 235.631 161.359 234.547 160.875L233.509 160.407C233.462 160.387 233.408 160.386 233.36 160.405C233.311 160.424 233.273 160.461 233.252 160.509C233.231 160.556 233.23 160.61 233.249 160.659C233.268 160.707 233.306 160.746 233.353 160.766L234.391 161.226C235.475 161.718 236.45 162.116 237.355 162.459L238.338 162.833L241.551 173.121C241.564 173.161 241.589 173.196 241.623 173.221C241.656 173.246 241.697 173.261 241.738 173.262ZM223.798 165.828C223.85 165.827 223.9 165.808 223.939 165.774C223.958 165.756 223.973 165.734 223.983 165.71C223.993 165.686 223.999 165.66 223.999 165.633C223.999 165.607 223.993 165.581 223.983 165.557C223.973 165.533 223.958 165.511 223.939 165.493L201.506 143.068L206.49 133.552C206.504 133.525 206.511 133.496 206.511 133.466C206.511 133.436 206.504 133.407 206.49 133.38L206.022 132.343C205.554 131.29 205.156 130.323 204.805 129.402L204.408 128.334C204.397 128.306 204.38 128.282 204.358 128.262C204.337 128.241 204.311 128.226 204.283 128.217L194.026 125.011V93.46L204.166 90.2932C204.194 90.2891 204.221 90.2789 204.244 90.2635C204.268 90.248 204.288 90.2275 204.303 90.2035C204.318 90.1795 204.328 90.1526 204.331 90.1245C204.335 90.0964 204.332 90.0679 204.323 90.041C204.315 90.014 204.3 89.9893 204.281 89.9684C204.262 89.9476 204.239 89.9312 204.213 89.9203C204.186 89.9094 204.158 89.9043 204.13 89.9054C204.102 89.9065 204.074 89.9137 204.049 89.9266L193.8 93.1246C193.761 93.1388 193.728 93.1642 193.704 93.1977C193.681 93.2311 193.668 93.2709 193.667 93.3118V125.175C193.667 125.216 193.679 125.256 193.703 125.29C193.727 125.324 193.761 125.349 193.8 125.362L204.072 128.56L204.439 129.543C204.79 130.471 205.219 131.438 205.671 132.507L206.092 133.458L201.093 143.013C201.068 143.046 201.055 143.086 201.055 143.127C201.055 143.167 201.068 143.207 201.093 143.24L223.619 165.774C223.667 165.813 223.729 165.833 223.791 165.828H223.798ZM291.557 165.828C291.609 165.827 291.658 165.808 291.697 165.774L314.224 143.24C314.246 143.206 314.258 143.167 314.258 143.127C314.258 143.086 314.246 143.047 314.224 143.013L309.177 133.373C309.152 133.327 309.111 133.293 309.062 133.277C309.012 133.261 308.959 133.265 308.912 133.287C308.889 133.299 308.87 133.316 308.853 133.336C308.837 133.356 308.825 133.379 308.818 133.403C308.811 133.428 308.808 133.454 308.811 133.479C308.814 133.505 308.822 133.529 308.834 133.552L313.81 143.068L291.385 165.493C291.367 165.511 291.352 165.533 291.341 165.557C291.331 165.581 291.326 165.607 291.326 165.633C291.326 165.66 291.331 165.686 291.341 165.71C291.352 165.734 291.367 165.756 291.385 165.774C291.408 165.794 291.434 165.809 291.462 165.818C291.49 165.827 291.52 165.831 291.549 165.828H291.557ZM278.297 162.326H278.367C279.147 162.022 279.997 161.663 280.941 161.242C280.969 161.235 280.995 161.222 281.017 161.204C281.039 161.186 281.057 161.164 281.069 161.138C281.082 161.113 281.089 161.085 281.089 161.056C281.09 161.028 281.084 161 281.072 160.974C281.061 160.948 281.044 160.924 281.022 160.906C281.001 160.887 280.975 160.873 280.948 160.865C280.921 160.858 280.892 160.856 280.864 160.86C280.836 160.865 280.809 160.875 280.785 160.891C279.849 161.304 279.015 161.671 278.227 161.96C278.203 161.969 278.18 161.983 278.162 162.001C278.143 162.02 278.128 162.041 278.118 162.065C278.108 162.089 278.102 162.115 278.102 162.141C278.102 162.167 278.108 162.193 278.118 162.217C278.134 162.254 278.162 162.284 278.197 162.304C278.232 162.324 278.273 162.331 278.313 162.326H278.297ZM257.658 138.037C265.303 138.023 272.63 134.976 278.03 129.565C283.431 124.154 286.464 116.822 286.464 109.177C286.464 109.125 286.443 109.076 286.407 109.039C286.37 109.003 286.32 108.982 286.269 108.982C286.217 108.982 286.167 109.003 286.131 109.039C286.094 109.076 286.074 109.125 286.074 109.177C286.074 114.797 284.407 120.291 281.285 124.964C278.162 129.637 273.725 133.279 268.532 135.429C263.34 137.58 257.627 138.143 252.115 137.046C246.603 135.95 241.54 133.244 237.566 129.27C233.592 125.296 230.885 120.233 229.789 114.721C228.692 109.209 229.255 103.495 231.406 98.3029C233.557 93.1107 237.199 88.6728 241.872 85.5505C246.544 82.4281 252.038 80.7616 257.658 80.7616C257.71 80.7616 257.76 80.7411 257.796 80.7045C257.833 80.6679 257.853 80.6183 257.853 80.5666C257.853 80.5149 257.833 80.4653 257.796 80.4287C257.76 80.3922 257.71 80.3716 257.658 80.3716C250.017 80.3716 242.688 83.4073 237.284 88.8108C231.881 94.2143 228.845 101.543 228.845 109.185C228.845 116.827 231.881 124.155 237.284 129.559C242.688 134.962 250.017 137.998 257.658 137.998V138.037ZM310.698 129.668C310.739 129.666 310.778 129.653 310.812 129.629C310.845 129.605 310.87 129.573 310.885 129.535L311.252 128.56L321.556 125.339C321.595 125.325 321.629 125.3 321.653 125.267C321.676 125.233 321.689 125.193 321.688 125.151V93.2884C321.688 93.2475 321.675 93.2077 321.651 93.1743C321.628 93.1408 321.594 93.1154 321.556 93.1012L311.704 90.028C311.655 90.0129 311.601 90.0174 311.555 90.0407C311.508 90.0639 311.473 90.104 311.455 90.1528C311.442 90.2034 311.449 90.257 311.473 90.3032C311.498 90.3493 311.538 90.3847 311.587 90.4024L321.322 93.46V125.034L311.065 128.24C311.037 128.249 311.012 128.264 310.992 128.284C310.972 128.305 310.957 128.33 310.948 128.357L310.542 129.426C310.524 129.473 310.526 129.526 310.546 129.573C310.566 129.619 310.604 129.656 310.651 129.675L310.698 129.668ZM310.698 89.1076H310.768C310.816 89.0869 310.854 89.0487 310.875 89.0007C310.895 88.9528 310.896 88.8989 310.878 88.8502C310.503 87.8518 310.098 86.9002 309.669 85.933C309.647 85.8867 309.607 85.8509 309.559 85.8334C309.511 85.8159 309.458 85.818 309.411 85.8394C309.388 85.8496 309.366 85.8643 309.348 85.8828C309.33 85.9013 309.316 85.9231 309.307 85.947C309.298 85.9709 309.293 85.9965 309.293 86.0222C309.294 86.0479 309.3 86.0733 309.31 86.0968C309.747 87.0484 310.137 88 310.511 88.9906C310.525 89.0331 310.552 89.0698 310.589 89.0952C310.625 89.1206 310.669 89.1332 310.714 89.131L310.698 89.1076ZM206.03 84.6538H206.124C206.146 84.6416 206.166 84.625 206.182 84.605C206.198 84.585 206.211 84.5621 206.218 84.5374C206.225 84.5128 206.227 84.4869 206.225 84.4614C206.222 84.4359 206.214 84.4111 206.202 84.3886L201.522 75.3796L205.266 71.62C205.288 71.6032 205.307 71.5819 205.32 71.5573C205.333 71.5328 205.341 71.5057 205.343 71.4778C205.345 71.45 205.341 71.422 205.331 71.3958C205.322 71.3696 205.306 71.3459 205.287 71.3261C205.267 71.3064 205.243 71.2911 205.217 71.2813C205.191 71.2715 205.163 71.2675 205.135 71.2695C205.107 71.2715 205.08 71.2794 205.055 71.2928C205.031 71.3062 205.009 71.3247 204.993 71.347L201.093 75.247C201.068 75.2795 201.055 75.3193 201.055 75.3601C201.055 75.4009 201.068 75.4407 201.093 75.4732L205.874 84.607C205.895 84.632 205.921 84.6516 205.951 84.6638C205.981 84.6761 206.013 84.6807 206.046 84.6772L206.03 84.6538ZM314.083 75.52C314.136 75.5205 314.186 75.501 314.224 75.4654C314.258 75.4281 314.277 75.3794 314.277 75.3289C314.277 75.2784 314.258 75.2297 314.224 75.1924L291.721 52.6738C291.689 52.6478 291.649 52.6337 291.608 52.6337C291.567 52.6337 291.527 52.6478 291.495 52.6738L281.94 57.6736L280.988 57.2524C280.068 56.839 279.225 56.4724 278.414 56.1682C278.39 56.1581 278.364 56.1529 278.338 56.153C278.312 56.153 278.286 56.1583 278.262 56.1684C278.238 56.1786 278.217 56.1935 278.198 56.2122C278.18 56.2309 278.166 56.2531 278.157 56.2774C278.139 56.326 278.142 56.3796 278.163 56.4264C278.185 56.4732 278.225 56.5094 278.274 56.527C279.054 56.8468 279.912 57.1978 280.824 57.6034L281.862 58.0714C281.889 58.083 281.918 58.089 281.947 58.089C281.977 58.089 282.006 58.083 282.033 58.0714L291.549 53.0872L313.943 75.52C313.988 75.5382 314.038 75.5382 314.083 75.52ZM208.378 68.4064C208.43 68.4069 208.48 68.3874 208.518 68.3518L223.861 53.0482L233.377 58.0324C233.402 58.0461 233.43 58.0532 233.459 58.0532C233.487 58.0532 233.516 58.0461 233.541 58.0324L234.578 57.5644C235.647 57.0886 236.614 56.6908 237.526 56.3398L238.595 55.942C238.622 55.931 238.647 55.9141 238.667 55.8925C238.688 55.871 238.703 55.8453 238.712 55.8172L241.918 45.568H273.461L276.222 54.3898C276.229 54.4143 276.241 54.4371 276.257 54.4567C276.274 54.4764 276.294 54.4926 276.316 54.5043C276.339 54.516 276.364 54.5229 276.389 54.5247C276.415 54.5265 276.44 54.523 276.464 54.5146C276.512 54.4985 276.552 54.4642 276.576 54.4191C276.599 54.3739 276.604 54.3214 276.589 54.2728L273.781 45.3184C273.768 45.2794 273.742 45.2455 273.709 45.2217C273.675 45.1978 273.635 45.1853 273.594 45.1858H241.731C241.69 45.1864 241.65 45.1994 241.617 45.2231C241.583 45.2468 241.558 45.28 241.543 45.3184L238.33 55.6144L237.347 55.9888C236.427 56.332 235.459 56.7688 234.383 57.2212L233.431 57.6424L223.861 52.6426C223.828 52.6179 223.789 52.6046 223.748 52.6046C223.707 52.6046 223.667 52.6179 223.635 52.6426L208.261 68.0866C208.242 68.1048 208.227 68.1266 208.217 68.1507C208.206 68.1749 208.201 68.2008 208.201 68.227C208.201 68.2532 208.206 68.2792 208.217 68.3033C208.227 68.3274 208.242 68.3492 208.261 68.3674C208.293 68.3979 208.334 68.417 208.378 68.422V68.4064Z" fill="#FAFAFA"/>
<path d="M145.595 115.604C143.154 118.724 140.868 121.844 138.637 125.065C136.407 128.287 134.285 131.578 132.28 135.01C131.773 135.861 131.29 136.75 130.798 137.623C130.089 138.947 129.672 140.407 129.574 141.906C129.446 144.18 129.667 146.461 130.229 148.668C131.2 152.638 132.673 156.467 134.613 160.064L138.63 158.504C137.832 154.903 137.256 151.256 136.906 147.584C136.751 145.998 136.803 144.398 137.062 142.826C137.126 142.389 137.288 141.973 137.538 141.609C138.052 140.829 138.552 140.049 139.098 139.269C141.211 136.149 143.45 133.099 145.704 130.034L152.482 120.846L145.595 115.604Z" fill="#FF8B7B"/>
<path d="M138.911 158.052L140.985 161.765L133.747 162.833C133.747 162.833 132.967 159.713 134.784 157.56L138.911 158.052Z" fill="#FF8B7B"/>
<path d="M142.077 166.702L136.048 167.31L133.747 162.833L140.985 161.764L142.077 166.702Z" fill="#FF8B7B"/>
<path d="M122.46 188.854L120.307 177.396C120.057 176.066 119.29 174.891 118.175 174.126C117.059 173.361 115.686 173.07 114.356 173.316L96.2832 176.701C97.3616 173.091 99.279 169.786 101.879 167.059C104.479 164.331 107.687 162.257 111.242 161.006C114.797 159.755 118.597 159.364 122.332 159.863C126.067 160.362 129.631 161.738 132.733 163.878L214.726 115.347C214.3 110.216 215.544 105.084 218.271 100.717C220.999 96.3507 225.065 92.9823 229.863 91.1143C234.661 89.2464 239.934 88.9789 244.896 90.3518C249.859 91.7246 254.244 94.6643 257.4 98.7327L239.327 102.118C238 102.373 236.827 103.143 236.065 104.259C235.302 105.375 235.011 106.748 235.256 108.077L237.409 119.543C237.66 120.871 238.428 122.046 239.543 122.81C240.658 123.575 242.03 123.867 243.36 123.622L261.433 120.229C260.35 123.862 258.418 127.185 255.796 129.923C253.175 132.661 249.939 134.736 246.357 135.976C242.775 137.216 238.949 137.586 235.196 137.055C231.443 136.523 227.87 135.106 224.773 132.92L142.943 181.358C143.415 186.5 142.208 191.656 139.502 196.055C136.797 200.453 132.739 203.856 127.937 205.753C123.135 207.651 117.847 207.941 112.866 206.581C107.884 205.22 103.479 202.282 100.308 198.206L118.381 194.813C119.709 194.559 120.884 193.791 121.648 192.674C122.413 191.558 122.704 190.185 122.46 188.854Z" fill="#018755"/>
<path d="M142.881 163.583L209.361 124.236C210.569 123.521 212.129 123.921 212.844 125.129L215.553 129.707C216.269 130.916 215.869 132.475 214.66 133.19L148.181 172.538C146.972 173.253 145.413 172.853 144.697 171.645L141.988 167.067C141.273 165.858 141.672 164.299 142.881 163.583Z" fill="#018755"/>
<path opacity="0.2" d="M142.881 163.583L209.361 124.236C210.569 123.521 212.129 123.921 212.844 125.129L215.553 129.707C216.269 130.916 215.869 132.475 214.66 133.19L148.181 172.538C146.972 173.253 145.413 172.853 144.697 171.645L141.988 167.067C141.273 165.858 141.672 164.299 142.881 163.583Z" fill="white"/>
<path d="M173.363 91.3616C173.441 91.8218 173.737 92.1416 174.034 92.1416C174.33 92.1416 174.517 91.6814 174.447 91.229C174.377 90.7766 174.073 90.449 173.776 90.488C173.48 90.527 173.293 90.9092 173.363 91.3616Z" fill="#263238"/>
<path d="M173.698 92.1572C174.461 93.4677 175.401 94.6672 176.49 95.7218C176.215 95.9984 175.882 96.2114 175.516 96.3461C175.149 96.4809 174.758 96.534 174.369 96.5018L173.698 92.1572Z" fill="#FF5652"/>
<path d="M171.312 89.0918C171.346 89.0922 171.381 89.0855 171.413 89.072C171.445 89.0586 171.474 89.0388 171.499 89.0138C171.733 88.7669 172.023 88.5794 172.345 88.4668C172.666 88.3542 173.01 88.3198 173.347 88.3664C173.383 88.3744 173.419 88.3753 173.455 88.3691C173.491 88.3628 173.525 88.3494 173.555 88.3298C173.586 88.3102 173.612 88.2847 173.633 88.2549C173.653 88.225 173.668 88.1913 173.675 88.1558C173.683 88.121 173.684 88.0848 173.677 88.0496C173.671 88.0144 173.658 87.9809 173.638 87.951C173.618 87.9211 173.593 87.8955 173.563 87.8758C173.533 87.856 173.5 87.8425 173.464 87.836C173.04 87.7688 172.606 87.8045 172.199 87.9403C171.792 88.076 171.423 88.3078 171.124 88.616C171.076 88.6693 171.049 88.7388 171.049 88.811C171.049 88.8832 171.076 88.9528 171.124 89.006C171.175 89.0555 171.241 89.0859 171.312 89.0918Z" fill="#263238"/>
<path d="M158.129 96.3926C158.909 100.589 159.767 108.272 156.835 111.064C156.835 111.064 157.981 115.315 165.773 115.315C174.353 115.315 169.868 111.064 169.868 111.064C165.188 109.949 165.313 106.478 166.124 103.264L158.129 96.3926Z" fill="#FF8B7B"/>
<path d="M152.88 114.216C152.975 114.078 153.046 113.925 153.091 113.763C153.746 111.275 156.499 109.333 160.072 109.231C163.839 109.138 168.09 109.59 170.602 111.665C171.709 112.578 170.485 113.911 170.485 113.911L152.88 114.216Z" fill="#018755"/>
<path opacity="0.5" d="M152.88 114.216C152.975 114.078 153.046 113.925 153.091 113.763C153.746 111.275 156.499 109.333 160.072 109.231C163.839 109.138 168.09 109.59 170.602 111.665C171.709 112.578 170.485 113.911 170.485 113.911L152.88 114.216Z" fill="white"/>
<path d="M125.338 271.167H125.393C125.508 271.151 125.615 271.1 125.699 271.02C125.783 270.94 125.839 270.836 125.861 270.723C125.888 270.634 125.896 270.541 125.884 270.45C125.872 270.358 125.84 270.27 125.791 270.192C125.354 269.451 123.451 269.061 123.396 269.046C123.37 269.04 123.343 269.043 123.318 269.053C123.293 269.062 123.272 269.079 123.256 269.1C123.243 269.123 123.236 269.148 123.236 269.174C123.236 269.2 123.243 269.226 123.256 269.248C123.544 269.74 124.613 271.167 125.338 271.167ZM123.661 269.381C124.285 269.545 125.299 269.88 125.557 270.325C125.581 270.372 125.594 270.424 125.594 270.477C125.594 270.53 125.581 270.582 125.557 270.629C125.487 270.871 125.362 270.886 125.331 270.894C124.98 270.941 124.153 270.099 123.661 269.381Z" fill="#018755"/>
<path d="M124.301 269.412C125.01 269.412 125.806 269.28 126.048 268.936C126.105 268.851 126.131 268.75 126.122 268.648C126.114 268.546 126.071 268.449 126.001 268.375C125.938 268.293 125.859 268.225 125.769 268.174C125.68 268.123 125.581 268.091 125.478 268.078C124.62 267.985 123.333 269.022 123.279 269.069C123.259 269.084 123.244 269.104 123.235 269.128C123.226 269.151 123.224 269.176 123.229 269.201C123.234 269.225 123.245 269.248 123.262 269.266C123.28 269.284 123.301 269.297 123.326 269.303C123.644 269.384 123.972 269.42 124.301 269.412ZM125.346 268.344H125.447C125.513 268.348 125.578 268.367 125.636 268.399C125.694 268.432 125.744 268.477 125.783 268.531C125.892 268.671 125.845 268.741 125.822 268.765C125.603 269.085 124.41 269.209 123.684 269.092C124.165 268.705 124.737 268.447 125.346 268.344Z" fill="#018755"/>
<path d="M181.99 290.106C182.723 290.106 183.433 290.004 183.675 289.677C183.736 289.59 183.769 289.486 183.769 289.38C183.769 289.274 183.736 289.171 183.675 289.084C183.627 289.004 183.564 288.935 183.489 288.88C183.414 288.825 183.328 288.785 183.238 288.764C182.286 288.507 180.282 289.646 180.196 289.7C180.172 289.714 180.153 289.735 180.142 289.76C180.131 289.786 180.128 289.814 180.133 289.841C180.139 289.867 180.152 289.892 180.172 289.912C180.191 289.931 180.216 289.944 180.243 289.95C180.82 290.051 181.404 290.103 181.99 290.106ZM182.902 288.998C182.988 288.986 183.075 288.986 183.16 288.998C183.215 289.009 183.267 289.031 183.312 289.063C183.358 289.096 183.397 289.137 183.425 289.185C183.526 289.357 183.487 289.443 183.425 289.49C183.16 289.856 181.709 289.864 180.64 289.716C181.341 289.332 182.109 289.088 182.902 288.998Z" fill="#018755"/>
<path d="M180.258 289.95H180.312C181.007 289.638 182.379 288.39 182.27 287.75C182.27 287.594 182.138 287.407 181.763 287.368C181.624 287.351 181.483 287.363 181.349 287.403C181.214 287.443 181.09 287.511 180.983 287.602C180.25 288.202 180.102 289.747 180.094 289.809C180.091 289.833 180.094 289.857 180.104 289.879C180.114 289.901 180.129 289.92 180.149 289.934C180.182 289.953 180.221 289.959 180.258 289.95ZM181.654 287.61H181.74C181.982 287.61 181.997 287.727 182.005 287.758C182.067 288.148 181.131 289.123 180.445 289.544C180.517 288.89 180.789 288.274 181.225 287.781C181.347 287.684 181.498 287.629 181.654 287.625V287.61Z" fill="#018755"/>
<path d="M173.955 289.817H179.688L180.258 276.549H174.525L173.955 289.817Z" fill="#FF8B7B"/>
<path d="M118.24 265.099L122.889 268.453L133.855 259.998L129.207 256.651L118.24 265.099Z" fill="#FF8B7B"/>
<path d="M123.552 268.406L119.09 263.726C119.012 263.644 118.908 263.592 118.796 263.577C118.684 263.563 118.57 263.588 118.474 263.648L114.012 266.355C113.906 266.422 113.815 266.513 113.748 266.62C113.68 266.727 113.638 266.847 113.623 266.973C113.608 267.098 113.621 267.226 113.661 267.345C113.702 267.465 113.768 267.574 113.856 267.665C115.416 269.264 116.298 269.958 118.256 272.002C119.465 273.258 122.741 277.672 124.41 279.412C126.079 281.151 128.006 279.724 127.483 278.866C125.143 275.013 124.004 271.191 123.942 269.287C123.919 268.957 123.781 268.645 123.552 268.406Z" fill="#263238"/>
<path d="M179.65 289.154H173.41C173.295 289.153 173.184 289.191 173.095 289.262C173.006 289.333 172.943 289.433 172.918 289.544L171.787 294.637C171.76 294.76 171.761 294.888 171.79 295.01C171.819 295.133 171.876 295.247 171.955 295.344C172.035 295.442 172.135 295.52 172.25 295.573C172.364 295.627 172.488 295.653 172.614 295.651C174.868 295.651 178.129 295.488 180.968 295.488C184.291 295.488 187.153 295.667 191.045 295.667C193.385 295.667 194.048 293.288 193.066 293.07C188.581 292.095 184.922 291.985 181.046 289.599C180.631 289.323 180.147 289.169 179.65 289.154Z" fill="#263238"/>
<path d="M153.614 123.162C152.834 124.605 151.952 126.001 151.102 127.304C149.636 129.558 148.216 131.508 147.202 132.85C146.289 134.059 145.704 134.769 145.704 134.769L134.16 126.898C134.16 126.898 141.18 113.233 146.586 112.359C152.147 111.478 157.241 116.688 153.614 123.162Z" fill="#018755"/>
<path opacity="0.5" d="M153.614 123.162C152.834 124.605 151.952 126.001 151.102 127.304C149.636 129.558 148.216 131.508 147.202 132.85C146.289 134.059 145.704 134.769 145.704 134.769L134.16 126.898C134.16 126.898 141.18 113.233 146.586 112.359C152.147 111.478 157.241 116.688 153.614 123.162Z" fill="black"/>
<path d="M151.102 127.304C149.635 129.558 148.216 131.508 147.202 132.85C147.319 130.167 147.872 125.83 149.955 122.523C150.712 123.272 151.016 125.206 151.102 127.304Z" fill="#018755"/>
<path opacity="0.6" d="M151.102 127.304C149.635 129.558 148.216 131.508 147.202 132.85C147.319 130.167 147.872 125.83 149.955 122.523C150.712 123.272 151.016 125.206 151.102 127.304Z" fill="black"/>
<path d="M181.498 131.337C181.498 133.287 181.451 135.432 181.342 137.795C181.061 144.222 180.359 152.233 179.002 162.186H148.356C148.145 157.506 151.101 134.527 146.562 112.359C149.952 111.707 153.381 111.275 156.827 111.065C161.165 110.815 165.514 110.815 169.853 111.065C172.826 111.358 175.773 111.88 178.667 112.625C178.667 112.625 181.506 115.846 181.498 131.337Z" fill="#018755"/>
<path opacity="0.5" d="M181.498 131.337C181.498 133.287 181.451 135.432 181.342 137.795C181.061 144.222 180.359 152.233 179.002 162.186H148.356C148.145 157.506 151.101 134.527 146.562 112.359C149.952 111.707 153.381 111.275 156.827 111.065C161.165 110.815 165.514 110.815 169.853 111.065C172.826 111.358 175.773 111.88 178.667 112.625C178.667 112.625 181.506 115.846 181.498 131.337Z" fill="black"/>
<path d="M181.498 131.337C181.498 133.287 181.451 135.432 181.342 137.795C177.746 134.285 177.504 127.117 177.504 127.117L181.498 131.337Z" fill="#018755"/>
<path opacity="0.6" d="M181.498 131.337C181.498 133.287 181.451 135.432 181.342 137.795C177.746 134.285 177.504 127.117 177.504 127.117L181.498 131.337Z" fill="black"/>
<path d="M175.11 122.437C175.7 123.423 176.351 124.372 177.06 125.276C177.707 126.119 178.355 126.914 179.018 127.702C180.336 129.262 181.748 130.767 183.183 132.226C186.123 135.211 189.38 137.869 192.894 140.151C193.84 140.743 194.816 141.284 195.819 141.773L196.217 141.96L196.412 142.054L196.654 142.155C197.039 142.318 197.435 142.454 197.839 142.561L198.409 142.709L198.955 142.803C199.303 142.863 199.655 142.902 200.008 142.92C202.355 142.997 204.699 142.667 206.934 141.945C210.885 140.715 214.65 138.955 218.127 136.711L216.278 132.811C212.731 133.873 209.117 134.696 205.46 135.276C203.912 135.536 202.334 135.557 200.78 135.338C200.647 135.317 200.516 135.283 200.39 135.237L200.218 135.19L200.093 135.135C199.992 135.135 199.969 135.057 199.906 135.034L199.438 134.761C198.72 134.344 198.025 133.888 197.356 133.396C194.477 131.23 191.801 128.807 189.361 126.158C188.089 124.824 186.865 123.428 185.671 122.039C185.078 121.337 184.501 120.635 183.963 119.925C183.425 119.216 182.871 118.49 182.551 117.991L175.11 122.437Z" fill="#FF8B7B"/>
<path d="M215.436 133.864L219.242 129.34L221.832 135.954C221.832 135.954 218.548 137.514 215.99 136.609L215.436 133.864Z" fill="#FF8B7B"/>
<path d="M224.827 128.349L225.888 133.63L221.832 135.947L219.242 129.332L224.827 128.349Z" fill="#FF8B7B"/>
<path d="M170.515 119.332C171.194 124.792 183.58 136.297 183.58 136.297L194.734 127.452C191.93 123.308 188.653 119.504 184.969 116.119C176.888 109.114 169.696 112.812 170.515 119.332Z" fill="#018755"/>
<path opacity="0.5" d="M170.515 119.332C171.194 124.792 183.58 136.297 183.58 136.297L194.734 127.452C191.93 123.308 188.653 119.504 184.969 116.119C176.888 109.114 169.696 112.812 170.515 119.332Z" fill="black"/>
<path d="M180.18 156.188C169.049 156.188 166.506 143.598 165.921 138.193C167.327 129.051 170.584 120.292 175.492 112.453C175.552 112.357 175.588 112.248 175.597 112.135C175.606 112.022 175.586 111.908 175.541 111.804C175.496 111.701 175.425 111.609 175.337 111.539C175.248 111.468 175.143 111.421 175.032 111.4L172.59 110.948C172.451 110.925 172.309 110.943 172.18 111C172.051 111.056 171.942 111.149 171.865 111.267C165.165 121.992 162.973 131.087 162.263 135.767H160.266C158.223 131.321 153.722 121.189 154.089 111.696C154.095 111.595 154.079 111.493 154.042 111.398C154.004 111.303 153.946 111.218 153.871 111.148C153.797 111.079 153.707 111.027 153.61 110.996C153.513 110.965 153.41 110.957 153.309 110.971L150.688 111.228C150.519 111.24 150.361 111.313 150.243 111.434C150.125 111.555 150.056 111.715 150.048 111.884C149.666 121.033 154.837 133.724 156.826 137.756C156.148 152.685 147.841 155.267 147.841 155.267C147.636 158.979 147.801 162.703 148.332 166.382C165.921 169.237 174.688 167.498 179.704 165.423C179.314 161.671 180.016 159.042 180.18 156.188Z" fill="#018755"/>
<path opacity="0.3" d="M180.18 156.188C169.049 156.188 166.506 143.598 165.921 138.193C167.327 129.051 170.584 120.292 175.492 112.453C175.552 112.357 175.588 112.248 175.597 112.135C175.606 112.022 175.586 111.908 175.541 111.804C175.496 111.701 175.425 111.609 175.337 111.539C175.248 111.468 175.143 111.421 175.032 111.4L172.59 110.948C172.451 110.925 172.309 110.943 172.18 111C172.051 111.056 171.942 111.149 171.865 111.267C165.165 121.992 162.973 131.087 162.263 135.767H160.266C158.223 131.321 153.722 121.189 154.089 111.696C154.095 111.595 154.079 111.493 154.042 111.398C154.004 111.303 153.946 111.218 153.871 111.148C153.797 111.079 153.707 111.027 153.61 110.996C153.513 110.965 153.41 110.957 153.309 110.971L150.688 111.228C150.519 111.24 150.361 111.313 150.243 111.434C150.125 111.555 150.056 111.715 150.048 111.884C149.666 121.033 154.837 133.724 156.826 137.756C156.148 152.685 147.841 155.267 147.841 155.267C147.636 158.979 147.801 162.703 148.332 166.382C165.921 169.237 174.688 167.498 179.704 165.423C179.314 161.671 180.016 159.042 180.18 156.188Z" fill="black"/>
<path d="M180.258 276.549L179.961 283.39H174.228L174.525 276.549H180.258Z" fill="#FF5652"/>
<path d="M129.199 256.651L133.848 260.005L128.193 264.358L123.544 261.004L129.199 256.651Z" fill="#FF5652"/>
<path d="M157.981 92.7813C159.206 98.3349 159.642 101.65 162.926 104.084C167.864 107.75 174.384 104.084 174.845 98.2881C175.258 93.0621 173.191 84.8565 167.349 83.4681C166.063 83.1706 164.723 83.2042 163.453 83.5658C162.184 83.9274 161.027 84.6053 160.091 85.5358C159.155 86.4664 158.47 87.6192 158.101 88.8864C157.732 90.1536 157.691 91.4937 157.981 92.7813Z" fill="#FF8B7B"/>
<path d="M153.028 84.1624C148.153 84.295 150.158 86.8612 152.599 88.273C152.599 88.273 149.784 89.6224 151.234 92.8438C153.434 97.7344 157.646 103.109 161.944 102.812C167.295 102.446 168.816 96.6268 168.621 90.886C171.444 88.2262 171.92 86.7598 172.357 83.5618C173.238 77.2204 169.26 73.7338 153.028 84.1624Z" fill="#263238"/>
<path d="M159.308 73.4763C155.97 74.3324 153.109 76.4788 151.354 79.4437C149.599 82.4085 149.093 85.9491 149.948 89.2869L175.134 82.8597C174.712 81.2039 173.967 79.6476 172.943 78.2797C171.919 76.9118 170.635 75.7591 169.166 74.8877C167.696 74.0162 166.069 73.443 164.377 73.2008C162.686 72.9587 160.963 73.0523 159.308 73.4763Z" fill="#018755"/>
<path opacity="0.5" d="M159.308 73.4763C155.97 74.3324 153.109 76.4788 151.354 79.4437C149.599 82.4085 149.093 85.9491 149.948 89.2869L175.134 82.8597C174.712 81.2039 173.967 79.6476 172.943 78.2797C171.919 76.9118 170.635 75.7591 169.166 74.8877C167.696 74.0162 166.069 73.443 164.377 73.2008C162.686 72.9587 160.963 73.0523 159.308 73.4763Z" fill="white"/>
<path d="M154.331 89.3025C154.505 89.305 154.678 89.267 154.834 89.1915C154.991 89.116 155.129 89.005 155.235 88.8673C155.342 88.7296 155.415 88.569 155.449 88.3981C155.483 88.2273 155.477 88.0509 155.431 87.8829C155.081 86.4663 155.032 84.9918 155.289 83.5553C155.545 82.1188 156.101 80.7523 156.921 79.5447C158.673 76.9075 161.355 75.0276 164.432 74.2797C164.725 74.2052 164.976 74.0175 165.13 73.7578C165.284 73.4982 165.329 73.1879 165.255 72.8952C165.18 72.6024 164.993 72.3513 164.733 72.197C164.473 72.0427 164.163 71.9978 163.87 72.0723C160.239 72.9644 157.078 75.1925 155.017 78.3123C154.025 79.7826 153.353 81.445 153.044 83.1917C152.734 84.9385 152.796 86.7307 153.223 88.4523C153.287 88.6968 153.431 88.9131 153.632 89.067C153.832 89.221 154.078 89.3038 154.331 89.3025Z" fill="#018755"/>
<path opacity="0.3" d="M154.331 89.3025C154.505 89.305 154.678 89.267 154.834 89.1915C154.991 89.116 155.129 89.005 155.235 88.8673C155.342 88.7296 155.415 88.569 155.449 88.3981C155.483 88.2273 155.477 88.0509 155.431 87.8829C155.081 86.4663 155.032 84.9918 155.289 83.5553C155.545 82.1188 156.101 80.7523 156.921 79.5447C158.673 76.9075 161.355 75.0276 164.432 74.2797C164.725 74.2052 164.976 74.0175 165.13 73.7578C165.284 73.4982 165.329 73.1879 165.255 72.8952C165.18 72.6024 164.993 72.3513 164.733 72.197C164.473 72.0427 164.163 71.9978 163.87 72.0723C160.239 72.9644 157.078 75.1925 155.017 78.3123C154.025 79.7826 153.353 81.445 153.044 83.1917C152.734 84.9385 152.796 86.7307 153.223 88.4523C153.287 88.6968 153.431 88.9131 153.632 89.067C153.832 89.221 154.078 89.3038 154.331 89.3025Z" fill="white"/>
<path d="M178.62 83.1951L148.98 90.7611C148.672 90.8392 148.346 90.792 148.072 90.6297C147.799 90.4674 147.601 90.2033 147.522 89.8953C147.443 89.5861 147.49 89.2585 147.653 88.9838C147.815 88.7092 148.079 88.5097 148.388 88.4289L178.028 80.8629C178.338 80.7849 178.666 80.833 178.941 80.9968C179.216 81.1605 179.415 81.4265 179.494 81.7365C179.532 81.8897 179.54 82.0489 179.517 82.2051C179.494 82.3614 179.441 82.5115 179.36 82.647C179.278 82.7825 179.171 82.9006 179.045 82.9947C178.918 83.0887 178.774 83.1568 178.62 83.1951Z" fill="#018755"/>
<path opacity="0.3" d="M178.62 83.1951L148.98 90.7611C148.672 90.8392 148.346 90.792 148.072 90.6297C147.799 90.4674 147.601 90.2033 147.522 89.8953C147.443 89.5861 147.49 89.2585 147.653 88.9838C147.815 88.7092 148.079 88.5097 148.388 88.4289L178.028 80.8629C178.338 80.7849 178.666 80.833 178.941 80.9968C179.216 81.1605 179.415 81.4265 179.494 81.7365C179.532 81.8897 179.54 82.0489 179.517 82.2051C179.494 82.3614 179.441 82.5115 179.36 82.647C179.278 82.7825 179.171 82.9006 179.045 82.9947C178.918 83.0887 178.774 83.1568 178.62 83.1951Z" fill="white"/>
<path d="M165.695 92.2588C165.841 93.6644 166.45 94.9816 167.427 96.0028C168.722 97.3366 170.001 96.4396 170.165 94.7548C170.313 93.2416 169.814 90.7222 168.261 90.0202C166.709 89.3182 165.531 90.5662 165.695 92.2588Z" fill="#FF8B7B"/>
<path d="M168.145 162.186C168.145 162.186 168.808 202.964 163.683 218.954C155.563 244.281 131.04 264.795 131.04 264.795L122.273 258.469C122.273 258.469 142.693 241.137 146.437 219.82C149.799 200.655 148.372 177.856 148.372 162.201L168.145 162.186Z" fill="#018755"/>
<path opacity="0.3" d="M168.145 162.186C168.145 162.186 168.808 202.964 163.683 218.954C155.563 244.281 131.04 264.795 131.04 264.795L122.273 258.469C122.273 258.469 142.693 241.137 146.437 219.82C149.799 200.655 148.372 177.856 148.372 162.201L168.145 162.186Z" fill="black"/>
<path d="M162.427 169.19C161.343 176.538 165.173 196.997 166.499 203.697C167.887 191.171 168.145 176.312 168.168 168.2C165.36 166.296 162.926 165.805 162.427 169.19Z" fill="#018755"/>
<path opacity="0.4" d="M162.427 169.19C161.343 176.538 165.173 196.997 166.499 203.697C167.887 191.171 168.145 176.312 168.168 168.2C165.36 166.296 162.926 165.805 162.427 169.19Z" fill="black"/>
<path d="M134.792 262.946C134.831 262.946 131.188 265.091 131.188 265.091L121.617 258.18L124.8 255.739L134.792 262.946Z" fill="#018755"/>
<path opacity="0.4" d="M134.792 262.946C134.831 262.946 131.188 265.091 131.188 265.091L121.617 258.18L124.8 255.739L134.792 262.946Z" fill="white"/>
<path d="M179.018 162.186C179.018 162.186 187.653 198.768 188.261 216.24C188.94 235.841 182.099 282.064 182.099 282.064H172.38C172.38 282.064 171.179 235.482 170.75 217.628C170.282 198.167 158.855 162.186 158.855 162.186H179.018Z" fill="#018755"/>
<path opacity="0.3" d="M179.018 162.186C179.018 162.186 187.653 198.768 188.261 216.24C188.94 235.841 182.099 282.064 182.099 282.064H172.38C172.38 282.064 171.179 235.482 170.75 217.628C170.282 198.167 158.855 162.186 158.855 162.186H179.018Z" fill="black"/>
<path d="M183.971 278.195C184.01 278.195 183.417 282.228 183.417 282.228H171.6L171.28 278.632L183.971 278.195Z" fill="#018755"/>
<path opacity="0.4" d="M183.971 278.195C184.01 278.195 183.417 282.228 183.417 282.228H171.6L171.28 278.632L183.971 278.195Z" fill="white"/>
</svg>
